<?xml version="1.0" standalone="no"?>
<!DOCTYPE svg PUBLIC "-//W3C//DTD SVG 20010904//EN"
 "http://www.w3.org/TR/2001/REC-SVG-20010904/DTD/svg10.dtd">
<svg version="1.0" xmlns="http://www.w3.org/2000/svg"
 width="901.000000pt" height="901.000000pt" viewBox="0 0 901.000000 901.000000"
 preserveAspectRatio="xMidYMid meet">
<metadata>
Created by potrace 1.11, written by Peter Selinger 2001-2013
</metadata>
<g transform="translate(0.000000,901.000000) scale(0.100000,-0.100000)"
fill="#000000" stroke="none">
<path d="M3089 7626 c23 -38 231 -397 259 -448 12 -20 32 -55 46 -77 15 -22
26 -43 26 -46 0 -3 15 -29 33 -58 18 -29 47 -77 64 -107 16 -30 120 -210 230
-400 536 -921 668 -1149 696 -1200 17 -30 40 -69 51 -87 l22 -31 114 200 c63
110 125 218 137 239 13 22 75 130 139 242 126 218 125 215 205 357 29 52 56
97 59 100 3 3 14 22 25 42 18 34 119 211 181 318 23 40 189 327 234 405 9 17
87 152 173 302 87 150 157 274 157 277 0 2 -646 4 -1435 4 l-1435 0 19 -32z"/>
<path d="M9 6533 c0 -23 0 -4012 0 -4036 1 -17 25 -18 554 -14 303 2 563 6
577 10 14 3 47 8 75 12 75 9 139 24 254 57 557 159 1021 558 1270 1091 73 156
146 403 165 557 3 25 8 72 12 105 13 112 7 397 -10 491 -2 10 -7 39 -11 64
-11 76 -64 270 -97 360 -66 180 -159 351 -280 515 -296 401 -785 697 -1278
775 -41 7 -84 15 -95 18 -11 3 -271 7 -577 9 -536 4 -558 4 -559 -14z"/>
<path d="M7959 6546 c-2 -2 -33 -6 -69 -10 -62 -6 -96 -11 -150 -21 -14 -3
-36 -7 -49 -10 -198 -37 -480 -153 -666 -273 -248 -159 -483 -399 -635 -647
-88 -142 -212 -436 -235 -554 -2 -12 -6 -30 -9 -39 -3 -9 -8 -30 -10 -47 -3
-16 -8 -41 -11 -55 -30 -149 -40 -440 -22 -610 40 -365 190 -734 420 -1030 71
-91 268 -285 358 -353 248 -185 508 -305 810 -373 151 -34 201 -37 757 -41
l562 -4 0 2036 0 2036 -524 -1 c-288 -1 -526 -3 -527 -4z"/>
<path d="M4463 3768 c-46 -76 -62 -103 -120 -208 -11 -19 -67 -116 -125 -215
-219 -377 -933 -1608 -968 -1670 -10 -16 -50 -86 -90 -155 -39 -69 -76 -132
-80 -140 -7 -13 154 -15 1430 -15 l1437 0 -23 37 c-13 21 -24 40 -24 43 0 2
-17 33 -38 67 -21 35 -41 70 -45 78 -4 8 -21 38 -37 65 -17 28 -33 57 -37 65
-3 8 -11 22 -18 30 -7 8 -29 45 -49 82 -20 37 -58 105 -85 150 -42 72 -286
497 -344 598 -11 19 -28 49 -38 65 -10 17 -26 46 -37 65 -11 19 -94 164 -184
321 -91 157 -177 305 -190 330 -133 234 -272 475 -278 482 -4 4 -29 -30 -57
-75z"/>
</g>
</svg>
