<svg xmlns="http://www.w3.org/2000/svg" xmlns:xlink="http://www.w3.org/1999/xlink" width="950" height="147" viewBox="0 0 950 147">
  <defs>
    <clipPath id="clip-blue_illustration">
      <rect width="950" height="147"/>
    </clipPath>
  </defs>
  <g id="blue_illustration" clip-path="url(#clip-blue_illustration)">
    <path id="Path_746" data-name="Path 746" d="M14.5,79.8c0-36.2,29.8-65.5,66.5-65.5,36.8,0,66.6,29.3,66.6,65.5S117.8,145.3,81,145.3c-36.7,0-66.5-29.3-66.5-65.5" transform="translate(-7.5 -7.5)" fill="#35a9ea"/>
    <path id="Path_749" data-name="Path 749" d="M14.5,79.8c0-36.2,29.8-65.5,66.5-65.5,36.8,0,66.6,29.3,66.6,65.5S117.8,145.3,81,145.3c-36.7,0-66.5-29.3-66.5-65.5" transform="translate(192.5 -7.5)" fill="#35a9ea"/>
    <path id="Path_750" data-name="Path 750" d="M14.5,79.8c0-36.2,29.8-65.5,66.5-65.5,36.8,0,66.6,29.3,66.6,65.5S117.8,145.3,81,145.3c-36.7,0-66.5-29.3-66.5-65.5" transform="translate(392.5 -7.5)" fill="#35a9ea"/>
    <path id="Path_751" data-name="Path 751" d="M14.5,79.8c0-36.2,29.8-65.5,66.5-65.5,36.8,0,66.6,29.3,66.6,65.5S117.8,145.3,81,145.3c-36.7,0-66.5-29.3-66.5-65.5" transform="translate(592.5 -7.5)" fill="#35a9ea"/>
    <path id="Path_752" data-name="Path 752" d="M14.5,79.8c0-36.2,29.8-65.5,66.5-65.5,36.8,0,66.6,29.3,66.6,65.5S117.8,145.3,81,145.3c-36.7,0-66.5-29.3-66.5-65.5" transform="translate(797.5 -7.5)" fill="#35a9ea"/>
    <path id="Path_753" data-name="Path 753" d="M20.2,64.5H4.5V52.3H20.2V36.5H33.3V52.3H49V64.5H33.3V80.2H20.2Z" transform="translate(146 14)" fill="#7f3f98"/>
    <path id="Path_754" data-name="Path 754" d="M20.2,64.5H4.5V52.3H20.2V36.5H33.3V52.3H49V64.5H33.3V80.2H20.2Z" transform="translate(347 14)" fill="#7f3f98"/>
    <path id="Path_755" data-name="Path 755" d="M20.2,64.5H4.5V52.3H20.2V36.5H33.3V52.3H49V64.5H33.3V80.2H20.2Z" transform="translate(545 14)" fill="#7f3f98"/>
    <path id="Path_756" data-name="Path 756" d="M4.5,42.1H50.3V54.4H4.5Zm0,20.1H50.3V74.5H4.5Z" transform="translate(748 14)" fill="#7f3f98"/>
    <path id="Path_767" data-name="Path 767" d="M10.45,6.7a1.879,1.879,0,0,1,1.242.594,1.936,1.936,0,0,1,.486,1.374,2.138,2.138,0,0,1-.72,1.7A2.9,2.9,0,0,1,9.49,11H5.9V2.6H9.358a3.07,3.07,0,0,1,1.974.582,1.941,1.941,0,0,1,.726,1.6,1.87,1.87,0,0,1-.432,1.29A2.036,2.036,0,0,1,10.45,6.7ZM7.846,4v2.04h1.08a1.3,1.3,0,0,0,.87-.27.931.931,0,0,0,.318-.75.939.939,0,0,0-.312-.75A1.3,1.3,0,0,0,8.926,4Zm1.212,5.52A1.192,1.192,0,0,0,9.91,9.23a1.059,1.059,0,0,0,.312-.81A.953.953,0,0,0,9.9,7.67a1.228,1.228,0,0,0-.846-.282H7.846V9.524ZM19.282,7.808a7.543,7.543,0,0,1-.048.8H14.962a1.167,1.167,0,0,0,.384.876,1.433,1.433,0,0,0,.972.312q.852,0,1.08-.54h1.8a1.88,1.88,0,0,1-.48,1,2.61,2.61,0,0,1-1.02.678,3.815,3.815,0,0,1-1.38.24,3.226,3.226,0,0,1-2.328-.816,2.976,2.976,0,0,1-.852-2.256,3.291,3.291,0,0,1,.384-1.626A2.613,2.613,0,0,1,14.614,5.42,3.786,3.786,0,0,1,17.836,5.4a2.556,2.556,0,0,1,1.068.978A2.733,2.733,0,0,1,19.282,7.808ZM17.47,7.472a1.24,1.24,0,0,0-.324-.888,1.218,1.218,0,0,0-.9-.312,1.283,1.283,0,0,0-.93.33,1.193,1.193,0,0,0-.354.87Zm5.448,3.708a3.813,3.813,0,0,1-1.446-.252,2.251,2.251,0,0,1-.954-.684,1.56,1.56,0,0,1-.336-.984h1.824a.585.585,0,0,0,.264.492,1.135,1.135,0,0,0,.684.192A.772.772,0,0,0,23.44,9.8a.5.5,0,0,0-.234-.888l-1.416-.36a2.041,2.041,0,0,1-1.08-.612,1.562,1.562,0,0,1-.372-1.056,1.59,1.59,0,0,1,.672-1.326,2.905,2.905,0,0,1,1.8-.51,3.243,3.243,0,0,1,1.914.48,1.539,1.539,0,0,1,.666,1.32H23.578a.566.566,0,0,0-.21-.468.908.908,0,0,0-.582-.168.794.794,0,0,0-.48.132.411.411,0,0,0-.18.348q0,.384.492.516l1.368.372a2.206,2.206,0,0,1,1.074.594,1.424,1.424,0,0,1,.39,1.014,1.764,1.764,0,0,1-.678,1.446A2.875,2.875,0,0,1,22.918,11.18Zm6.864-1.608a4.632,4.632,0,0,0,.636-.036V11a6.909,6.909,0,0,1-1.224.1,2.455,2.455,0,0,1-1.464-.42,1.992,1.992,0,0,1-.588-1.7v-2.3H26.23V5.216h.912V3.5h1.836V5.216h1.308V6.668H28.978v1.92a1.111,1.111,0,0,0,.2.786A.828.828,0,0,0,29.782,9.572ZM38.506,2.6a3.069,3.069,0,0,1,1.548.39,2.814,2.814,0,0,1,1.074,1.08,3.127,3.127,0,0,1,.39,1.566,3.136,3.136,0,0,1-.39,1.56,2.8,2.8,0,0,1-1.074,1.086,3.069,3.069,0,0,1-1.548.39H36.874V11H34.93V2.6Zm-.3,4.488a1.259,1.259,0,0,0,.966-.408,1.476,1.476,0,0,0,.378-1.044,1.476,1.476,0,0,0-.378-1.044,1.259,1.259,0,0,0-.966-.408H36.874v2.9Zm4.4-1.872h1.836V6.428a1.62,1.62,0,0,1,1.6-1.308,2.019,2.019,0,0,1,.48.048v1.7a5.119,5.119,0,0,0-.552-.036,1.4,1.4,0,0,0-1.116.468,2.191,2.191,0,0,0-.408,1.464V11H42.61Zm7.284,5.94a2.644,2.644,0,0,1-1.458-.4,2.543,2.543,0,0,1-.942-1.086,3.642,3.642,0,0,1-.324-1.566,3.542,3.542,0,0,1,.336-1.56,2.589,2.589,0,0,1,.966-1.092,2.66,2.66,0,0,1,1.446-.4,2.228,2.228,0,0,1,1.092.264,1.735,1.735,0,0,1,.72.72V5.216h1.824V11H51.73v-.816a1.792,1.792,0,0,1-.738.7A2.266,2.266,0,0,1,49.894,11.156Zm.528-1.524a1.254,1.254,0,0,0,1.02-.432,1.648,1.648,0,0,0,.36-1.092,1.63,1.63,0,0,0-.36-1.08,1.254,1.254,0,0,0-1.02-.432,1.283,1.283,0,0,0-1,.42,1.57,1.57,0,0,0-.378,1.092,1.593,1.593,0,0,0,.378,1.1A1.274,1.274,0,0,0,50.422,9.632Zm7.536,1.548A3.36,3.36,0,0,1,56.32,10.8a2.65,2.65,0,0,1-1.08-1.08,3.316,3.316,0,0,1-.378-1.608,3.281,3.281,0,0,1,.378-1.6,2.66,2.66,0,0,1,1.08-1.074,3.36,3.36,0,0,1,1.638-.384,3.265,3.265,0,0,1,2.088.636,2.407,2.407,0,0,1,.912,1.728H59.122a1,1,0,0,0-.378-.612,1.3,1.3,0,0,0-.774-.2,1.161,1.161,0,0,0-.936.4A1.675,1.675,0,0,0,56.7,8.108a1.675,1.675,0,0,0,.336,1.116,1.161,1.161,0,0,0,.936.4,1.359,1.359,0,0,0,.774-.192.941.941,0,0,0,.378-.576h1.836a2.366,2.366,0,0,1-.912,1.7A3.287,3.287,0,0,1,57.958,11.18Zm7.308-1.608a4.632,4.632,0,0,0,.636-.036V11a6.909,6.909,0,0,1-1.224.1,2.455,2.455,0,0,1-1.464-.42,1.992,1.992,0,0,1-.588-1.7v-2.3h-.912V5.216h.912V3.5h1.836V5.216H65.77V6.668H64.462v1.92a1.111,1.111,0,0,0,.2.786A.828.828,0,0,0,65.266,9.572ZM67.2,5.216h1.836V11H67.2Zm.924-.5a1.117,1.117,0,0,1-1.14-1.128,1.14,1.14,0,1,1,2.28,0,1.092,1.092,0,0,1-.324.8A1.106,1.106,0,0,1,68.122,4.712Zm5.3,6.468a3.36,3.36,0,0,1-1.638-.384,2.65,2.65,0,0,1-1.08-1.08,3.316,3.316,0,0,1-.378-1.608,3.282,3.282,0,0,1,.378-1.6,2.66,2.66,0,0,1,1.08-1.074,3.36,3.36,0,0,1,1.638-.384,3.265,3.265,0,0,1,2.088.636,2.407,2.407,0,0,1,.912,1.728H74.59a1,1,0,0,0-.378-.612,1.3,1.3,0,0,0-.774-.2,1.161,1.161,0,0,0-.936.4,1.675,1.675,0,0,0-.336,1.116A1.675,1.675,0,0,0,72.5,9.224a1.161,1.161,0,0,0,.936.4,1.359,1.359,0,0,0,.774-.192.941.941,0,0,0,.378-.576h1.836a2.366,2.366,0,0,1-.912,1.7A3.287,3.287,0,0,1,73.426,11.18ZM83.614,7.808a7.541,7.541,0,0,1-.048.8H79.294a1.167,1.167,0,0,0,.384.876,1.433,1.433,0,0,0,.972.312q.852,0,1.08-.54h1.8a1.88,1.88,0,0,1-.48,1,2.61,2.61,0,0,1-1.02.678,3.815,3.815,0,0,1-1.38.24,3.226,3.226,0,0,1-2.328-.816,2.976,2.976,0,0,1-.852-2.256,3.291,3.291,0,0,1,.384-1.626A2.613,2.613,0,0,1,78.946,5.42,3.786,3.786,0,0,1,82.168,5.4a2.556,2.556,0,0,1,1.068.978A2.733,2.733,0,0,1,83.614,7.808ZM81.8,7.472a1.24,1.24,0,0,0-.324-.888,1.218,1.218,0,0,0-.9-.312,1.283,1.283,0,0,0-.93.33,1.193,1.193,0,0,0-.354.87ZM18.922,16.6a3.069,3.069,0,0,1,1.548.39,2.814,2.814,0,0,1,1.074,1.08,3.327,3.327,0,0,1,0,3.126,2.8,2.8,0,0,1-1.074,1.086,3.069,3.069,0,0,1-1.548.39H17.29V25H15.346V16.6Zm-.3,4.488a1.259,1.259,0,0,0,.966-.408,1.631,1.631,0,0,0,0-2.088,1.259,1.259,0,0,0-.966-.408H17.29v2.9Zm4.4-1.872h1.836v1.212a1.62,1.62,0,0,1,1.6-1.308,2.019,2.019,0,0,1,.48.048v1.7a5.119,5.119,0,0,0-.552-.036,1.4,1.4,0,0,0-1.116.468,2.191,2.191,0,0,0-.408,1.464V25H23.026Zm7.86,5.964a3.527,3.527,0,0,1-1.7-.4,2.759,2.759,0,0,1-1.122-1.092,3.184,3.184,0,0,1-.39-1.584,3.151,3.151,0,0,1,.39-1.578,2.77,2.77,0,0,1,1.122-1.086,3.851,3.851,0,0,1,3.4,0A2.768,2.768,0,0,1,33.7,20.536a3.387,3.387,0,0,1,0,3.156,2.768,2.768,0,0,1-1.116,1.092A3.492,3.492,0,0,1,30.886,25.18Zm0-1.56a1.278,1.278,0,0,0,1.008-.42,1.789,1.789,0,0,0,0-2.184,1.427,1.427,0,0,0-2.022,0,1.812,1.812,0,0,0,0,2.184A1.274,1.274,0,0,0,30.886,23.62Zm7.344,1.56a3.36,3.36,0,0,1-1.638-.384,2.65,2.65,0,0,1-1.08-1.08,3.316,3.316,0,0,1-.378-1.608,3.281,3.281,0,0,1,.378-1.6,2.66,2.66,0,0,1,1.08-1.074,3.36,3.36,0,0,1,1.638-.384,3.265,3.265,0,0,1,2.088.636,2.407,2.407,0,0,1,.912,1.728H39.394a1,1,0,0,0-.378-.612,1.3,1.3,0,0,0-.774-.2,1.161,1.161,0,0,0-.936.4,2.021,2.021,0,0,0,0,2.232,1.161,1.161,0,0,0,.936.4,1.359,1.359,0,0,0,.774-.192.941.941,0,0,0,.378-.576H41.23a2.366,2.366,0,0,1-.912,1.7A3.287,3.287,0,0,1,38.23,25.18Zm10.188-3.372a7.542,7.542,0,0,1-.048.8H44.1a1.167,1.167,0,0,0,.384.876,1.433,1.433,0,0,0,.972.312q.852,0,1.08-.54h1.8a1.88,1.88,0,0,1-.48,1,2.61,2.61,0,0,1-1.02.678,3.815,3.815,0,0,1-1.38.24,3.226,3.226,0,0,1-2.328-.816,2.976,2.976,0,0,1-.852-2.256,3.291,3.291,0,0,1,.384-1.626A2.613,2.613,0,0,1,43.75,19.42a3.786,3.786,0,0,1,3.222-.024,2.556,2.556,0,0,1,1.068.978A2.733,2.733,0,0,1,48.418,21.808Zm-1.812-.336a1.24,1.24,0,0,0-.324-.888,1.218,1.218,0,0,0-.9-.312,1.283,1.283,0,0,0-.93.33,1.193,1.193,0,0,0-.354.87Zm5.448,3.708a3.813,3.813,0,0,1-1.446-.252,2.251,2.251,0,0,1-.954-.684,1.56,1.56,0,0,1-.336-.984h1.824a.585.585,0,0,0,.264.492,1.135,1.135,0,0,0,.684.192.772.772,0,0,0,.486-.144.5.5,0,0,0-.234-.888l-1.416-.36a2.041,2.041,0,0,1-1.08-.612,1.562,1.562,0,0,1-.372-1.056,1.59,1.59,0,0,1,.672-1.326,2.905,2.905,0,0,1,1.8-.51,3.243,3.243,0,0,1,1.914.48,1.539,1.539,0,0,1,.666,1.32H52.714a.566.566,0,0,0-.21-.468.908.908,0,0,0-.582-.168.794.794,0,0,0-.48.132.411.411,0,0,0-.18.348q0,.384.492.516l1.368.372a2.206,2.206,0,0,1,1.074.594,1.424,1.424,0,0,1,.39,1.014,1.764,1.764,0,0,1-.678,1.446A2.875,2.875,0,0,1,52.054,25.18Zm6.228,0a3.813,3.813,0,0,1-1.446-.252,2.251,2.251,0,0,1-.954-.684,1.56,1.56,0,0,1-.336-.984H57.37a.585.585,0,0,0,.264.492,1.135,1.135,0,0,0,.684.192A.772.772,0,0,0,58.8,23.8a.5.5,0,0,0-.234-.888l-1.416-.36a2.041,2.041,0,0,1-1.08-.612,1.562,1.562,0,0,1-.372-1.056,1.59,1.59,0,0,1,.672-1.326,2.905,2.905,0,0,1,1.8-.51,3.243,3.243,0,0,1,1.914.48,1.539,1.539,0,0,1,.666,1.32H58.942a.566.566,0,0,0-.21-.468.908.908,0,0,0-.582-.168.794.794,0,0,0-.48.132.411.411,0,0,0-.18.348q0,.384.492.516l1.368.372a2.206,2.206,0,0,1,1.074.594,1.424,1.424,0,0,1,.39,1.014,1.764,1.764,0,0,1-.678,1.446A2.875,2.875,0,0,1,58.282,25.18Zm9.636-3.372a7.541,7.541,0,0,1-.048.8H63.6a1.167,1.167,0,0,0,.384.876,1.433,1.433,0,0,0,.972.312q.852,0,1.08-.54h1.8a1.88,1.88,0,0,1-.48,1,2.61,2.61,0,0,1-1.02.678,3.815,3.815,0,0,1-1.38.24,3.226,3.226,0,0,1-2.328-.816,2.976,2.976,0,0,1-.852-2.256,3.291,3.291,0,0,1,.384-1.626A2.613,2.613,0,0,1,63.25,19.42a3.786,3.786,0,0,1,3.222-.024,2.556,2.556,0,0,1,1.068.978A2.733,2.733,0,0,1,67.918,21.808Zm-1.812-.336a1.24,1.24,0,0,0-.324-.888,1.218,1.218,0,0,0-.9-.312,1.283,1.283,0,0,0-.93.33,1.193,1.193,0,0,0-.354.87Zm5.448,3.708a3.813,3.813,0,0,1-1.446-.252,2.251,2.251,0,0,1-.954-.684,1.56,1.56,0,0,1-.336-.984h1.824a.585.585,0,0,0,.264.492,1.135,1.135,0,0,0,.684.192.772.772,0,0,0,.486-.144.5.5,0,0,0-.234-.888l-1.416-.36a2.041,2.041,0,0,1-1.08-.612,1.562,1.562,0,0,1-.372-1.056,1.59,1.59,0,0,1,.672-1.326,2.905,2.905,0,0,1,1.8-.51,3.243,3.243,0,0,1,1.914.48,1.539,1.539,0,0,1,.666,1.32H72.214A.566.566,0,0,0,72,20.38a.908.908,0,0,0-.582-.168.794.794,0,0,0-.48.132.411.411,0,0,0-.18.348q0,.384.492.516l1.368.372a2.206,2.206,0,0,1,1.074.594,1.424,1.424,0,0,1,.39,1.014,1.764,1.764,0,0,1-.678,1.446A2.875,2.875,0,0,1,71.554,25.18ZM32.944,34.7a1.879,1.879,0,0,1,1.242.594,1.936,1.936,0,0,1,.486,1.374,2.138,2.138,0,0,1-.72,1.7A2.9,2.9,0,0,1,31.984,39H28.4V30.6h3.456a3.07,3.07,0,0,1,1.974.582,1.941,1.941,0,0,1,.726,1.6,1.87,1.87,0,0,1-.432,1.29A2.036,2.036,0,0,1,32.944,34.7ZM30.34,32v2.04h1.08a1.3,1.3,0,0,0,.87-.27,1.05,1.05,0,0,0,.006-1.5A1.3,1.3,0,0,0,31.42,32Zm1.212,5.52a1.192,1.192,0,0,0,.852-.294,1.059,1.059,0,0,0,.312-.81.953.953,0,0,0-.318-.75,1.228,1.228,0,0,0-.846-.282H30.34v2.136ZM39.688,30.6a3.069,3.069,0,0,1,1.548.39,2.814,2.814,0,0,1,1.074,1.08,3.327,3.327,0,0,1,0,3.126,2.8,2.8,0,0,1-1.074,1.086,3.069,3.069,0,0,1-1.548.39H38.056V39H36.112V30.6Zm-.3,4.488a1.259,1.259,0,0,0,.966-.408,1.631,1.631,0,0,0,0-2.088,1.259,1.259,0,0,0-.966-.408H38.056v2.9ZM43.852,30.6h2.256l2.232,5.964L50.572,30.6H52.78V39H50.92V33.552L49.06,39H47.62l-1.908-5.484V39h-1.86Zm9.948,0h2.088l1.74,5.928,1.74-5.928h2.088L58.636,39H56.62Z" transform="translate(29 51)" fill="#fff"/>
    <path id="Path_766" data-name="Path 766" d="M20.434,11.24a3.5,3.5,0,0,1-2.424-.786,2.806,2.806,0,0,1-.876-2.2h1.944a1.485,1.485,0,0,0,.366,1.068,1.318,1.318,0,0,0,1,.384,1.287,1.287,0,0,0,.834-.24.833.833,0,0,0,.294-.684.861.861,0,0,0-.222-.618,2.29,2.29,0,0,0-.8-.462l-1.512-.588a2.7,2.7,0,0,1-1.272-.894,2.28,2.28,0,0,1-.432-1.4A2.3,2.3,0,0,1,17.7,3.53a2.383,2.383,0,0,1,1.044-.864,3.8,3.8,0,0,1,1.578-.306,3.713,3.713,0,0,1,1.608.33A2.465,2.465,0,0,1,23.4,5.024H21.454a1.248,1.248,0,0,0-.3-.9,1.143,1.143,0,0,0-.864-.312,1.128,1.128,0,0,0-.738.222.743.743,0,0,0-.27.606.783.783,0,0,0,.264.594,2.982,2.982,0,0,0,.888.5l1.392.552a2.7,2.7,0,0,1,1.278.924,2.438,2.438,0,0,1,.414,1.44,2.445,2.445,0,0,1-.384,1.368,2.489,2.489,0,0,1-1.08.906A3.864,3.864,0,0,1,20.434,11.24Zm7.392-1.668a4.632,4.632,0,0,0,.636-.036V11a6.909,6.909,0,0,1-1.224.1,2.455,2.455,0,0,1-1.464-.42,1.992,1.992,0,0,1-.588-1.7v-2.3h-.912V5.216h.912V3.5h1.836V5.216H28.33V6.668H27.022v1.92a1.111,1.111,0,0,0,.2.786A.828.828,0,0,0,27.826,9.572Zm4.2,1.584a2.644,2.644,0,0,1-1.458-.4,2.543,2.543,0,0,1-.942-1.086A3.642,3.642,0,0,1,29.3,8.108a3.542,3.542,0,0,1,.336-1.56A2.589,2.589,0,0,1,30.6,5.456a2.66,2.66,0,0,1,1.446-.4,2.228,2.228,0,0,1,1.092.264,1.735,1.735,0,0,1,.72.72V5.216h1.824V11H33.862v-.816a1.792,1.792,0,0,1-.738.7A2.266,2.266,0,0,1,32.026,11.156Zm.528-1.524a1.254,1.254,0,0,0,1.02-.432,1.648,1.648,0,0,0,.36-1.092,1.63,1.63,0,0,0-.36-1.08,1.254,1.254,0,0,0-1.02-.432,1.283,1.283,0,0,0-1,.42,1.57,1.57,0,0,0-.378,1.092,1.593,1.593,0,0,0,.378,1.1A1.274,1.274,0,0,0,32.554,9.632Zm4.9-4.416h1.836v.84a1.738,1.738,0,0,1,.732-.738,2.375,2.375,0,0,1,1.14-.258q2.112,0,2.112,2.364V11H41.422V8.024a1.931,1.931,0,0,0-.234-1.08.89.89,0,0,0-.786-.336,1.01,1.01,0,0,0-.834.348,1.59,1.59,0,0,0-.282,1.02V11H37.45Zm13.5.336h-.012V11H49.114v-.816a1.792,1.792,0,0,1-.738.7,2.266,2.266,0,0,1-1.1.27,2.644,2.644,0,0,1-1.458-.4,2.543,2.543,0,0,1-.942-1.086,3.642,3.642,0,0,1-.324-1.566,3.542,3.542,0,0,1,.336-1.56,2.589,2.589,0,0,1,.966-1.092,2.66,2.66,0,0,1,1.446-.4,2.228,2.228,0,0,1,1.092.264,1.735,1.735,0,0,1,.72.72V2.6H50.95Zm-3.144,4.08a1.254,1.254,0,0,0,1.02-.432,1.648,1.648,0,0,0,.36-1.092,1.63,1.63,0,0,0-.36-1.08,1.254,1.254,0,0,0-1.02-.432,1.283,1.283,0,0,0-1,.42,1.57,1.57,0,0,0-.378,1.092,1.593,1.593,0,0,0,.378,1.1A1.274,1.274,0,0,0,47.806,9.632Zm7.2,1.524a2.644,2.644,0,0,1-1.458-.4,2.543,2.543,0,0,1-.942-1.086,3.642,3.642,0,0,1-.324-1.566,3.542,3.542,0,0,1,.336-1.56,2.589,2.589,0,0,1,.966-1.092,2.66,2.66,0,0,1,1.446-.4,2.228,2.228,0,0,1,1.092.264,1.735,1.735,0,0,1,.72.72V5.216h1.824V11H56.842v-.816a1.792,1.792,0,0,1-.738.7A2.266,2.266,0,0,1,55.006,11.156Zm.528-1.524a1.254,1.254,0,0,0,1.02-.432,1.648,1.648,0,0,0,.36-1.092,1.63,1.63,0,0,0-.36-1.08,1.254,1.254,0,0,0-1.02-.432,1.283,1.283,0,0,0-1,.42,1.57,1.57,0,0,0-.378,1.092,1.593,1.593,0,0,0,.378,1.1A1.274,1.274,0,0,0,55.534,9.632Zm4.9-4.416h1.836V6.428a1.62,1.62,0,0,1,1.6-1.308,2.019,2.019,0,0,1,.48.048v1.7a5.119,5.119,0,0,0-.552-.036,1.4,1.4,0,0,0-1.116.468,2.191,2.191,0,0,0-.408,1.464V11H60.43Zm10.956.336h-.012V11H69.55v-.816a1.792,1.792,0,0,1-.738.7,2.266,2.266,0,0,1-1.1.27,2.644,2.644,0,0,1-1.458-.4,2.543,2.543,0,0,1-.942-1.086,3.642,3.642,0,0,1-.324-1.566,3.542,3.542,0,0,1,.336-1.56,2.589,2.589,0,0,1,.966-1.092,2.66,2.66,0,0,1,1.446-.4,2.228,2.228,0,0,1,1.092.264,1.735,1.735,0,0,1,.72.72V2.6h1.836Zm-3.144,4.08a1.254,1.254,0,0,0,1.02-.432,1.648,1.648,0,0,0,.36-1.092,1.63,1.63,0,0,0-.36-1.08,1.254,1.254,0,0,0-1.02-.432,1.283,1.283,0,0,0-1,.42,1.57,1.57,0,0,0-.378,1.092,1.593,1.593,0,0,0,.378,1.1A1.274,1.274,0,0,0,68.242,9.632ZM3,16.6H6.172a4.425,4.425,0,0,1,2.28.57A3.889,3.889,0,0,1,9.94,18.694a4.568,4.568,0,0,1,0,4.218,3.837,3.837,0,0,1-1.488,1.524A4.462,4.462,0,0,1,6.172,25H3Zm2.988,6.768a2.469,2.469,0,0,0,1.35-.354,2.207,2.207,0,0,0,.834-.942,3.069,3.069,0,0,0,0-2.544,2.207,2.207,0,0,0-.834-.942,2.469,2.469,0,0,0-1.35-.354H4.948v5.136Zm11.5-4.152v5.6a3.116,3.116,0,0,1-.222,1.206,2.425,2.425,0,0,1-.606.882,2.683,2.683,0,0,1-.906.5,3.912,3.912,0,0,1-1.218.168,3.3,3.3,0,0,1-2.136-.6,2.068,2.068,0,0,1-.72-1.524h1.848a.778.778,0,0,0,.264.582,1.157,1.157,0,0,0,.744.2,1.054,1.054,0,0,0,.822-.324,1.405,1.405,0,0,0,.294-.972v-.9a1.621,1.621,0,0,1-.714.714A2.406,2.406,0,0,1,13.816,25a1.955,1.955,0,0,1-1.6-.648,2.712,2.712,0,0,1-.534-1.776v-3.36h1.836V22.3a1.561,1.561,0,0,0,.234.924.9.9,0,0,0,.786.324.967.967,0,0,0,.828-.39,1.774,1.774,0,0,0,.288-1.074V19.216Zm1.752,0h1.836v.84a1.737,1.737,0,0,1,.732-.738,2.375,2.375,0,0,1,1.14-.258q2.112,0,2.112,2.364V25H23.212V22.024a1.931,1.931,0,0,0-.234-1.08.89.89,0,0,0-.786-.336,1.01,1.01,0,0,0-.834.348,1.59,1.59,0,0,0-.282,1.02V25H19.24Zm9.828,5.94a2.644,2.644,0,0,1-1.458-.4,2.543,2.543,0,0,1-.942-1.086,3.642,3.642,0,0,1-.324-1.566,3.542,3.542,0,0,1,.336-1.56,2.589,2.589,0,0,1,.966-1.092,2.66,2.66,0,0,1,1.446-.4,2.228,2.228,0,0,1,1.092.264,1.735,1.735,0,0,1,.72.72v-.828h1.824V25H30.9v-.816a1.792,1.792,0,0,1-.738.7A2.266,2.266,0,0,1,29.068,25.156Zm.528-1.524a1.254,1.254,0,0,0,1.02-.432,1.648,1.648,0,0,0,.36-1.092,1.63,1.63,0,0,0-.36-1.08A1.254,1.254,0,0,0,29.6,20.6a1.283,1.283,0,0,0-1,.42,1.57,1.57,0,0,0-.378,1.092,1.593,1.593,0,0,0,.378,1.1A1.274,1.274,0,0,0,29.6,23.632Zm4.9-4.416h1.836v.84a1.584,1.584,0,0,1,.63-.72,1.884,1.884,0,0,1,1.026-.276A1.761,1.761,0,0,1,39.8,20.128a1.864,1.864,0,0,1,.732-.774,2.133,2.133,0,0,1,1.116-.294q2.052,0,2.052,2.352V25H41.848V21.748a1.4,1.4,0,0,0-.216-.864.772.772,0,0,0-.648-.276.865.865,0,0,0-.72.318,1.809,1.809,0,0,0-.252,1.1V25H38.164V21.736a1.4,1.4,0,0,0-.21-.858.763.763,0,0,0-.642-.27.878.878,0,0,0-.732.318,1.809,1.809,0,0,0-.252,1.1V25H34.492Zm10.9,0h1.836V25H45.388Zm.924-.5a1.107,1.107,0,1,1,.816-.324A1.1,1.1,0,0,1,46.312,18.712Zm5.3,6.468a3.36,3.36,0,0,1-1.638-.384,2.65,2.65,0,0,1-1.08-1.08,3.316,3.316,0,0,1-.378-1.608,3.281,3.281,0,0,1,.378-1.6,2.66,2.66,0,0,1,1.08-1.074,3.36,3.36,0,0,1,1.638-.384,3.265,3.265,0,0,1,2.088.636,2.407,2.407,0,0,1,.912,1.728H52.78A1,1,0,0,0,52.4,20.8a1.3,1.3,0,0,0-.774-.2,1.161,1.161,0,0,0-.936.4,2.021,2.021,0,0,0,0,2.232,1.161,1.161,0,0,0,.936.4,1.359,1.359,0,0,0,.774-.192.941.941,0,0,0,.378-.576h1.836a2.366,2.366,0,0,1-.912,1.7A3.287,3.287,0,0,1,51.616,25.18Zm6.636,0a3.813,3.813,0,0,1-1.446-.252,2.251,2.251,0,0,1-.954-.684,1.56,1.56,0,0,1-.336-.984H57.34a.585.585,0,0,0,.264.492,1.135,1.135,0,0,0,.684.192.772.772,0,0,0,.486-.144.5.5,0,0,0-.234-.888l-1.416-.36a2.041,2.041,0,0,1-1.08-.612,1.562,1.562,0,0,1-.372-1.056,1.59,1.59,0,0,1,.672-1.326,2.905,2.905,0,0,1,1.8-.51,3.243,3.243,0,0,1,1.914.48,1.539,1.539,0,0,1,.666,1.32H58.912a.566.566,0,0,0-.21-.468.908.908,0,0,0-.582-.168.794.794,0,0,0-.48.132.411.411,0,0,0-.18.348q0,.384.492.516l1.368.372a2.206,2.206,0,0,1,1.074.594,1.424,1.424,0,0,1,.39,1.014,1.764,1.764,0,0,1-.678,1.446A2.875,2.875,0,0,1,58.252,25.18Zm9.876,0a3.481,3.481,0,0,1-2.394-.744,2.7,2.7,0,0,1-.834-2.124h1.956a1.362,1.362,0,0,0,.342,1,1.293,1.293,0,0,0,.966.348,1.212,1.212,0,0,0,.846-.288.986.986,0,0,0,.318-.768q0-1.092-1.284-1.092h-.816V20.02h.828q1.152,0,1.152-1a.849.849,0,0,0-.288-.672,1.106,1.106,0,0,0-.756-.252,1.164,1.164,0,0,0-.852.306,1.131,1.131,0,0,0-.312.846H65.08a2.444,2.444,0,0,1,.378-1.362,2.491,2.491,0,0,1,1.086-.906,4.451,4.451,0,0,1,3.21-.048,2.312,2.312,0,0,1,1.032.792,2.021,2.021,0,0,1,.366,1.2,1.756,1.756,0,0,1-.378,1.14,2.106,2.106,0,0,1-1.122.672,2.007,2.007,0,0,1,1.206.66,1.915,1.915,0,0,1,.438,1.284,2.251,2.251,0,0,1-.39,1.3,2.516,2.516,0,0,1-1.11.882A4.164,4.164,0,0,1,68.128,25.18Zm7.86-6.12a3.286,3.286,0,0,1,1.518.48,2.732,2.732,0,0,1,.984,1.074,3.222,3.222,0,0,1,.342,1.494,3.155,3.155,0,0,1-.4,1.578,2.8,2.8,0,0,1-1.122,1.1,3.838,3.838,0,0,1-3.4,0A2.768,2.768,0,0,1,72.8,23.692a3.184,3.184,0,0,1-.39-1.584,3.046,3.046,0,0,1,.612-1.92l2.424-3.348h2.22Zm-.372,4.572a1.266,1.266,0,0,0,1.014-.426,1.625,1.625,0,0,0,.366-1.1,1.6,1.6,0,0,0-.366-1.092,1.427,1.427,0,0,0-2.022,0,1.586,1.586,0,0,0-.372,1.092,1.609,1.609,0,0,0,.372,1.1A1.27,1.27,0,0,0,75.616,23.632Zm7.548,1.548a3.4,3.4,0,0,1-2.2-.666,2.44,2.44,0,0,1-.912-1.806H81.94a.91.91,0,0,0,.384.672,1.409,1.409,0,0,0,.84.24,1.269,1.269,0,0,0,.99-.39,1.72,1.72,0,0,0,.024-2.058,1.132,1.132,0,0,0-.906-.384,1.58,1.58,0,0,0-.816.192,1.256,1.256,0,0,0-.5.612h-1.7V16.84h5.688v1.5H81.988v1.74a1.862,1.862,0,0,1,.75-.486,2.9,2.9,0,0,1,.99-.162,2.762,2.762,0,0,1,1.392.342,2.332,2.332,0,0,1,.924.954,2.982,2.982,0,0,1,.324,1.416,3.126,3.126,0,0,1-.39,1.566,2.74,2.74,0,0,1-1.116,1.08A3.535,3.535,0,0,1,83.164,25.18ZM17,35.94H15.112V34.476H17v-1.9h1.572v1.9h1.884V35.94H18.568v1.884H17ZM25.2,30.6h1.944V39H25.2Zm3.756,2.616H30.8v.84a1.737,1.737,0,0,1,.732-.738,2.375,2.375,0,0,1,1.14-.258q2.112,0,2.112,2.364V39H32.932V36.024a1.931,1.931,0,0,0-.234-1.08.89.89,0,0,0-.786-.336,1.01,1.01,0,0,0-.834.348,1.59,1.59,0,0,0-.282,1.02V39H28.96Zm13.5.336h-.012V39H40.624v-.816a1.792,1.792,0,0,1-.738.7,2.266,2.266,0,0,1-1.1.27,2.644,2.644,0,0,1-1.458-.4,2.543,2.543,0,0,1-.942-1.086,3.642,3.642,0,0,1-.324-1.566,3.542,3.542,0,0,1,.336-1.56,2.589,2.589,0,0,1,.966-1.092,2.66,2.66,0,0,1,1.446-.4,2.228,2.228,0,0,1,1.092.264,1.735,1.735,0,0,1,.72.72V30.6H42.46Zm-3.144,4.08a1.254,1.254,0,0,0,1.02-.432,1.648,1.648,0,0,0,.36-1.092,1.63,1.63,0,0,0-.36-1.08,1.254,1.254,0,0,0-1.02-.432,1.283,1.283,0,0,0-1,.42,1.57,1.57,0,0,0-.378,1.092,1.593,1.593,0,0,0,.378,1.1A1.274,1.274,0,0,0,39.316,37.632Zm6.972,1.524a2.013,2.013,0,0,1-1.584-.618,2.533,2.533,0,0,1-.552-1.746V33.216h1.86v3.168a1.53,1.53,0,0,0,.228.918.853.853,0,0,0,.732.306,1.024,1.024,0,0,0,.84-.336,1.455,1.455,0,0,0,.276-.948V33.216h1.824V39H48.088v-.828a1.8,1.8,0,0,1-.7.726A2.175,2.175,0,0,1,46.288,39.156Zm7.7.024a3.813,3.813,0,0,1-1.446-.252,2.251,2.251,0,0,1-.954-.684,1.56,1.56,0,0,1-.336-.984H53.08a.585.585,0,0,0,.264.492,1.135,1.135,0,0,0,.684.192.772.772,0,0,0,.486-.144.5.5,0,0,0-.234-.888l-1.416-.36a2.041,2.041,0,0,1-1.08-.612,1.562,1.562,0,0,1-.372-1.056,1.59,1.59,0,0,1,.672-1.326,2.905,2.905,0,0,1,1.8-.51,3.243,3.243,0,0,1,1.914.48,1.539,1.539,0,0,1,.666,1.32H54.652a.566.566,0,0,0-.21-.468.908.908,0,0,0-.582-.168.794.794,0,0,0-.48.132.411.411,0,0,0-.18.348q0,.384.492.516l1.368.372a2.206,2.206,0,0,1,1.074.594,1.424,1.424,0,0,1,.39,1.014,1.764,1.764,0,0,1-.678,1.446A2.875,2.875,0,0,1,53.992,39.18Zm6.864-1.608a4.632,4.632,0,0,0,.636-.036V39a6.909,6.909,0,0,1-1.224.1,2.455,2.455,0,0,1-1.464-.42,1.992,1.992,0,0,1-.588-1.7v-2.3H57.3V33.216h.912V31.5h1.836v1.716H61.36v1.452H60.052v1.92a1.111,1.111,0,0,0,.2.786A.828.828,0,0,0,60.856,37.572Zm1.932-4.356h1.836v1.212a1.62,1.62,0,0,1,1.6-1.308,2.019,2.019,0,0,1,.48.048v1.7a5.118,5.118,0,0,0-.552-.036,1.4,1.4,0,0,0-1.116.468,2.192,2.192,0,0,0-.408,1.464V39H62.788Zm10.884,0v5.6a3.116,3.116,0,0,1-.222,1.206,2.425,2.425,0,0,1-.606.882,2.683,2.683,0,0,1-.906.5,3.912,3.912,0,0,1-1.218.168,3.3,3.3,0,0,1-2.136-.6,2.068,2.068,0,0,1-.72-1.524h1.848a.778.778,0,0,0,.264.582,1.157,1.157,0,0,0,.744.2,1.054,1.054,0,0,0,.822-.324,1.405,1.405,0,0,0,.294-.972v-.9a1.621,1.621,0,0,1-.714.714A2.406,2.406,0,0,1,70,39a1.955,1.955,0,0,1-1.6-.648,2.712,2.712,0,0,1-.534-1.776v-3.36H69.7V36.3a1.561,1.561,0,0,0,.234.924.9.9,0,0,0,.786.324.967.967,0,0,0,.828-.39,1.774,1.774,0,0,0,.288-1.074V33.216ZM13.348,44.6h5.136v1.56H15.292v1.908h3.192v1.524H15.292V51.44h3.192V53H13.348Zm8.3,5.484-2.076-2.868h2.2l1,1.68,1.008-1.68h2.2L23.9,50.084,26.008,53h-2.2l-1.044-1.728L21.736,53h-2.2ZM30.2,51.572a4.632,4.632,0,0,0,.636-.036V53a6.909,6.909,0,0,1-1.224.1,2.455,2.455,0,0,1-1.464-.42,1.992,1.992,0,0,1-.588-1.7v-2.3h-.912V47.216h.912V45.5h1.836v1.716H30.7v1.452H29.392v1.92a1.111,1.111,0,0,0,.2.786A.828.828,0,0,0,30.2,51.572Zm7.62-1.764a7.542,7.542,0,0,1-.048.8H33.5a1.167,1.167,0,0,0,.384.876,1.433,1.433,0,0,0,.972.312q.852,0,1.08-.54h1.8a1.88,1.88,0,0,1-.48,1,2.61,2.61,0,0,1-1.02.678,3.815,3.815,0,0,1-1.38.24,3.226,3.226,0,0,1-2.328-.816,2.976,2.976,0,0,1-.852-2.256,3.291,3.291,0,0,1,.384-1.626,2.613,2.613,0,0,1,1.092-1.062A3.786,3.786,0,0,1,36.37,47.4a2.556,2.556,0,0,1,1.068.978A2.733,2.733,0,0,1,37.816,49.808ZM36,49.472a1.24,1.24,0,0,0-.324-.888,1.218,1.218,0,0,0-.9-.312,1.283,1.283,0,0,0-.93.33,1.193,1.193,0,0,0-.354.87Zm3.108-2.256h1.836v.84a1.738,1.738,0,0,1,.732-.738,2.375,2.375,0,0,1,1.14-.258q2.112,0,2.112,2.364V53H43.084V50.024a1.931,1.931,0,0,0-.234-1.08.89.89,0,0,0-.786-.336,1.01,1.01,0,0,0-.834.348,1.59,1.59,0,0,0-.282,1.02V53H39.112Zm9.84,5.964a3.813,3.813,0,0,1-1.446-.252,2.251,2.251,0,0,1-.954-.684,1.56,1.56,0,0,1-.336-.984H48.04a.585.585,0,0,0,.264.492,1.135,1.135,0,0,0,.684.192.772.772,0,0,0,.486-.144.5.5,0,0,0-.234-.888l-1.416-.36a2.041,2.041,0,0,1-1.08-.612,1.562,1.562,0,0,1-.372-1.056,1.59,1.59,0,0,1,.672-1.326,2.905,2.905,0,0,1,1.8-.51,3.243,3.243,0,0,1,1.914.48,1.539,1.539,0,0,1,.666,1.32H49.612a.566.566,0,0,0-.21-.468.908.908,0,0,0-.582-.168.794.794,0,0,0-.48.132.411.411,0,0,0-.18.348q0,.384.492.516l1.368.372a2.206,2.206,0,0,1,1.074.594,1.424,1.424,0,0,1,.39,1.014,1.764,1.764,0,0,1-.678,1.446A2.875,2.875,0,0,1,48.952,53.18Zm3.912-5.964H54.7V53H52.864Zm.924-.5a1.107,1.107,0,1,1,.816-.324A1.1,1.1,0,0,1,53.788,46.712Zm5.424,6.468a3.527,3.527,0,0,1-1.7-.4,2.759,2.759,0,0,1-1.122-1.092A3.184,3.184,0,0,1,56,50.108a3.151,3.151,0,0,1,.39-1.578,2.77,2.77,0,0,1,1.122-1.086,3.851,3.851,0,0,1,3.4,0,2.768,2.768,0,0,1,1.116,1.092,3.387,3.387,0,0,1,0,3.156,2.768,2.768,0,0,1-1.116,1.092A3.492,3.492,0,0,1,59.212,53.18Zm0-1.56a1.278,1.278,0,0,0,1.008-.42,1.789,1.789,0,0,0,0-2.184,1.427,1.427,0,0,0-2.022,0,1.812,1.812,0,0,0,0,2.184A1.274,1.274,0,0,0,59.212,51.62Zm4.5-4.4h1.836v.84a1.737,1.737,0,0,1,.732-.738,2.375,2.375,0,0,1,1.14-.258q2.112,0,2.112,2.364V53H67.684V50.024a1.931,1.931,0,0,0-.234-1.08.89.89,0,0,0-.786-.336,1.01,1.01,0,0,0-.834.348,1.59,1.59,0,0,0-.282,1.02V53H63.712Zm9.84,5.964a3.813,3.813,0,0,1-1.446-.252,2.251,2.251,0,0,1-.954-.684,1.56,1.56,0,0,1-.336-.984H72.64a.585.585,0,0,0,.264.492,1.135,1.135,0,0,0,.684.192.772.772,0,0,0,.486-.144.5.5,0,0,0-.234-.888l-1.416-.36a2.041,2.041,0,0,1-1.08-.612,1.562,1.562,0,0,1-.372-1.056,1.59,1.59,0,0,1,.672-1.326,2.905,2.905,0,0,1,1.8-.51,3.243,3.243,0,0,1,1.914.48,1.539,1.539,0,0,1,.666,1.32H74.212A.566.566,0,0,0,74,48.38a.908.908,0,0,0-.582-.168.794.794,0,0,0-.48.132.411.411,0,0,0-.18.348q0,.384.492.516l1.368.372a2.206,2.206,0,0,1,1.074.594,1.424,1.424,0,0,1,.39,1.014,1.764,1.764,0,0,1-.678,1.446A2.875,2.875,0,0,1,73.552,53.18Z" transform="translate(229 46)" fill="#fff"/>
    <path id="Path_763" data-name="Path 763" d="M18.814,11.24a4.623,4.623,0,0,1-2.388-.6,4.06,4.06,0,0,1-1.56-1.614,4.661,4.661,0,0,1-.54-2.226,4.661,4.661,0,0,1,.54-2.226,4.06,4.06,0,0,1,1.56-1.614,4.623,4.623,0,0,1,2.388-.6,4.623,4.623,0,0,1,2.388.6,4.06,4.06,0,0,1,1.56,1.614A4.661,4.661,0,0,1,23.3,6.8a4.661,4.661,0,0,1-.54,2.226A4.06,4.06,0,0,1,21.2,10.64,4.623,4.623,0,0,1,18.814,11.24Zm0-1.74a2.392,2.392,0,0,0,1.326-.36,2.288,2.288,0,0,0,.846-.978A3.185,3.185,0,0,0,21.274,6.8a3.185,3.185,0,0,0-.288-1.362,2.288,2.288,0,0,0-.846-.978,2.644,2.644,0,0,0-2.664,0,2.288,2.288,0,0,0-.846.978A3.065,3.065,0,0,0,16.354,6.8a3.065,3.065,0,0,0,.276,1.362,2.288,2.288,0,0,0,.846.978A2.415,2.415,0,0,0,18.814,9.5ZM28.33,5.06a2.534,2.534,0,0,1,1.386.384,2.571,2.571,0,0,1,.942,1.074,3.589,3.589,0,0,1,.336,1.59,3.536,3.536,0,0,1-.342,1.59,2.583,2.583,0,0,1-.96,1.074,2.616,2.616,0,0,1-1.41.384,2.241,2.241,0,0,1-1.116-.276,1.779,1.779,0,0,1-.72-.7V13.4H24.61V5.216h1.836v.828a1.728,1.728,0,0,1,.744-.708A2.378,2.378,0,0,1,28.33,5.06Zm-.576,4.572a1.265,1.265,0,0,0,.984-.426,1.577,1.577,0,0,0,.384-1.1,1.555,1.555,0,0,0-.384-1.092,1.274,1.274,0,0,0-.984-.42,1.3,1.3,0,0,0-1.008.42,1.555,1.555,0,0,0-.384,1.092,1.558,1.558,0,0,0,.39,1.1A1.306,1.306,0,0,0,27.754,9.632Zm7.6-.06a4.632,4.632,0,0,0,.636-.036V11a6.909,6.909,0,0,1-1.224.1,2.455,2.455,0,0,1-1.464-.42,1.992,1.992,0,0,1-.588-1.7v-2.3H31.8V5.216h.912V3.5h1.836V5.216h1.308V6.668H34.546v1.92a1.111,1.111,0,0,0,.2.786A.829.829,0,0,0,35.35,9.572Zm1.932-4.356h1.836V11H37.282Zm.924-.5a1.117,1.117,0,0,1-1.14-1.128,1.14,1.14,0,1,1,2.28,0,1.092,1.092,0,0,1-.324.8A1.106,1.106,0,0,1,38.206,4.712Zm2.664.5h1.836v.84a1.584,1.584,0,0,1,.63-.72,1.884,1.884,0,0,1,1.026-.276,1.761,1.761,0,0,1,1.812,1.068,1.864,1.864,0,0,1,.732-.774,2.133,2.133,0,0,1,1.116-.294q2.052,0,2.052,2.352V11H48.226V7.748a1.4,1.4,0,0,0-.216-.864.772.772,0,0,0-.648-.276.865.865,0,0,0-.72.318,1.809,1.809,0,0,0-.252,1.1V11H44.542V7.736a1.4,1.4,0,0,0-.21-.858.763.763,0,0,0-.642-.27.878.878,0,0,0-.732.318,1.809,1.809,0,0,0-.252,1.1V11H40.87Zm10.9,0H53.6V11H51.766Zm.924-.5a1.117,1.117,0,0,1-1.14-1.128,1.14,1.14,0,1,1,2.28,0,1.092,1.092,0,0,1-.324.8A1.106,1.106,0,0,1,52.69,4.712ZM57.5,6.74H54.934V5.216h5.352l-2.8,4.272h2.58V11H54.658Zm9.324,1.068a7.541,7.541,0,0,1-.048.8H62.506a1.167,1.167,0,0,0,.384.876,1.433,1.433,0,0,0,.972.312q.852,0,1.08-.54h1.8a1.88,1.88,0,0,1-.48,1,2.61,2.61,0,0,1-1.02.678,3.815,3.815,0,0,1-1.38.24,3.226,3.226,0,0,1-2.328-.816,2.976,2.976,0,0,1-.852-2.256,3.291,3.291,0,0,1,.384-1.626A2.613,2.613,0,0,1,62.158,5.42,3.786,3.786,0,0,1,65.38,5.4a2.556,2.556,0,0,1,1.068.978A2.733,2.733,0,0,1,66.826,7.808Zm-1.812-.336a1.24,1.24,0,0,0-.324-.888,1.218,1.218,0,0,0-.9-.312,1.283,1.283,0,0,0-.93.33,1.193,1.193,0,0,0-.354.87Zm9.228-1.92H74.23V11H72.406v-.816a1.792,1.792,0,0,1-.738.7,2.266,2.266,0,0,1-1.1.27,2.644,2.644,0,0,1-1.458-.4,2.543,2.543,0,0,1-.942-1.086,3.642,3.642,0,0,1-.324-1.566,3.542,3.542,0,0,1,.336-1.56,2.589,2.589,0,0,1,.966-1.092,2.66,2.66,0,0,1,1.446-.4,2.228,2.228,0,0,1,1.092.264,1.735,1.735,0,0,1,.72.72V2.6h1.836ZM71.1,9.632a1.254,1.254,0,0,0,1.02-.432,1.648,1.648,0,0,0,.36-1.092,1.63,1.63,0,0,0-.36-1.08A1.254,1.254,0,0,0,71.1,6.6a1.283,1.283,0,0,0-1,.42,1.57,1.57,0,0,0-.378,1.092,1.593,1.593,0,0,0,.378,1.1A1.274,1.274,0,0,0,71.1,9.632ZM10.45,20.7a1.879,1.879,0,0,1,1.242.594,1.936,1.936,0,0,1,.486,1.374,2.138,2.138,0,0,1-.72,1.7A2.9,2.9,0,0,1,9.49,25H5.9V16.6H9.358a3.07,3.07,0,0,1,1.974.582,1.941,1.941,0,0,1,.726,1.6,1.87,1.87,0,0,1-.432,1.29A2.036,2.036,0,0,1,10.45,20.7ZM7.846,18v2.04h1.08a1.3,1.3,0,0,0,.87-.27,1.05,1.05,0,0,0,.006-1.5A1.3,1.3,0,0,0,8.926,18Zm1.212,5.52a1.192,1.192,0,0,0,.852-.294,1.059,1.059,0,0,0,.312-.81.953.953,0,0,0-.318-.75,1.228,1.228,0,0,0-.846-.282H7.846v2.136Zm10.224-1.716a7.543,7.543,0,0,1-.048.8H14.962a1.167,1.167,0,0,0,.384.876,1.433,1.433,0,0,0,.972.312q.852,0,1.08-.54h1.8a1.88,1.88,0,0,1-.48,1,2.61,2.61,0,0,1-1.02.678,3.815,3.815,0,0,1-1.38.24,3.226,3.226,0,0,1-2.328-.816,2.976,2.976,0,0,1-.852-2.256,3.291,3.291,0,0,1,.384-1.626,2.613,2.613,0,0,1,1.092-1.062,3.786,3.786,0,0,1,3.222-.024,2.556,2.556,0,0,1,1.068.978A2.733,2.733,0,0,1,19.282,21.808Zm-1.812-.336a1.24,1.24,0,0,0-.324-.888,1.218,1.218,0,0,0-.9-.312,1.283,1.283,0,0,0-.93.33,1.193,1.193,0,0,0-.354.87Zm5.448,3.708a3.813,3.813,0,0,1-1.446-.252,2.251,2.251,0,0,1-.954-.684,1.56,1.56,0,0,1-.336-.984h1.824a.585.585,0,0,0,.264.492,1.135,1.135,0,0,0,.684.192.772.772,0,0,0,.486-.144.5.5,0,0,0-.234-.888l-1.416-.36a2.041,2.041,0,0,1-1.08-.612,1.562,1.562,0,0,1-.372-1.056,1.59,1.59,0,0,1,.672-1.326,2.905,2.905,0,0,1,1.8-.51,3.243,3.243,0,0,1,1.914.48,1.539,1.539,0,0,1,.666,1.32H23.578a.566.566,0,0,0-.21-.468.908.908,0,0,0-.582-.168.794.794,0,0,0-.48.132.411.411,0,0,0-.18.348q0,.384.492.516l1.368.372a2.206,2.206,0,0,1,1.074.594,1.424,1.424,0,0,1,.39,1.014,1.764,1.764,0,0,1-.678,1.446A2.875,2.875,0,0,1,22.918,25.18Zm6.864-1.608a4.632,4.632,0,0,0,.636-.036V25a6.909,6.909,0,0,1-1.224.1,2.455,2.455,0,0,1-1.464-.42,1.992,1.992,0,0,1-.588-1.7v-2.3H26.23V19.216h.912V17.5h1.836v1.716h1.308v1.452H28.978v1.92a1.111,1.111,0,0,0,.2.786A.828.828,0,0,0,29.782,23.572ZM38.506,16.6a3.069,3.069,0,0,1,1.548.39,2.814,2.814,0,0,1,1.074,1.08,3.327,3.327,0,0,1,0,3.126,2.8,2.8,0,0,1-1.074,1.086,3.069,3.069,0,0,1-1.548.39H36.874V25H34.93V16.6Zm-.3,4.488a1.259,1.259,0,0,0,.966-.408,1.631,1.631,0,0,0,0-2.088,1.259,1.259,0,0,0-.966-.408H36.874v2.9Zm4.4-1.872h1.836v1.212a1.62,1.62,0,0,1,1.6-1.308,2.019,2.019,0,0,1,.48.048v1.7a5.119,5.119,0,0,0-.552-.036,1.4,1.4,0,0,0-1.116.468,2.191,2.191,0,0,0-.408,1.464V25H42.61Zm7.284,5.94a2.644,2.644,0,0,1-1.458-.4,2.543,2.543,0,0,1-.942-1.086,3.642,3.642,0,0,1-.324-1.566,3.542,3.542,0,0,1,.336-1.56,2.589,2.589,0,0,1,.966-1.092,2.66,2.66,0,0,1,1.446-.4,2.228,2.228,0,0,1,1.092.264,1.735,1.735,0,0,1,.72.72v-.828h1.824V25H51.73v-.816a1.792,1.792,0,0,1-.738.7A2.266,2.266,0,0,1,49.894,25.156Zm.528-1.524a1.254,1.254,0,0,0,1.02-.432,1.648,1.648,0,0,0,.36-1.092,1.63,1.63,0,0,0-.36-1.08,1.254,1.254,0,0,0-1.02-.432,1.283,1.283,0,0,0-1,.42,1.57,1.57,0,0,0-.378,1.092,1.593,1.593,0,0,0,.378,1.1A1.274,1.274,0,0,0,50.422,23.632Zm7.536,1.548A3.36,3.36,0,0,1,56.32,24.8a2.65,2.65,0,0,1-1.08-1.08,3.316,3.316,0,0,1-.378-1.608,3.281,3.281,0,0,1,.378-1.6,2.66,2.66,0,0,1,1.08-1.074,3.36,3.36,0,0,1,1.638-.384,3.265,3.265,0,0,1,2.088.636,2.407,2.407,0,0,1,.912,1.728H59.122a1,1,0,0,0-.378-.612,1.3,1.3,0,0,0-.774-.2,1.161,1.161,0,0,0-.936.4,2.021,2.021,0,0,0,0,2.232,1.161,1.161,0,0,0,.936.4,1.359,1.359,0,0,0,.774-.192.941.941,0,0,0,.378-.576h1.836a2.366,2.366,0,0,1-.912,1.7A3.287,3.287,0,0,1,57.958,25.18Zm7.308-1.608a4.632,4.632,0,0,0,.636-.036V25a6.909,6.909,0,0,1-1.224.1,2.455,2.455,0,0,1-1.464-.42,1.992,1.992,0,0,1-.588-1.7v-2.3h-.912V19.216h.912V17.5h1.836v1.716H65.77v1.452H64.462v1.92a1.111,1.111,0,0,0,.2.786A.828.828,0,0,0,65.266,23.572ZM67.2,19.216h1.836V25H67.2Zm.924-.5a1.107,1.107,0,1,1,.816-.324A1.1,1.1,0,0,1,68.122,18.712Zm5.3,6.468a3.36,3.36,0,0,1-1.638-.384,2.65,2.65,0,0,1-1.08-1.08,3.316,3.316,0,0,1-.378-1.608,3.282,3.282,0,0,1,.378-1.6,2.66,2.66,0,0,1,1.08-1.074,3.36,3.36,0,0,1,1.638-.384,3.265,3.265,0,0,1,2.088.636,2.407,2.407,0,0,1,.912,1.728H74.59a1,1,0,0,0-.378-.612,1.3,1.3,0,0,0-.774-.2,1.161,1.161,0,0,0-.936.4,2.021,2.021,0,0,0,0,2.232,1.161,1.161,0,0,0,.936.4,1.359,1.359,0,0,0,.774-.192.941.941,0,0,0,.378-.576h1.836a2.366,2.366,0,0,1-.912,1.7A3.287,3.287,0,0,1,73.426,25.18Zm10.188-3.372a7.541,7.541,0,0,1-.048.8H79.294a1.167,1.167,0,0,0,.384.876,1.433,1.433,0,0,0,.972.312q.852,0,1.08-.54h1.8a1.88,1.88,0,0,1-.48,1,2.61,2.61,0,0,1-1.02.678,3.815,3.815,0,0,1-1.38.24,3.226,3.226,0,0,1-2.328-.816,2.976,2.976,0,0,1-.852-2.256,3.291,3.291,0,0,1,.384-1.626,2.613,2.613,0,0,1,1.092-1.062,3.786,3.786,0,0,1,3.222-.024,2.556,2.556,0,0,1,1.068.978A2.733,2.733,0,0,1,83.614,21.808ZM81.8,21.472a1.24,1.24,0,0,0-.324-.888,1.218,1.218,0,0,0-.9-.312,1.283,1.283,0,0,0-.93.33,1.193,1.193,0,0,0-.354.87ZM6.052,39.156a2.644,2.644,0,0,1-1.458-.4,2.543,2.543,0,0,1-.942-1.086,3.642,3.642,0,0,1-.324-1.566,3.542,3.542,0,0,1,.336-1.56,2.589,2.589,0,0,1,.966-1.092,2.66,2.66,0,0,1,1.446-.4,2.228,2.228,0,0,1,1.092.264,1.735,1.735,0,0,1,.72.72v-.828H9.712V39H7.888v-.816a1.792,1.792,0,0,1-.738.7A2.266,2.266,0,0,1,6.052,39.156Zm.528-1.524A1.254,1.254,0,0,0,7.6,37.2a1.648,1.648,0,0,0,.36-1.092,1.63,1.63,0,0,0-.36-1.08A1.254,1.254,0,0,0,6.58,34.6a1.283,1.283,0,0,0-1,.42A1.57,1.57,0,0,0,5.2,36.108a1.593,1.593,0,0,0,.378,1.1A1.274,1.274,0,0,0,6.58,37.632Zm4.9-4.416h1.836v.84a1.737,1.737,0,0,1,.732-.738,2.375,2.375,0,0,1,1.14-.258q2.112,0,2.112,2.364V39H15.448V36.024a1.931,1.931,0,0,0-.234-1.08.89.89,0,0,0-.786-.336,1.01,1.01,0,0,0-.834.348,1.59,1.59,0,0,0-.282,1.02V39H11.476Zm13.5.336h-.012V39H23.14v-.816a1.792,1.792,0,0,1-.738.7,2.266,2.266,0,0,1-1.1.27,2.644,2.644,0,0,1-1.458-.4,2.543,2.543,0,0,1-.942-1.086,3.642,3.642,0,0,1-.324-1.566,3.542,3.542,0,0,1,.336-1.56,2.589,2.589,0,0,1,.966-1.092,2.66,2.66,0,0,1,1.446-.4,2.228,2.228,0,0,1,1.092.264,1.735,1.735,0,0,1,.72.72V30.6h1.836Zm-3.144,4.08a1.254,1.254,0,0,0,1.02-.432,1.648,1.648,0,0,0,.36-1.092,1.63,1.63,0,0,0-.36-1.08,1.254,1.254,0,0,0-1.02-.432,1.283,1.283,0,0,0-1,.42,1.57,1.57,0,0,0-.378,1.092,1.593,1.593,0,0,0,.378,1.1A1.274,1.274,0,0,0,21.832,37.632ZM33.6,33.06a2.534,2.534,0,0,1,1.386.384,2.571,2.571,0,0,1,.942,1.074,3.589,3.589,0,0,1,.336,1.59,3.536,3.536,0,0,1-.342,1.59,2.583,2.583,0,0,1-.96,1.074,2.616,2.616,0,0,1-1.41.384,2.241,2.241,0,0,1-1.116-.276,1.779,1.779,0,0,1-.72-.7V39H29.884V30.588H31.72v3.456a1.728,1.728,0,0,1,.744-.708A2.378,2.378,0,0,1,33.6,33.06Zm-.576,4.572a1.265,1.265,0,0,0,.984-.426,1.577,1.577,0,0,0,.384-1.1,1.555,1.555,0,0,0-.384-1.092,1.274,1.274,0,0,0-.984-.42,1.3,1.3,0,0,0-1.008.42,1.751,1.751,0,0,0,.006,2.2A1.306,1.306,0,0,0,33.028,37.632Zm6.66,1.524a2.013,2.013,0,0,1-1.584-.618,2.533,2.533,0,0,1-.552-1.746V33.216h1.86v3.168a1.53,1.53,0,0,0,.228.918.853.853,0,0,0,.732.306,1.024,1.024,0,0,0,.84-.336,1.455,1.455,0,0,0,.276-.948V33.216h1.824V39H41.488v-.828a1.8,1.8,0,0,1-.7.726A2.175,2.175,0,0,1,39.688,39.156Zm7.7.024a3.813,3.813,0,0,1-1.446-.252,2.251,2.251,0,0,1-.954-.684,1.56,1.56,0,0,1-.336-.984H46.48a.585.585,0,0,0,.264.492,1.135,1.135,0,0,0,.684.192.772.772,0,0,0,.486-.144.5.5,0,0,0-.234-.888l-1.416-.36a2.041,2.041,0,0,1-1.08-.612,1.562,1.562,0,0,1-.372-1.056,1.59,1.59,0,0,1,.672-1.326,2.905,2.905,0,0,1,1.8-.51,3.243,3.243,0,0,1,1.914.48,1.539,1.539,0,0,1,.666,1.32H48.052a.566.566,0,0,0-.21-.468.908.908,0,0,0-.582-.168.794.794,0,0,0-.48.132.411.411,0,0,0-.18.348q0,.384.492.516l1.368.372a2.206,2.206,0,0,1,1.074.594,1.424,1.424,0,0,1,.39,1.014,1.764,1.764,0,0,1-.678,1.446A2.875,2.875,0,0,1,47.392,39.18ZM51.3,33.216H53.14V39H51.3Zm.924-.5a1.107,1.107,0,1,1,.816-.324A1.1,1.1,0,0,1,52.228,32.712Zm2.664.5h1.836v.84a1.738,1.738,0,0,1,.732-.738,2.375,2.375,0,0,1,1.14-.258q2.112,0,2.112,2.364V39H58.864V36.024a1.931,1.931,0,0,0-.234-1.08.89.89,0,0,0-.786-.336,1.01,1.01,0,0,0-.834.348,1.59,1.59,0,0,0-.282,1.02V39H54.892ZM68.1,35.808a7.542,7.542,0,0,1-.048.8H63.784a1.167,1.167,0,0,0,.384.876,1.433,1.433,0,0,0,.972.312q.852,0,1.08-.54h1.8a1.88,1.88,0,0,1-.48,1,2.61,2.61,0,0,1-1.02.678,3.815,3.815,0,0,1-1.38.24,3.226,3.226,0,0,1-2.328-.816,2.976,2.976,0,0,1-.852-2.256,3.291,3.291,0,0,1,.384-1.626,2.613,2.613,0,0,1,1.092-1.062,3.786,3.786,0,0,1,3.222-.024,2.556,2.556,0,0,1,1.068.978A2.733,2.733,0,0,1,68.1,35.808Zm-1.812-.336a1.24,1.24,0,0,0-.324-.888,1.218,1.218,0,0,0-.9-.312,1.283,1.283,0,0,0-.93.33,1.193,1.193,0,0,0-.354.87ZM71.74,39.18a3.813,3.813,0,0,1-1.446-.252,2.251,2.251,0,0,1-.954-.684A1.56,1.56,0,0,1,69,37.26h1.824a.585.585,0,0,0,.264.492,1.135,1.135,0,0,0,.684.192.772.772,0,0,0,.486-.144.5.5,0,0,0-.234-.888l-1.416-.36a2.041,2.041,0,0,1-1.08-.612,1.562,1.562,0,0,1-.372-1.056,1.59,1.59,0,0,1,.672-1.326,2.905,2.905,0,0,1,1.8-.51,3.243,3.243,0,0,1,1.914.48,1.539,1.539,0,0,1,.666,1.32H72.4a.566.566,0,0,0-.21-.468.908.908,0,0,0-.582-.168.794.794,0,0,0-.48.132.411.411,0,0,0-.18.348q0,.384.492.516l1.368.372a2.206,2.206,0,0,1,1.074.594,1.424,1.424,0,0,1,.39,1.014,1.764,1.764,0,0,1-.678,1.446A2.875,2.875,0,0,1,71.74,39.18Zm6.228,0a3.813,3.813,0,0,1-1.446-.252,2.251,2.251,0,0,1-.954-.684,1.56,1.56,0,0,1-.336-.984h1.824a.585.585,0,0,0,.264.492,1.135,1.135,0,0,0,.684.192.772.772,0,0,0,.486-.144.5.5,0,0,0-.234-.888l-1.416-.36a2.041,2.041,0,0,1-1.08-.612,1.562,1.562,0,0,1-.372-1.056,1.59,1.59,0,0,1,.672-1.326,2.905,2.905,0,0,1,1.8-.51,3.243,3.243,0,0,1,1.914.48,1.539,1.539,0,0,1,.666,1.32H78.628a.566.566,0,0,0-.21-.468.908.908,0,0,0-.582-.168.794.794,0,0,0-.48.132.411.411,0,0,0-.18.348q0,.384.492.516l1.368.372a2.206,2.206,0,0,1,1.074.594,1.424,1.424,0,0,1,.39,1.014,1.764,1.764,0,0,1-.678,1.446A2.875,2.875,0,0,1,77.968,39.18Zm3.7-4.236h3.8v1.464h-3.8ZM32.59,47.552h-.012V53H30.754v-.816a1.792,1.792,0,0,1-.738.7,2.266,2.266,0,0,1-1.1.27,2.644,2.644,0,0,1-1.458-.4,2.543,2.543,0,0,1-.942-1.086,3.642,3.642,0,0,1-.324-1.566,3.542,3.542,0,0,1,.336-1.56,2.589,2.589,0,0,1,.966-1.092,2.66,2.66,0,0,1,1.446-.4,2.228,2.228,0,0,1,1.092.264,1.735,1.735,0,0,1,.72.72V44.6H32.59Zm-3.144,4.08a1.254,1.254,0,0,0,1.02-.432,1.648,1.648,0,0,0,.36-1.092,1.63,1.63,0,0,0-.36-1.08,1.254,1.254,0,0,0-1.02-.432,1.283,1.283,0,0,0-1,.42,1.57,1.57,0,0,0-.378,1.092,1.593,1.593,0,0,0,.378,1.1A1.274,1.274,0,0,0,29.446,51.632Zm4.9-4.416h1.836v1.212a1.62,1.62,0,0,1,1.6-1.308,2.019,2.019,0,0,1,.48.048v1.7a5.118,5.118,0,0,0-.552-.036,1.4,1.4,0,0,0-1.116.468,2.191,2.191,0,0,0-.408,1.464V53H34.342Zm5.136,0h1.836V53H39.478Zm.924-.5a1.107,1.107,0,1,1,.816-.324A1.1,1.1,0,0,1,40.4,46.712Zm1.872.5H44.3l1.3,3.636,1.3-3.636h2.04L46.426,53H44.77Zm13.044,2.592a7.542,7.542,0,0,1-.048.8H51a1.167,1.167,0,0,0,.384.876,1.433,1.433,0,0,0,.972.312q.852,0,1.08-.54h1.8a1.88,1.88,0,0,1-.48,1,2.61,2.61,0,0,1-1.02.678,3.815,3.815,0,0,1-1.38.24,3.226,3.226,0,0,1-2.328-.816,2.976,2.976,0,0,1-.852-2.256,3.291,3.291,0,0,1,.384-1.626A2.613,2.613,0,0,1,50.65,47.42a3.786,3.786,0,0,1,3.222-.024,2.556,2.556,0,0,1,1.068.978A2.733,2.733,0,0,1,55.318,49.808Zm-1.812-.336a1.24,1.24,0,0,0-.324-.888,1.218,1.218,0,0,0-.9-.312,1.283,1.283,0,0,0-.93.33,1.193,1.193,0,0,0-.354.87Zm3.108-2.256H58.45v.84a1.738,1.738,0,0,1,.732-.738,2.375,2.375,0,0,1,1.14-.258q2.112,0,2.112,2.364V53H60.586V50.024a1.931,1.931,0,0,0-.234-1.08.89.89,0,0,0-.786-.336,1.01,1.01,0,0,0-.834.348,1.59,1.59,0,0,0-.282,1.02V53H56.614ZM14.6,65.572a4.633,4.633,0,0,0,.636-.036V67a6.909,6.909,0,0,1-1.224.1,2.455,2.455,0,0,1-1.464-.42,1.992,1.992,0,0,1-.588-1.7v-2.3H11.05V61.216h.912V59.5H13.8v1.716h1.308v1.452H13.8v1.92a1.111,1.111,0,0,0,.2.786A.829.829,0,0,0,14.6,65.572Zm7.62-1.764a7.543,7.543,0,0,1-.048.8H17.9a1.167,1.167,0,0,0,.384.876,1.433,1.433,0,0,0,.972.312q.852,0,1.08-.54h1.8a1.88,1.88,0,0,1-.48,1,2.61,2.61,0,0,1-1.02.678,3.815,3.815,0,0,1-1.38.24,3.226,3.226,0,0,1-2.328-.816,2.976,2.976,0,0,1-.852-2.256,3.291,3.291,0,0,1,.384-1.626,2.613,2.613,0,0,1,1.092-1.062,3.786,3.786,0,0,1,3.222-.024,2.556,2.556,0,0,1,1.068.978A2.733,2.733,0,0,1,22.222,63.808Zm-1.812-.336a1.24,1.24,0,0,0-.324-.888,1.218,1.218,0,0,0-.9-.312,1.283,1.283,0,0,0-.93.33,1.193,1.193,0,0,0-.354.87Zm5.952,3.708a3.36,3.36,0,0,1-1.638-.384,2.65,2.65,0,0,1-1.08-1.08,3.316,3.316,0,0,1-.378-1.608,3.281,3.281,0,0,1,.378-1.6,2.66,2.66,0,0,1,1.08-1.074,3.36,3.36,0,0,1,1.638-.384,3.265,3.265,0,0,1,2.088.636,2.407,2.407,0,0,1,.912,1.728H27.526a1,1,0,0,0-.378-.612,1.3,1.3,0,0,0-.774-.2,1.161,1.161,0,0,0-.936.4,2.021,2.021,0,0,0,0,2.232,1.161,1.161,0,0,0,.936.4,1.359,1.359,0,0,0,.774-.192.941.941,0,0,0,.378-.576h1.836a2.366,2.366,0,0,1-.912,1.7A3.287,3.287,0,0,1,26.362,67.18Zm8-6.12q2.112,0,2.112,2.364V67H34.63V64.024a1.931,1.931,0,0,0-.234-1.08.89.89,0,0,0-.786-.336,1.01,1.01,0,0,0-.834.348,1.59,1.59,0,0,0-.282,1.02V67H30.658V58.6h1.836v3.456a1.738,1.738,0,0,1,.732-.738A2.375,2.375,0,0,1,34.366,61.06Zm3.816.156h1.836v.84a1.738,1.738,0,0,1,.732-.738,2.375,2.375,0,0,1,1.14-.258Q44,61.06,44,63.424V67H42.154V64.024a1.931,1.931,0,0,0-.234-1.08.89.89,0,0,0-.786-.336,1.01,1.01,0,0,0-.834.348,1.59,1.59,0,0,0-.282,1.02V67H38.182ZM48.466,67.18a3.527,3.527,0,0,1-1.7-.4,2.759,2.759,0,0,1-1.122-1.092,3.184,3.184,0,0,1-.39-1.584,3.151,3.151,0,0,1,.39-1.578,2.77,2.77,0,0,1,1.122-1.086,3.851,3.851,0,0,1,3.4,0,2.768,2.768,0,0,1,1.116,1.092,3.387,3.387,0,0,1,0,3.156,2.768,2.768,0,0,1-1.116,1.092A3.492,3.492,0,0,1,48.466,67.18Zm0-1.56a1.278,1.278,0,0,0,1.008-.42,1.789,1.789,0,0,0,0-2.184,1.427,1.427,0,0,0-2.022,0,1.812,1.812,0,0,0,0,2.184A1.274,1.274,0,0,0,48.466,65.62Zm4.5-7.02H54.8V67H52.966Zm6.348,8.58a3.527,3.527,0,0,1-1.7-.4,2.759,2.759,0,0,1-1.122-1.092,3.184,3.184,0,0,1-.39-1.584,3.151,3.151,0,0,1,.39-1.578,2.77,2.77,0,0,1,1.122-1.086,3.851,3.851,0,0,1,3.4,0,2.768,2.768,0,0,1,1.116,1.092,3.387,3.387,0,0,1,0,3.156,2.768,2.768,0,0,1-1.116,1.092A3.492,3.492,0,0,1,59.314,67.18Zm0-1.56a1.278,1.278,0,0,0,1.008-.42,1.789,1.789,0,0,0,0-2.184,1.427,1.427,0,0,0-2.022,0,1.812,1.812,0,0,0,0,2.184A1.274,1.274,0,0,0,59.314,65.62Zm10.62-4.4V66.6a3.464,3.464,0,0,1-.288,1.464,2.408,2.408,0,0,1-.828,1,3.545,3.545,0,0,1-2.064.516,4.037,4.037,0,0,1-2.088-.468,2.378,2.378,0,0,1-.732-.708,1.68,1.68,0,0,1-.3-.9h1.872a.767.767,0,0,0,.366.54,1.614,1.614,0,0,0,.858.192,1.21,1.21,0,0,0,1.368-1.4v-.768a1.582,1.582,0,0,1-.726.678A2.373,2.373,0,0,1,66.286,67a2.77,2.77,0,0,1-1.464-.378,2.475,2.475,0,0,1-.954-1.05,3.413,3.413,0,0,1-.33-1.524,3.3,3.3,0,0,1,.348-1.53,2.655,2.655,0,0,1,.978-1.068,2.69,2.69,0,0,1,1.446-.39,2.2,2.2,0,0,1,1.086.27,1.632,1.632,0,0,1,.7.714v-.828ZM66.79,65.584a1.28,1.28,0,0,0,1.014-.432,1.732,1.732,0,0,0,0-2.16,1.28,1.28,0,0,0-1.014-.432,1.26,1.26,0,0,0-.99.426,1.749,1.749,0,0,0,0,2.172A1.26,1.26,0,0,0,66.79,65.584Zm10.644-4.368v5.6a3.116,3.116,0,0,1-.222,1.206,2.425,2.425,0,0,1-.606.882,2.682,2.682,0,0,1-.906.5,3.912,3.912,0,0,1-1.218.168,3.3,3.3,0,0,1-2.136-.6,2.068,2.068,0,0,1-.72-1.524h1.848a.778.778,0,0,0,.264.582,1.157,1.157,0,0,0,.744.2,1.054,1.054,0,0,0,.822-.324,1.405,1.405,0,0,0,.294-.972v-.9a1.621,1.621,0,0,1-.714.714A2.4,2.4,0,0,1,73.762,67a1.955,1.955,0,0,1-1.6-.648,2.712,2.712,0,0,1-.534-1.776v-3.36h1.836V64.3a1.561,1.561,0,0,0,.234.924.9.9,0,0,0,.786.324.967.967,0,0,0,.828-.39,1.774,1.774,0,0,0,.288-1.074V61.216ZM23.722,81.24a3.5,3.5,0,0,1-2.424-.786,2.806,2.806,0,0,1-.876-2.2h1.944a1.485,1.485,0,0,0,.366,1.068,1.318,1.318,0,0,0,1,.384,1.287,1.287,0,0,0,.834-.24.833.833,0,0,0,.294-.684.861.861,0,0,0-.222-.618,2.29,2.29,0,0,0-.8-.462l-1.512-.588a2.7,2.7,0,0,1-1.272-.894,2.468,2.468,0,0,1-.066-2.688,2.383,2.383,0,0,1,1.044-.864,3.8,3.8,0,0,1,1.578-.306,3.713,3.713,0,0,1,1.608.33,2.465,2.465,0,0,1,1.464,2.334H24.742a1.248,1.248,0,0,0-.3-.9,1.143,1.143,0,0,0-.864-.312,1.128,1.128,0,0,0-.738.222.743.743,0,0,0-.27.606.783.783,0,0,0,.264.594,2.982,2.982,0,0,0,.888.5l1.392.552a2.7,2.7,0,0,1,1.278.924,2.671,2.671,0,0,1,.03,2.808,2.489,2.489,0,0,1-1.08.906A3.864,3.864,0,0,1,23.722,81.24Zm7.236-.06a3.527,3.527,0,0,1-1.7-.4,2.759,2.759,0,0,1-1.122-1.092,3.184,3.184,0,0,1-.39-1.584,3.151,3.151,0,0,1,.39-1.578,2.77,2.77,0,0,1,1.122-1.086,3.851,3.851,0,0,1,3.4,0,2.768,2.768,0,0,1,1.116,1.092,3.387,3.387,0,0,1,0,3.156,2.768,2.768,0,0,1-1.116,1.092A3.492,3.492,0,0,1,30.958,81.18Zm0-1.56a1.278,1.278,0,0,0,1.008-.42,1.789,1.789,0,0,0,0-2.184,1.427,1.427,0,0,0-2.022,0,1.812,1.812,0,0,0,0,2.184A1.274,1.274,0,0,0,30.958,79.62Zm4.5-7.02h1.836V81H35.458Zm5.664,8.556a2.013,2.013,0,0,1-1.584-.618,2.533,2.533,0,0,1-.552-1.746V75.216h1.86v3.168a1.53,1.53,0,0,0,.228.918.853.853,0,0,0,.732.306,1.024,1.024,0,0,0,.84-.336,1.455,1.455,0,0,0,.276-.948V75.216h1.824V81H42.922v-.828a1.8,1.8,0,0,1-.7.726A2.175,2.175,0,0,1,41.122,81.156Zm8.424-1.584a4.633,4.633,0,0,0,.636-.036V81a6.909,6.909,0,0,1-1.224.1,2.455,2.455,0,0,1-1.464-.42,1.992,1.992,0,0,1-.588-1.7v-2.3h-.912V75.216h.912V73.5h1.836v1.716H50.05v1.452H48.742v1.92a1.111,1.111,0,0,0,.2.786A.829.829,0,0,0,49.546,79.572Zm1.932-4.356h1.836V81H51.478Zm.924-.5a1.107,1.107,0,1,1,.816-.324A1.1,1.1,0,0,1,52.4,74.712Zm5.424,6.468a3.527,3.527,0,0,1-1.7-.4A2.759,2.759,0,0,1,55,79.692a3.184,3.184,0,0,1-.39-1.584A3.151,3.151,0,0,1,55,76.53a2.77,2.77,0,0,1,1.122-1.086,3.851,3.851,0,0,1,3.4,0,2.768,2.768,0,0,1,1.116,1.092,3.387,3.387,0,0,1,0,3.156,2.768,2.768,0,0,1-1.116,1.092A3.492,3.492,0,0,1,57.826,81.18Zm0-1.56a1.278,1.278,0,0,0,1.008-.42,1.789,1.789,0,0,0,0-2.184,1.427,1.427,0,0,0-2.022,0,1.812,1.812,0,0,0,0,2.184A1.274,1.274,0,0,0,57.826,79.62Zm4.5-4.4h1.836v.84a1.737,1.737,0,0,1,.732-.738,2.375,2.375,0,0,1,1.14-.258q2.112,0,2.112,2.364V81H66.3V78.024a1.931,1.931,0,0,0-.234-1.08.89.89,0,0,0-.786-.336,1.01,1.01,0,0,0-.834.348,1.59,1.59,0,0,0-.282,1.02V81H62.326Z" transform="translate(834 32)" fill="#fff"/>
    <path id="Path_765" data-name="Path 765" d="M19.642,9.98H16.666L16.378,11H14.326L17.17,2.6h1.956L21.982,11H19.93ZM19.21,8.456,18.154,4.724,17.1,8.456ZM23.1,2.6h1.836V11H23.1Zm3.588,2.616h1.836V11H26.686Zm.924-.5a1.117,1.117,0,0,1-1.14-1.128,1.14,1.14,0,1,1,2.28,0,1.092,1.092,0,0,1-.324.8A1.106,1.106,0,0,1,27.61,4.712Zm8.64.5V10.6a3.464,3.464,0,0,1-.288,1.464,2.408,2.408,0,0,1-.828,1,3.545,3.545,0,0,1-2.064.516,4.037,4.037,0,0,1-2.088-.468,2.378,2.378,0,0,1-.732-.708,1.68,1.68,0,0,1-.3-.9h1.872a.767.767,0,0,0,.366.54,1.614,1.614,0,0,0,.858.192,1.429,1.429,0,0,0,1.02-.33,1.426,1.426,0,0,0,.348-1.074v-.768a1.582,1.582,0,0,1-.726.678A2.373,2.373,0,0,1,32.6,11a2.77,2.77,0,0,1-1.464-.378,2.475,2.475,0,0,1-.954-1.05,3.413,3.413,0,0,1-.33-1.524,3.3,3.3,0,0,1,.348-1.53A2.655,2.655,0,0,1,31.18,5.45a2.69,2.69,0,0,1,1.446-.39,2.2,2.2,0,0,1,1.086.27,1.632,1.632,0,0,1,.7.714V5.216ZM33.106,9.584a1.28,1.28,0,0,0,1.014-.432,1.581,1.581,0,0,0,.378-1.08,1.581,1.581,0,0,0-.378-1.08,1.28,1.28,0,0,0-1.014-.432,1.26,1.26,0,0,0-.99.426,1.575,1.575,0,0,0-.378,1.086,1.575,1.575,0,0,0,.378,1.086A1.26,1.26,0,0,0,33.106,9.584ZM38,5.216h1.836v.84a1.738,1.738,0,0,1,.732-.738,2.375,2.375,0,0,1,1.14-.258q2.112,0,2.112,2.364V11H41.974V8.024a1.931,1.931,0,0,0-.234-1.08.89.89,0,0,0-.786-.336,1.01,1.01,0,0,0-.834.348,1.59,1.59,0,0,0-.282,1.02V11H38Zm7.524,0h1.836v.84a1.584,1.584,0,0,1,.63-.72,1.884,1.884,0,0,1,1.026-.276A1.761,1.761,0,0,1,50.83,6.128a1.864,1.864,0,0,1,.732-.774,2.133,2.133,0,0,1,1.116-.294q2.052,0,2.052,2.352V11H52.882V7.748a1.4,1.4,0,0,0-.216-.864.772.772,0,0,0-.648-.276.865.865,0,0,0-.72.318,1.809,1.809,0,0,0-.252,1.1V11H49.2V7.736a1.4,1.4,0,0,0-.21-.858.763.763,0,0,0-.642-.27.878.878,0,0,0-.732.318,1.809,1.809,0,0,0-.252,1.1V11H45.526ZM62.11,7.808a7.542,7.542,0,0,1-.048.8H57.79a1.167,1.167,0,0,0,.384.876,1.433,1.433,0,0,0,.972.312q.852,0,1.08-.54h1.8a1.88,1.88,0,0,1-.48,1,2.61,2.61,0,0,1-1.02.678,3.815,3.815,0,0,1-1.38.24,3.226,3.226,0,0,1-2.328-.816,2.976,2.976,0,0,1-.852-2.256,3.291,3.291,0,0,1,.384-1.626A2.613,2.613,0,0,1,57.442,5.42,3.786,3.786,0,0,1,60.664,5.4a2.556,2.556,0,0,1,1.068.978A2.733,2.733,0,0,1,62.11,7.808ZM60.3,7.472a1.24,1.24,0,0,0-.324-.888,1.218,1.218,0,0,0-.9-.312,1.283,1.283,0,0,0-.93.33,1.193,1.193,0,0,0-.354.87Zm3.108-2.256h1.836v.84a1.737,1.737,0,0,1,.732-.738,2.375,2.375,0,0,1,1.14-.258q2.112,0,2.112,2.364V11H67.378V8.024a1.931,1.931,0,0,0-.234-1.08.89.89,0,0,0-.786-.336,1.01,1.01,0,0,0-.834.348,1.59,1.59,0,0,0-.282,1.02V11H63.406ZM73.858,9.572a4.632,4.632,0,0,0,.636-.036V11a6.909,6.909,0,0,1-1.224.1,2.455,2.455,0,0,1-1.464-.42,1.992,1.992,0,0,1-.588-1.7v-2.3h-.912V5.216h.912V3.5h1.836V5.216h1.308V6.668H73.054v1.92a1.111,1.111,0,0,0,.2.786A.828.828,0,0,0,73.858,9.572ZM30.832,25.18a3.527,3.527,0,0,1-1.7-.4,2.759,2.759,0,0,1-1.122-1.092,3.184,3.184,0,0,1-.39-1.584,3.151,3.151,0,0,1,.39-1.578,2.77,2.77,0,0,1,1.122-1.086,3.851,3.851,0,0,1,3.4,0,2.768,2.768,0,0,1,1.116,1.092,3.387,3.387,0,0,1,0,3.156,2.768,2.768,0,0,1-1.116,1.092A3.492,3.492,0,0,1,30.832,25.18Zm0-1.56a1.278,1.278,0,0,0,1.008-.42,1.789,1.789,0,0,0,0-2.184,1.427,1.427,0,0,0-2.022,0,1.812,1.812,0,0,0,0,2.184A1.274,1.274,0,0,0,30.832,23.62Zm7.56-5.724a1.106,1.106,0,0,0-.606.15.64.64,0,0,0-.234.582v.588H38.9v1.452H37.552V25H35.716V20.668H34.684V19.216h1.032v-.564a1.972,1.972,0,0,1,.642-1.674,2.388,2.388,0,0,1,1.482-.486,3.578,3.578,0,0,1,1.056.132v1.308l-.228-.024Q38.548,17.9,38.392,17.9Zm7.848,5.676a4.632,4.632,0,0,0,.636-.036V25a6.909,6.909,0,0,1-1.224.1,2.455,2.455,0,0,1-1.464-.42,1.992,1.992,0,0,1-.588-1.7v-2.3h-.912V19.216H43.6V17.5h1.836v1.716h1.308v1.452H45.436v1.92a1.111,1.111,0,0,0,.2.786A.828.828,0,0,0,46.24,23.572Zm5.64-4.512q2.112,0,2.112,2.364V25H52.144V22.024a1.931,1.931,0,0,0-.234-1.08.89.89,0,0,0-.786-.336,1.01,1.01,0,0,0-.834.348,1.59,1.59,0,0,0-.282,1.02V25H48.172V16.6h1.836v3.456a1.738,1.738,0,0,1,.732-.738A2.375,2.375,0,0,1,51.88,19.06Zm9.5,2.748a7.542,7.542,0,0,1-.048.8H57.064a1.167,1.167,0,0,0,.384.876,1.433,1.433,0,0,0,.972.312q.852,0,1.08-.54h1.8a1.88,1.88,0,0,1-.48,1,2.61,2.61,0,0,1-1.02.678,3.815,3.815,0,0,1-1.38.24,3.226,3.226,0,0,1-2.328-.816,2.976,2.976,0,0,1-.852-2.256,3.291,3.291,0,0,1,.384-1.626,2.613,2.613,0,0,1,1.092-1.062,3.786,3.786,0,0,1,3.222-.024,2.556,2.556,0,0,1,1.068.978A2.733,2.733,0,0,1,61.384,21.808Zm-1.812-.336a1.24,1.24,0,0,0-.324-.888,1.218,1.218,0,0,0-.9-.312,1.283,1.283,0,0,0-.93.33,1.193,1.193,0,0,0-.354.87ZM10.294,39.18a3.527,3.527,0,0,1-1.7-.4,2.759,2.759,0,0,1-1.122-1.092,3.184,3.184,0,0,1-.39-1.584,3.151,3.151,0,0,1,.39-1.578A2.77,2.77,0,0,1,8.59,33.444a3.527,3.527,0,0,1,1.7-.4,3.492,3.492,0,0,1,1.7.4,2.768,2.768,0,0,1,1.116,1.092,3.387,3.387,0,0,1,0,3.156,2.768,2.768,0,0,1-1.116,1.092A3.492,3.492,0,0,1,10.294,39.18Zm0-1.56A1.278,1.278,0,0,0,11.3,37.2a1.789,1.789,0,0,0,0-2.184,1.278,1.278,0,0,0-1.008-.42,1.274,1.274,0,0,0-1.014.42,1.812,1.812,0,0,0,0,2.184A1.274,1.274,0,0,0,10.294,37.62Zm4.5-4.4H16.63v1.212a1.62,1.62,0,0,1,1.6-1.308,2.019,2.019,0,0,1,.48.048v1.7a5.118,5.118,0,0,0-.552-.036,1.4,1.4,0,0,0-1.116.468,2.191,2.191,0,0,0-.408,1.464V39H14.794Zm10.956,0V38.6a3.464,3.464,0,0,1-.288,1.464,2.408,2.408,0,0,1-.828,1,3.545,3.545,0,0,1-2.064.516,4.037,4.037,0,0,1-2.088-.468,2.378,2.378,0,0,1-.732-.708,1.68,1.68,0,0,1-.3-.9h1.872a.767.767,0,0,0,.366.54,1.614,1.614,0,0,0,.858.192,1.21,1.21,0,0,0,1.368-1.4v-.768a1.582,1.582,0,0,1-.726.678A2.373,2.373,0,0,1,22.1,39a2.77,2.77,0,0,1-1.464-.378,2.475,2.475,0,0,1-.954-1.05,3.413,3.413,0,0,1-.33-1.524,3.3,3.3,0,0,1,.348-1.53,2.655,2.655,0,0,1,.978-1.068,2.69,2.69,0,0,1,1.446-.39,2.2,2.2,0,0,1,1.086.27,1.632,1.632,0,0,1,.7.714v-.828Zm-3.144,4.368a1.28,1.28,0,0,0,1.014-.432,1.732,1.732,0,0,0,0-2.16,1.28,1.28,0,0,0-1.014-.432,1.26,1.26,0,0,0-.99.426,1.749,1.749,0,0,0,0,2.172A1.26,1.26,0,0,0,22.606,37.584Zm7.2,1.572a2.644,2.644,0,0,1-1.458-.4,2.543,2.543,0,0,1-.942-1.086,3.642,3.642,0,0,1-.324-1.566,3.542,3.542,0,0,1,.336-1.56,2.589,2.589,0,0,1,.966-1.092,2.66,2.66,0,0,1,1.446-.4,2.228,2.228,0,0,1,1.092.264,1.735,1.735,0,0,1,.72.72v-.828h1.824V39H31.642v-.816a1.792,1.792,0,0,1-.738.7A2.266,2.266,0,0,1,29.806,39.156Zm.528-1.524a1.254,1.254,0,0,0,1.02-.432,1.648,1.648,0,0,0,.36-1.092,1.63,1.63,0,0,0-.36-1.08,1.254,1.254,0,0,0-1.02-.432,1.283,1.283,0,0,0-1,.42,1.57,1.57,0,0,0-.378,1.092,1.593,1.593,0,0,0,.378,1.1A1.274,1.274,0,0,0,30.334,37.632Zm4.9-4.416h1.836v.84a1.738,1.738,0,0,1,.732-.738,2.375,2.375,0,0,1,1.14-.258q2.112,0,2.112,2.364V39H39.2V36.024a1.931,1.931,0,0,0-.234-1.08.89.89,0,0,0-.786-.336,1.01,1.01,0,0,0-.834.348,1.59,1.59,0,0,0-.282,1.02V39H35.23Zm7.524,0H44.59V39H42.754Zm.924-.5a1.107,1.107,0,1,1,.816-.324A1.1,1.1,0,0,1,43.678,32.712ZM48.49,34.74H45.922V33.216h5.352l-2.8,4.272h2.58V39H45.646Zm5.964,4.416A2.644,2.644,0,0,1,53,38.76a2.543,2.543,0,0,1-.942-1.086,3.642,3.642,0,0,1-.324-1.566,3.542,3.542,0,0,1,.336-1.56,2.589,2.589,0,0,1,.966-1.092,2.66,2.66,0,0,1,1.446-.4,2.228,2.228,0,0,1,1.092.264,1.735,1.735,0,0,1,.72.72v-.828h1.824V39H56.29v-.816a1.792,1.792,0,0,1-.738.7A2.266,2.266,0,0,1,54.454,39.156Zm.528-1.524A1.254,1.254,0,0,0,56,37.2a1.648,1.648,0,0,0,.36-1.092,1.63,1.63,0,0,0-.36-1.08,1.254,1.254,0,0,0-1.02-.432,1.283,1.283,0,0,0-1,.42,1.57,1.57,0,0,0-.378,1.092,1.593,1.593,0,0,0,.378,1.1A1.274,1.274,0,0,0,54.982,37.632Zm7.932-.06a4.632,4.632,0,0,0,.636-.036V39a6.909,6.909,0,0,1-1.224.1,2.455,2.455,0,0,1-1.464-.42,1.992,1.992,0,0,1-.588-1.7v-2.3h-.912V33.216h.912V31.5H62.11v1.716h1.308v1.452H62.11v1.92a1.111,1.111,0,0,0,.2.786A.828.828,0,0,0,62.914,37.572Zm1.932-4.356h1.836V39H64.846Zm.924-.5a1.107,1.107,0,1,1,.816-.324A1.1,1.1,0,0,1,65.77,32.712Zm5.424,6.468a3.527,3.527,0,0,1-1.7-.4,2.759,2.759,0,0,1-1.122-1.092,3.184,3.184,0,0,1-.39-1.584,3.151,3.151,0,0,1,.39-1.578,2.77,2.77,0,0,1,1.122-1.086,3.851,3.851,0,0,1,3.4,0,2.768,2.768,0,0,1,1.116,1.092,3.387,3.387,0,0,1,0,3.156,2.768,2.768,0,0,1-1.116,1.092A3.492,3.492,0,0,1,71.194,39.18Zm0-1.56A1.278,1.278,0,0,0,72.2,37.2a1.789,1.789,0,0,0,0-2.184,1.427,1.427,0,0,0-2.022,0,1.812,1.812,0,0,0,0,2.184A1.274,1.274,0,0,0,71.194,37.62Zm4.5-4.4H77.53v.84a1.737,1.737,0,0,1,.732-.738,2.375,2.375,0,0,1,1.14-.258q2.112,0,2.112,2.364V39H79.666V36.024a1.931,1.931,0,0,0-.234-1.08.89.89,0,0,0-.786-.336,1.01,1.01,0,0,0-.834.348,1.59,1.59,0,0,0-.282,1.02V39H75.694Z" transform="translate(430 51)" fill="#fff"/>
    <path id="Path_764" data-name="Path 764" d="M19.042,2.6h5.136V4.232H20.986V6.5h3.192V8.1H20.986V11H19.042ZM28.5,11.18a3.527,3.527,0,0,1-1.7-.4,2.759,2.759,0,0,1-1.122-1.092,3.184,3.184,0,0,1-.39-1.584,3.151,3.151,0,0,1,.39-1.578,2.77,2.77,0,0,1,1.122-1.086,3.851,3.851,0,0,1,3.4,0,2.768,2.768,0,0,1,1.116,1.092,3.16,3.16,0,0,1,.39,1.572,3.184,3.184,0,0,1-.39,1.584A2.768,2.768,0,0,1,30.2,10.784,3.492,3.492,0,0,1,28.5,11.18Zm0-1.56a1.278,1.278,0,0,0,1.008-.42,1.586,1.586,0,0,0,.372-1.092,1.586,1.586,0,0,0-.372-1.092,1.427,1.427,0,0,0-2.022,0,1.6,1.6,0,0,0-.366,1.092A1.6,1.6,0,0,0,27.484,9.2,1.274,1.274,0,0,0,28.5,9.62Zm7.344,1.56A3.36,3.36,0,0,1,34.2,10.8a2.65,2.65,0,0,1-1.08-1.08,3.316,3.316,0,0,1-.378-1.608,3.281,3.281,0,0,1,.378-1.6A2.66,2.66,0,0,1,34.2,5.432a3.36,3.36,0,0,1,1.638-.384,3.265,3.265,0,0,1,2.088.636,2.407,2.407,0,0,1,.912,1.728H37.006a1,1,0,0,0-.378-.612,1.3,1.3,0,0,0-.774-.2,1.161,1.161,0,0,0-.936.4,1.675,1.675,0,0,0-.336,1.116,1.675,1.675,0,0,0,.336,1.116,1.161,1.161,0,0,0,.936.4,1.359,1.359,0,0,0,.774-.192.941.941,0,0,0,.378-.576h1.836a2.366,2.366,0,0,1-.912,1.7A3.287,3.287,0,0,1,35.842,11.18Zm6.372-.024a2.013,2.013,0,0,1-1.584-.618,2.533,2.533,0,0,1-.552-1.746V5.216h1.86V8.384a1.53,1.53,0,0,0,.228.918.853.853,0,0,0,.732.306,1.024,1.024,0,0,0,.84-.336,1.455,1.455,0,0,0,.276-.948V5.216h1.824V11H44.014v-.828a1.8,1.8,0,0,1-.7.726A2.175,2.175,0,0,1,42.214,11.156Zm7.7.024a3.813,3.813,0,0,1-1.446-.252,2.251,2.251,0,0,1-.954-.684,1.56,1.56,0,0,1-.336-.984h1.824a.585.585,0,0,0,.264.492,1.135,1.135,0,0,0,.684.192A.772.772,0,0,0,50.44,9.8a.5.5,0,0,0-.234-.888l-1.416-.36a2.041,2.041,0,0,1-1.08-.612,1.562,1.562,0,0,1-.372-1.056,1.59,1.59,0,0,1,.672-1.326,2.905,2.905,0,0,1,1.8-.51,3.243,3.243,0,0,1,1.914.48,1.539,1.539,0,0,1,.666,1.32H50.578a.566.566,0,0,0-.21-.468.908.908,0,0,0-.582-.168.794.794,0,0,0-.48.132.411.411,0,0,0-.18.348q0,.384.492.516l1.368.372a2.206,2.206,0,0,1,1.074.594,1.424,1.424,0,0,1,.39,1.014,1.764,1.764,0,0,1-.678,1.446A2.875,2.875,0,0,1,49.918,11.18Zm9.828,0a3.527,3.527,0,0,1-1.7-.4A2.759,2.759,0,0,1,56.92,9.692a3.184,3.184,0,0,1-.39-1.584,3.151,3.151,0,0,1,.39-1.578,2.77,2.77,0,0,1,1.122-1.086,3.851,3.851,0,0,1,3.4,0A2.768,2.768,0,0,1,62.56,6.536a3.16,3.16,0,0,1,.39,1.572,3.184,3.184,0,0,1-.39,1.584,2.768,2.768,0,0,1-1.116,1.092A3.492,3.492,0,0,1,59.746,11.18Zm0-1.56a1.278,1.278,0,0,0,1.008-.42,1.586,1.586,0,0,0,.372-1.092,1.586,1.586,0,0,0-.372-1.092,1.427,1.427,0,0,0-2.022,0,1.6,1.6,0,0,0-.366,1.092A1.6,1.6,0,0,0,58.732,9.2,1.274,1.274,0,0,0,59.746,9.62Zm4.5-4.4h1.836v.84a1.737,1.737,0,0,1,.732-.738,2.375,2.375,0,0,1,1.14-.258q2.112,0,2.112,2.364V11H68.218V8.024a1.931,1.931,0,0,0-.234-1.08.89.89,0,0,0-.786-.336,1.01,1.01,0,0,0-.834.348,1.59,1.59,0,0,0-.282,1.02V11H64.246ZM25.894,25.24a4.824,4.824,0,0,1-2.382-.57,3.942,3.942,0,0,1-1.578-1.578,5.034,5.034,0,0,1,0-4.584,3.942,3.942,0,0,1,1.578-1.578,4.824,4.824,0,0,1,2.382-.57,5.287,5.287,0,0,1,2.142.408,3.6,3.6,0,0,1,1.482,1.152,3.48,3.48,0,0,1,.66,1.728H28.114a1.87,1.87,0,0,0-.744-1.134,2.447,2.447,0,0,0-1.464-.414,2.356,2.356,0,0,0-1.836.726,2.824,2.824,0,0,0-.66,1.974,2.824,2.824,0,0,0,.66,1.974,2.356,2.356,0,0,0,1.836.726,2.447,2.447,0,0,0,1.464-.414,1.87,1.87,0,0,0,.744-1.134h2.064a3.48,3.48,0,0,1-.66,1.728,3.6,3.6,0,0,1-1.482,1.152A5.287,5.287,0,0,1,25.894,25.24Zm9.264-6.18q2.112,0,2.112,2.364V25H35.422V22.024a1.931,1.931,0,0,0-.234-1.08.89.89,0,0,0-.786-.336,1.01,1.01,0,0,0-.834.348,1.59,1.59,0,0,0-.282,1.02V25H31.45V16.6h1.836v3.456a1.738,1.738,0,0,1,.732-.738A2.375,2.375,0,0,1,35.158,19.06Zm6.12,6.1a2.644,2.644,0,0,1-1.458-.4,2.543,2.543,0,0,1-.942-1.086,3.642,3.642,0,0,1-.324-1.566,3.542,3.542,0,0,1,.336-1.56,2.589,2.589,0,0,1,.966-1.092,2.66,2.66,0,0,1,1.446-.4,2.228,2.228,0,0,1,1.092.264,1.735,1.735,0,0,1,.72.72v-.828h1.824V25H43.114v-.816a1.792,1.792,0,0,1-.738.7A2.266,2.266,0,0,1,41.278,25.156Zm.528-1.524a1.254,1.254,0,0,0,1.02-.432,1.648,1.648,0,0,0,.36-1.092,1.63,1.63,0,0,0-.36-1.08,1.254,1.254,0,0,0-1.02-.432,1.283,1.283,0,0,0-1,.42,1.57,1.57,0,0,0-.378,1.092,1.593,1.593,0,0,0,.378,1.1A1.274,1.274,0,0,0,41.806,23.632Zm4.9-4.416h1.836v.84a1.738,1.738,0,0,1,.732-.738,2.375,2.375,0,0,1,1.14-.258q2.112,0,2.112,2.364V25H50.674V22.024a1.931,1.931,0,0,0-.234-1.08.89.89,0,0,0-.786-.336,1.01,1.01,0,0,0-.834.348,1.59,1.59,0,0,0-.282,1.02V25H46.7Zm13.5,0V24.6a3.464,3.464,0,0,1-.288,1.464,2.408,2.408,0,0,1-.828,1,3.545,3.545,0,0,1-2.064.516,4.037,4.037,0,0,1-2.088-.468A2.378,2.378,0,0,1,54.2,26.4a1.68,1.68,0,0,1-.3-.9h1.872a.767.767,0,0,0,.366.54,1.614,1.614,0,0,0,.858.192,1.21,1.21,0,0,0,1.368-1.4v-.768a1.582,1.582,0,0,1-.726.678A2.373,2.373,0,0,1,56.554,25a2.77,2.77,0,0,1-1.464-.378,2.475,2.475,0,0,1-.954-1.05,3.413,3.413,0,0,1-.33-1.524,3.3,3.3,0,0,1,.348-1.53,2.655,2.655,0,0,1,.978-1.068,2.69,2.69,0,0,1,1.446-.39,2.2,2.2,0,0,1,1.086.27,1.632,1.632,0,0,1,.7.714v-.828Zm-3.144,4.368a1.28,1.28,0,0,0,1.014-.432,1.732,1.732,0,0,0,0-2.16,1.28,1.28,0,0,0-1.014-.432,1.26,1.26,0,0,0-.99.426,1.749,1.749,0,0,0,0,2.172A1.26,1.26,0,0,0,57.058,23.584Zm10.584-1.776a7.541,7.541,0,0,1-.048.8H63.322a1.167,1.167,0,0,0,.384.876,1.433,1.433,0,0,0,.972.312q.852,0,1.08-.54h1.8a1.88,1.88,0,0,1-.48,1,2.61,2.61,0,0,1-1.02.678,3.815,3.815,0,0,1-1.38.24,3.226,3.226,0,0,1-2.328-.816,2.976,2.976,0,0,1-.852-2.256,3.291,3.291,0,0,1,.384-1.626,2.613,2.613,0,0,1,1.092-1.062A3.786,3.786,0,0,1,66.2,19.4a2.556,2.556,0,0,1,1.068.978A2.733,2.733,0,0,1,67.642,21.808Zm-1.812-.336a1.24,1.24,0,0,0-.324-.888,1.218,1.218,0,0,0-.9-.312,1.283,1.283,0,0,0-.93.33,1.193,1.193,0,0,0-.354.87ZM6.058,30.6H8.314l2.232,5.964L12.778,30.6h2.208V39h-1.86V33.552L11.266,39H9.826L7.918,33.516V39H6.058ZM19.1,39.156a2.644,2.644,0,0,1-1.458-.4,2.543,2.543,0,0,1-.942-1.086,3.642,3.642,0,0,1-.324-1.566,3.542,3.542,0,0,1,.336-1.56,2.589,2.589,0,0,1,.966-1.092,2.66,2.66,0,0,1,1.446-.4,2.228,2.228,0,0,1,1.092.264,1.735,1.735,0,0,1,.72.72v-.828h1.824V39H20.938v-.816a1.792,1.792,0,0,1-.738.7A2.266,2.266,0,0,1,19.1,39.156Zm.528-1.524a1.254,1.254,0,0,0,1.02-.432,1.648,1.648,0,0,0,.36-1.092,1.63,1.63,0,0,0-.36-1.08,1.254,1.254,0,0,0-1.02-.432,1.283,1.283,0,0,0-1,.42,1.57,1.57,0,0,0-.378,1.092,1.593,1.593,0,0,0,.378,1.1A1.274,1.274,0,0,0,19.63,37.632Zm4.9-4.416h1.836v.84a1.737,1.737,0,0,1,.732-.738,2.375,2.375,0,0,1,1.14-.258q2.112,0,2.112,2.364V39H28.5V36.024a1.931,1.931,0,0,0-.234-1.08.89.89,0,0,0-.786-.336,1.01,1.01,0,0,0-.834.348,1.59,1.59,0,0,0-.282,1.02V39H24.526Zm9.828,5.94a2.644,2.644,0,0,1-1.458-.4,2.543,2.543,0,0,1-.942-1.086,3.642,3.642,0,0,1-.324-1.566,3.542,3.542,0,0,1,.336-1.56,2.589,2.589,0,0,1,.966-1.092,2.66,2.66,0,0,1,1.446-.4,2.228,2.228,0,0,1,1.092.264,1.735,1.735,0,0,1,.72.72v-.828h1.824V39H36.19v-.816a1.792,1.792,0,0,1-.738.7A2.266,2.266,0,0,1,34.354,39.156Zm.528-1.524A1.254,1.254,0,0,0,35.9,37.2a1.648,1.648,0,0,0,.36-1.092,1.63,1.63,0,0,0-.36-1.08,1.254,1.254,0,0,0-1.02-.432,1.283,1.283,0,0,0-1,.42,1.57,1.57,0,0,0-.378,1.092,1.593,1.593,0,0,0,.378,1.1A1.274,1.274,0,0,0,34.882,37.632Zm10.872-4.416V38.6a3.464,3.464,0,0,1-.288,1.464,2.408,2.408,0,0,1-.828,1,3.545,3.545,0,0,1-2.064.516,4.037,4.037,0,0,1-2.088-.468,2.378,2.378,0,0,1-.732-.708,1.68,1.68,0,0,1-.3-.9h1.872a.767.767,0,0,0,.366.54,1.614,1.614,0,0,0,.858.192,1.21,1.21,0,0,0,1.368-1.4v-.768a1.582,1.582,0,0,1-.726.678A2.373,2.373,0,0,1,42.106,39a2.77,2.77,0,0,1-1.464-.378,2.475,2.475,0,0,1-.954-1.05,3.413,3.413,0,0,1-.33-1.524,3.3,3.3,0,0,1,.348-1.53,2.655,2.655,0,0,1,.978-1.068,2.69,2.69,0,0,1,1.446-.39,2.2,2.2,0,0,1,1.086.27,1.632,1.632,0,0,1,.7.714v-.828ZM42.61,37.584a1.28,1.28,0,0,0,1.014-.432,1.732,1.732,0,0,0,0-2.16,1.28,1.28,0,0,0-1.014-.432,1.26,1.26,0,0,0-.99.426,1.749,1.749,0,0,0,0,2.172A1.26,1.26,0,0,0,42.61,37.584Zm10.584-1.776a7.542,7.542,0,0,1-.048.8H48.874a1.167,1.167,0,0,0,.384.876,1.433,1.433,0,0,0,.972.312q.852,0,1.08-.54h1.8a1.88,1.88,0,0,1-.48,1,2.61,2.61,0,0,1-1.02.678,3.815,3.815,0,0,1-1.38.24,3.226,3.226,0,0,1-2.328-.816,2.976,2.976,0,0,1-.852-2.256,3.291,3.291,0,0,1,.384-1.626,2.613,2.613,0,0,1,1.092-1.062,3.786,3.786,0,0,1,3.222-.024,2.556,2.556,0,0,1,1.068.978A2.733,2.733,0,0,1,53.194,35.808Zm-1.812-.336a1.24,1.24,0,0,0-.324-.888,1.218,1.218,0,0,0-.9-.312,1.283,1.283,0,0,0-.93.33,1.193,1.193,0,0,0-.354.87Zm3.108-2.256h1.836v.84a1.584,1.584,0,0,1,.63-.72,1.884,1.884,0,0,1,1.026-.276,1.761,1.761,0,0,1,1.812,1.068,1.864,1.864,0,0,1,.732-.774,2.133,2.133,0,0,1,1.116-.294q2.052,0,2.052,2.352V39H61.846V35.748a1.4,1.4,0,0,0-.216-.864.772.772,0,0,0-.648-.276.865.865,0,0,0-.72.318,1.809,1.809,0,0,0-.252,1.1V39H58.162V35.736a1.4,1.4,0,0,0-.21-.858.763.763,0,0,0-.642-.27.878.878,0,0,0-.732.318,1.809,1.809,0,0,0-.252,1.1V39H54.49Zm16.584,2.592a7.542,7.542,0,0,1-.048.8H66.754a1.167,1.167,0,0,0,.384.876,1.433,1.433,0,0,0,.972.312q.852,0,1.08-.54h1.8a1.88,1.88,0,0,1-.48,1,2.61,2.61,0,0,1-1.02.678,3.815,3.815,0,0,1-1.38.24,3.226,3.226,0,0,1-2.328-.816,2.976,2.976,0,0,1-.852-2.256,3.291,3.291,0,0,1,.384-1.626,2.613,2.613,0,0,1,1.092-1.062,3.786,3.786,0,0,1,3.222-.024,2.556,2.556,0,0,1,1.068.978A2.733,2.733,0,0,1,71.074,35.808Zm-1.812-.336a1.24,1.24,0,0,0-.324-.888,1.218,1.218,0,0,0-.9-.312,1.283,1.283,0,0,0-.93.33,1.193,1.193,0,0,0-.354.87Zm3.108-2.256h1.836v.84a1.737,1.737,0,0,1,.732-.738,2.375,2.375,0,0,1,1.14-.258q2.112,0,2.112,2.364V39H76.342V36.024a1.931,1.931,0,0,0-.234-1.08.89.89,0,0,0-.786-.336,1.01,1.01,0,0,0-.834.348,1.59,1.59,0,0,0-.282,1.02V39H72.37Zm10.452,4.356a4.632,4.632,0,0,0,.636-.036V39a6.909,6.909,0,0,1-1.224.1,2.455,2.455,0,0,1-1.464-.42,1.992,1.992,0,0,1-.588-1.7v-2.3H79.27V33.216h.912V31.5h1.836v1.716h1.308v1.452H82.018v1.92a1.111,1.111,0,0,0,.2.786A.828.828,0,0,0,82.822,37.572Z" transform="translate(628 51)" fill="#fff"/>
  </g>
</svg>
