<svg id="Layer_1" data-name="Layer 1" xmlns="http://www.w3.org/2000/svg" viewBox="0 0 1575.53 166.15"><defs><style>.cls-1{fill:#fff;}</style></defs><title>dxc_logo_hz_wht_rgb-XXSML</title><path class="cls-1" d="M62.44,67.35A43.32,43.32,0,0,0,18.93,23.74H0v87.12H18.93A43.3,43.3,0,0,0,62.44,67.35m34,14.14L65.63,134.7h61.46Zm0-28.28L127.09,0H65.63Zm33.84,14.14a43.29,43.29,0,0,0,43.51,43.51h18.92V23.74H173.8a43.32,43.32,0,0,0-43.51,43.61M1537,138.22c-7,17.81-15.84,26.3-35.93,26.3a73.9,73.9,0,0,1-11.6-.82V141.33a63.24,63.24,0,0,0,8.82,1c6.7,0,10.94-2.62,14.37-10.95l2.13-5.22-36.26-84.78h29.07l21.07,52.11,19.44-51.95h27.44L1537,138.22m-114.33-33.16c-11.76,0-19.92-9.8-19.92-21.39s8.16-21.56,19.92-21.56c12.25,0,20.42,10,20.42,21.56s-8.17,21.39-20.42,21.39m47.21,22.38V41.36h-26.3V53.78c-4.9-9-15.84-14.54-26.62-14.54-24.67,0-41,19.11-41,44.43,0,25.15,17,43,41.32,43,11,0,21.4-5.39,26-13.07V128.1c0,12.08-6.37,18.78-19.11,18.78-11.27,0-17.47-5.23-18.62-12.9H1379c1.47,18.78,16.34,32.17,44.43,32.17,31.2,0,46.39-14,46.39-38.71m-149.3-22.38c-12.08,0-19.92-9.63-19.92-21.39s7.84-21.56,19.92-21.56,20.1,9.8,20.1,21.56-8,21.39-20.1,21.39m0,23c29.41,0,46.88-20.42,46.88-44.43,0-24.18-17.47-44.6-46.88-44.6-29.07,0-46.71,20.42-46.71,44.6,0,24,17.64,44.43,46.71,44.43m-86.24-2.29h26.62V3.3h-26.62Zm-59.78-20.75c-12.09,0-19.93-9.63-19.93-21.39s7.84-21.56,19.93-21.56,20.09,9.8,20.09,21.56-8,21.39-20.09,21.39m0,23c29.4,0,46.88-20.42,46.88-44.43,0-24.18-17.48-44.6-46.88-44.6-29.08,0-46.72,20.42-46.72,44.6,0,24,17.64,44.43,46.72,44.43m-143.74-2.29h26.62V81.71c0-11.93,5.55-19.6,16.33-19.6,11.44,0,15,7,15,17.15v46.55h26.63V77.3c0-23.85-10.46-38.06-31.85-38.06-12.58,0-21.73,5.55-26.47,14.37V41.36H1030.8Zm-101.44,0H956V81.71c0-11.93,5.55-19.6,16.33-19.6,11.43,0,15,7,15,17.15v46.55H1014V77.3c0-23.85-10.45-38.06-31.85-38.06-12.41,0-21.4,5.55-26.13,14.37V3.3H929.36ZM917.44,73.87c-3.27-19.6-17.81-34.8-43.29-34.8-28.58,0-45.9,20.42-45.9,44.6,0,24,17.32,44.43,45.9,44.43,25.48,0,40-15.19,43.29-34.8H890.65c-2.29,7.35-8,12.25-16.34,12.25-11.76,0-19.27-10-19.27-21.88s7.51-22.05,19.27-22.05c8.33,0,13.89,4.9,16.18,12.25ZM776,58c10.13,0,16.66,6.37,17.64,16.34H757.85C758.83,64.07,766,58,776,58m41.65,42.14H792.32c-2.78,5.07-7.68,8.66-16,8.66-12.09,0-18.13-7.68-18.62-18.29H819.1a76.21,76.21,0,0,0,.66-10c0-22.37-15.52-41.49-43.45-41.49-28.75,0-44.43,20.1-44.43,44.6,0,24.34,15.84,44.43,44.76,44.43,23,0,36.75-12.25,41-27.94M663,41.36V62.27h13.23v34.3c0,23.2,11.11,30.55,31.2,30.55A97.83,97.83,0,0,0,724,125.81v-21.4a91.64,91.64,0,0,1-10.62,1c-6.86,0-10.61-2.29-10.61-10.78V62.27h19.27V41.36H702.81v-25H676.18v25Zm-36.09,68.93a17,17,0,1,0,17-17,17,17,0,0,0-17,17m-65.17,17.64c33.81,0,52.27-20.25,55.86-46.06H589.62c-2.61,12.25-12.74,21.4-27.28,21.4-21.07,0-32-16.83-32-36.26s10.94-36.27,32-36.27c14.54,0,24.67,9.15,27.28,21.4h27.93C614,26.33,595.5,6.08,561.69,6.08,524,6.08,502.07,34.83,502.07,67s21.89,60.92,59.62,60.92m-91.64-2.12h32.34L464.34,66.68,502.07,8.2H470.38L447,46.92,423.34,8.2H391.16l37.89,58.48-38.22,59.13h31.53l24-39.2ZM329.74,32.05c21.73,0,34.14,17,34.14,35,0,17.8-12.41,34.95-34.14,34.95H315.53V32.05Zm-41.81,93.76h43.12c39.2,0,61.09-28.75,61.09-58.8S370.09,8.2,331.05,8.2H287.93Z"/></svg>