<svg xmlns="http://www.w3.org/2000/svg" xmlns:xlink="http://www.w3.org/1999/xlink" width="1425" height="750" viewBox="0 0 1425 750">
  <defs>
    <clipPath id="clip-forever_illustration">
      <rect width="1425" height="750"/>
    </clipPath>
  </defs>
  <g id="forever_illustration" clip-path="url(#clip-forever_illustration)">
    <path id="Path_757" data-name="Path 757" d="M2924.6-8409.434c46.579-85.05,133.889-170.47,298.115-166.475,165.951,14.134,335.438,208.895,335.438,208.895s208.951-227,391.568-208.895c139.3,14.381,247.8,97.28,267.516,246.25,17.7,153.431-76.091,294.821-240.862,325.9-226.97,52.977-418.222-206.829-418.222-206.829s-176.826,185.457-326.968,213.077c-119.269,10.966-226.787-35.989-280.771-112.823C2908.786-8152.064,2866.775-8295.259,2924.6-8409.434Z" transform="translate(-2818 8662)" fill="#7f3f98"/>
    <path id="Path_758" data-name="Path 758" d="M3475.471-8286.285s-153.048-178.208-277.378-172.095-172.056,87.43-176.685,172.247,59.941,173.538,182.954,170.779S3475.471-8286.285,3475.471-8286.285Z" transform="translate(-2818 8662)" fill="#fff" stroke="#707070" stroke-width="1"/>
    <path id="Path_759" data-name="Path 759" d="M3021.176-8286.285s153.048-178.208,277.378-172.095,172.056,87.43,176.685,172.247S3415.3-8112.6,3292.284-8115.354,3021.176-8286.285,3021.176-8286.285Z" transform="translate(-2199 8662)" fill="#fff" stroke="#707070" stroke-width="1"/>
    <path id="Path_760" data-name="Path 760" d="M22.074,11.931a7.079,7.079,0,0,1-.945,3.658,6.049,6.049,0,0,1-2.592,2.417L21.858,24H16.89l-2.97-5.238h-2.3V24H7.251V5.1H15.3a6.906,6.906,0,0,1,3.483.877A6.332,6.332,0,0,1,21.2,8.408,7.035,7.035,0,0,1,22.074,11.931ZM11.625,15.2h3A2.832,2.832,0,0,0,16.8,14.28a3.32,3.32,0,0,0,.85-2.349,3.32,3.32,0,0,0-.85-2.349,2.832,2.832,0,0,0-2.174-.918h-3Zm26.109,1.62a16.971,16.971,0,0,1-.108,1.809H28.014a2.626,2.626,0,0,0,.864,1.971,3.225,3.225,0,0,0,2.187.7q1.917,0,2.43-1.215h4.05a4.229,4.229,0,0,1-1.08,2.255,5.873,5.873,0,0,1-2.295,1.525,8.584,8.584,0,0,1-3.105.54,7.259,7.259,0,0,1-5.238-1.836,6.7,6.7,0,0,1-1.917-5.076,7.405,7.405,0,0,1,.864-3.659,5.879,5.879,0,0,1,2.457-2.389,7.84,7.84,0,0,1,3.7-.837,7.778,7.778,0,0,1,3.55.783,5.752,5.752,0,0,1,2.4,2.2A6.148,6.148,0,0,1,37.734,16.818Zm-4.077-.756a2.79,2.79,0,0,0-.729-2,2.741,2.741,0,0,0-2.025-.7,2.887,2.887,0,0,0-2.092.742,2.684,2.684,0,0,0-.8,1.958Zm12.5,8.289a5.948,5.948,0,0,1-3.28-.891,5.722,5.722,0,0,1-2.119-2.443,8.194,8.194,0,0,1-.729-3.524,7.97,7.97,0,0,1,.756-3.51,5.825,5.825,0,0,1,2.174-2.457,5.984,5.984,0,0,1,3.253-.891,5.013,5.013,0,0,1,2.457.594,3.9,3.9,0,0,1,1.62,1.62V10.986h4.1V24h-4.1V22.164a4.032,4.032,0,0,1-1.66,1.58A5.1,5.1,0,0,1,46.158,24.351Zm1.188-3.429a2.821,2.821,0,0,0,2.3-.972,3.708,3.708,0,0,0,.81-2.457,3.667,3.667,0,0,0-.81-2.43,2.821,2.821,0,0,0-2.3-.972,2.886,2.886,0,0,0-2.254.945,3.533,3.533,0,0,0-.851,2.457,3.583,3.583,0,0,0,.851,2.471A2.867,2.867,0,0,0,47.346,20.922ZM58.362,5.1h4.131V24H58.362Zm8.073,5.886h4.131V24H66.435Zm2.079-1.134a2.513,2.513,0,0,1-2.565-2.538,2.565,2.565,0,1,1,5.13,0,2.456,2.456,0,0,1-.729,1.809A2.489,2.489,0,0,1,68.514,9.852Zm10.827,4.563H73.563V10.986H85.605L79.314,20.6h5.8V24H72.942ZM92.76,24.351a5.948,5.948,0,0,1-3.281-.891,5.722,5.722,0,0,1-2.119-2.443,8.194,8.194,0,0,1-.729-3.524,7.969,7.969,0,0,1,.756-3.51,5.825,5.825,0,0,1,2.174-2.457,5.984,5.984,0,0,1,3.254-.891,5.013,5.013,0,0,1,2.457.594,3.9,3.9,0,0,1,1.62,1.62V10.986H101V24h-4.1V22.164a4.032,4.032,0,0,1-1.66,1.58A5.1,5.1,0,0,1,92.76,24.351Zm1.188-3.429a2.821,2.821,0,0,0,2.3-.972,3.708,3.708,0,0,0,.81-2.457,3.667,3.667,0,0,0-.81-2.43,2.821,2.821,0,0,0-2.3-.972,2.886,2.886,0,0,0-2.255.945,3.533,3.533,0,0,0-.85,2.457,3.584,3.584,0,0,0,.85,2.471A2.867,2.867,0,0,0,93.948,20.922Zm17.847-.135a10.421,10.421,0,0,0,1.431-.081V24a15.545,15.545,0,0,1-2.754.216,5.523,5.523,0,0,1-3.294-.945q-1.323-.945-1.323-3.834V14.253H103.8V10.986h2.052V7.125h4.131v3.861h2.943v3.267h-2.943v4.32a2.5,2.5,0,0,0,.459,1.768A1.864,1.864,0,0,0,111.8,20.787Zm4.347-9.8h4.131V24h-4.131Zm2.079-1.134a2.513,2.513,0,0,1-2.565-2.538,2.565,2.565,0,1,1,5.13,0,2.456,2.456,0,0,1-.729,1.809A2.489,2.489,0,0,1,118.221,9.852Zm12.2,14.553a7.935,7.935,0,0,1-3.834-.891,6.208,6.208,0,0,1-2.524-2.457,7.165,7.165,0,0,1-.877-3.564,7.089,7.089,0,0,1,.877-3.55,6.233,6.233,0,0,1,2.524-2.444,8.665,8.665,0,0,1,7.655,0,6.228,6.228,0,0,1,2.511,2.457,7.11,7.11,0,0,1,.878,3.537,7.165,7.165,0,0,1-.878,3.564,6.228,6.228,0,0,1-2.511,2.457A7.856,7.856,0,0,1,130.425,24.405Zm0-3.51a2.876,2.876,0,0,0,2.268-.945,3.568,3.568,0,0,0,.837-2.457,3.568,3.568,0,0,0-.837-2.457,3.21,3.21,0,0,0-4.549,0,3.6,3.6,0,0,0-.824,2.457,3.6,3.6,0,0,0,.824,2.457A2.867,2.867,0,0,0,130.425,20.9Zm10.125-9.909h4.131v1.89a3.909,3.909,0,0,1,1.647-1.661,5.344,5.344,0,0,1,2.565-.58q4.752,0,4.752,5.319V24h-4.158V17.3a4.344,4.344,0,0,0-.527-2.43,2,2,0,0,0-1.768-.756,2.273,2.273,0,0,0-1.876.783,3.577,3.577,0,0,0-.635,2.295V24h-4.131Zm30.24,13.419a7.935,7.935,0,0,1-3.834-.891,6.207,6.207,0,0,1-2.524-2.457,7.165,7.165,0,0,1-.878-3.564,7.089,7.089,0,0,1,.878-3.55,6.233,6.233,0,0,1,2.524-2.444,8.665,8.665,0,0,1,7.655,0,6.228,6.228,0,0,1,2.511,2.457A7.11,7.11,0,0,1,178,17.493a7.165,7.165,0,0,1-.878,3.564,6.228,6.228,0,0,1-2.511,2.457A7.856,7.856,0,0,1,170.79,24.405Zm0-3.51a2.876,2.876,0,0,0,2.268-.945,3.568,3.568,0,0,0,.837-2.457,3.568,3.568,0,0,0-.837-2.457,3.21,3.21,0,0,0-4.549,0,3.6,3.6,0,0,0-.824,2.457,3.6,3.6,0,0,0,.824,2.457A2.867,2.867,0,0,0,170.79,20.9ZM187.8,8.016a2.488,2.488,0,0,0-1.363.337,1.441,1.441,0,0,0-.527,1.309v1.323h3.024v3.267h-3.024V24H181.78V14.253h-2.322V10.986h2.322V9.717a4.436,4.436,0,0,1,1.444-3.766,5.374,5.374,0,0,1,3.335-1.094,8.051,8.051,0,0,1,2.376.3V8.1l-.513-.054Q188.151,8.016,187.8,8.016Zm23.625,8.8a16.973,16.973,0,0,1-.108,1.809h-9.612a2.626,2.626,0,0,0,.864,1.971,3.224,3.224,0,0,0,2.187.7q1.917,0,2.43-1.215h4.05a4.229,4.229,0,0,1-1.08,2.255,5.873,5.873,0,0,1-2.295,1.525,8.584,8.584,0,0,1-3.1.54,7.259,7.259,0,0,1-5.238-1.836,6.7,6.7,0,0,1-1.917-5.076,7.405,7.405,0,0,1,.864-3.659,5.879,5.879,0,0,1,2.457-2.389,8.518,8.518,0,0,1,7.249-.054,5.752,5.752,0,0,1,2.4,2.2A6.148,6.148,0,0,1,211.425,16.818Zm-4.077-.756a2.79,2.79,0,0,0-.729-2,2.741,2.741,0,0,0-2.025-.7,2.887,2.887,0,0,0-2.092.742,2.684,2.684,0,0,0-.8,1.958Zm9.5,1.377-4.671-6.453h4.941l2.241,3.78,2.268-3.78h4.941L221.9,17.439,226.653,24h-4.941l-2.349-3.888L217.041,24H212.1Zm20.628-6.8a5.7,5.7,0,0,1,3.118.864,5.785,5.785,0,0,1,2.12,2.417,8.075,8.075,0,0,1,.756,3.577,7.955,7.955,0,0,1-.77,3.577,5.812,5.812,0,0,1-2.16,2.417,5.886,5.886,0,0,1-3.173.864,5.043,5.043,0,0,1-2.511-.621,4,4,0,0,1-1.62-1.566V29.4h-4.131V10.986h4.131v1.863a3.888,3.888,0,0,1,1.674-1.593A5.352,5.352,0,0,1,237.48,10.635Zm-1.3,10.287a2.847,2.847,0,0,0,2.214-.958,3.549,3.549,0,0,0,.864-2.471,3.5,3.5,0,0,0-.864-2.457,2.865,2.865,0,0,0-2.214-.945,2.928,2.928,0,0,0-2.268.945,3.5,3.5,0,0,0-.864,2.457,3.5,3.5,0,0,0,.877,2.484A2.939,2.939,0,0,0,236.184,20.922Zm23.193-4.1a16.974,16.974,0,0,1-.108,1.809h-9.612a2.626,2.626,0,0,0,.864,1.971,3.224,3.224,0,0,0,2.187.7q1.917,0,2.43-1.215h4.05a4.23,4.23,0,0,1-1.08,2.255,5.873,5.873,0,0,1-2.295,1.525,8.584,8.584,0,0,1-3.1.54,7.259,7.259,0,0,1-5.238-1.836,6.7,6.7,0,0,1-1.917-5.076,7.405,7.405,0,0,1,.864-3.659,5.879,5.879,0,0,1,2.457-2.389,8.518,8.518,0,0,1,7.249-.054,5.752,5.752,0,0,1,2.4,2.2A6.148,6.148,0,0,1,259.378,16.818Zm-4.077-.756a2.79,2.79,0,0,0-.729-2,2.741,2.741,0,0,0-2.025-.7,2.887,2.887,0,0,0-2.092.742,2.684,2.684,0,0,0-.8,1.958Zm13.392,8.343a7.56,7.56,0,0,1-3.685-.864,5.962,5.962,0,0,1-2.43-2.43,7.461,7.461,0,0,1-.851-3.618,7.383,7.383,0,0,1,.851-3.6,5.984,5.984,0,0,1,2.43-2.417,7.56,7.56,0,0,1,3.685-.864,7.347,7.347,0,0,1,4.7,1.431,5.416,5.416,0,0,1,2.052,3.888h-4.131a2.262,2.262,0,0,0-.851-1.377,2.92,2.92,0,0,0-1.741-.459,2.612,2.612,0,0,0-2.106.891,3.769,3.769,0,0,0-.756,2.511A3.769,3.769,0,0,0,266.614,20a2.612,2.612,0,0,0,2.106.891,3.058,3.058,0,0,0,1.741-.432,2.117,2.117,0,0,0,.851-1.3h4.131a5.324,5.324,0,0,1-2.052,3.82A7.4,7.4,0,0,1,268.693,24.405Zm16.443-3.618a10.422,10.422,0,0,0,1.431-.081V24a15.546,15.546,0,0,1-2.754.216,5.523,5.523,0,0,1-3.294-.945q-1.323-.945-1.323-3.834V14.253h-2.052V10.986H279.2V7.125h4.131v3.861h2.943v3.267h-2.943v4.32a2.5,2.5,0,0,0,.459,1.768A1.864,1.864,0,0,0,285.135,20.787Zm17.145-3.969a16.974,16.974,0,0,1-.108,1.809H292.56a2.626,2.626,0,0,0,.864,1.971,3.224,3.224,0,0,0,2.187.7q1.917,0,2.43-1.215h4.05a4.229,4.229,0,0,1-1.08,2.255,5.873,5.873,0,0,1-2.3,1.525,8.584,8.584,0,0,1-3.105.54,7.259,7.259,0,0,1-5.238-1.836,6.7,6.7,0,0,1-1.917-5.076,7.4,7.4,0,0,1,.864-3.659,5.879,5.879,0,0,1,2.457-2.389,8.518,8.518,0,0,1,7.25-.054,5.752,5.752,0,0,1,2.4,2.2A6.148,6.148,0,0,1,302.28,16.818Zm-4.077-.756a2.79,2.79,0,0,0-.729-2,2.741,2.741,0,0,0-2.025-.7,2.887,2.887,0,0,0-2.092.742,2.684,2.684,0,0,0-.8,1.958Zm20.763-4.32h-.027V24h-4.1V22.164a4.031,4.031,0,0,1-1.66,1.58,5.1,5.1,0,0,1-2.47.608,5.948,5.948,0,0,1-3.281-.891,5.722,5.722,0,0,1-2.12-2.443,8.194,8.194,0,0,1-.729-3.524,7.97,7.97,0,0,1,.756-3.51,5.825,5.825,0,0,1,2.173-2.457,5.984,5.984,0,0,1,3.254-.891,5.013,5.013,0,0,1,2.457.594,3.9,3.9,0,0,1,1.62,1.62V5.1h4.131Zm-7.074,9.18a2.821,2.821,0,0,0,2.3-.972,3.708,3.708,0,0,0,.81-2.457,3.667,3.667,0,0,0-.81-2.43,2.821,2.821,0,0,0-2.3-.972,2.886,2.886,0,0,0-2.254.945,3.533,3.533,0,0,0-.851,2.457,3.583,3.583,0,0,0,.851,2.471A2.867,2.867,0,0,0,311.892,20.922Zm33.075-8.991a7.079,7.079,0,0,1-.945,3.658,6.049,6.049,0,0,1-2.592,2.417L344.751,24h-4.968l-2.97-5.238h-2.3V24h-4.374V5.1h8.046a6.906,6.906,0,0,1,3.483.877,6.332,6.332,0,0,1,2.417,2.43A7.035,7.035,0,0,1,344.967,11.931ZM334.518,15.2h3a2.832,2.832,0,0,0,2.173-.918,3.32,3.32,0,0,0,.85-2.349,3.32,3.32,0,0,0-.85-2.349,2.832,2.832,0,0,0-2.173-.918h-3Zm26.109,1.62a16.974,16.974,0,0,1-.108,1.809h-9.612a2.626,2.626,0,0,0,.864,1.971,3.224,3.224,0,0,0,2.187.7q1.917,0,2.43-1.215h4.05a4.229,4.229,0,0,1-1.08,2.255,5.873,5.873,0,0,1-2.3,1.525,8.584,8.584,0,0,1-3.105.54,7.259,7.259,0,0,1-5.238-1.836,6.7,6.7,0,0,1-1.917-5.076,7.4,7.4,0,0,1,.864-3.659,5.879,5.879,0,0,1,2.457-2.389,8.518,8.518,0,0,1,7.25-.054,5.752,5.752,0,0,1,2.4,2.2A6.148,6.148,0,0,1,360.628,16.818Zm-4.077-.756a2.79,2.79,0,0,0-.729-2,2.741,2.741,0,0,0-2.025-.7,2.887,2.887,0,0,0-2.092.742,2.684,2.684,0,0,0-.8,1.958Zm13.77,4.725a10.422,10.422,0,0,0,1.431-.081V24a15.546,15.546,0,0,1-2.754.216,5.523,5.523,0,0,1-3.294-.945q-1.323-.945-1.323-3.834V14.253h-2.052V10.986h2.052V7.125h4.131v3.861h2.943v3.267h-2.943v4.32a2.5,2.5,0,0,0,.459,1.768A1.864,1.864,0,0,0,370.32,20.787Zm9.018,3.564a4.529,4.529,0,0,1-3.564-1.39,5.7,5.7,0,0,1-1.242-3.929V10.986h4.185v7.128a3.441,3.441,0,0,0,.513,2.066,1.919,1.919,0,0,0,1.647.688,2.3,2.3,0,0,0,1.89-.756,3.274,3.274,0,0,0,.621-2.133V10.986h4.1V24h-4.1V22.137a4.06,4.06,0,0,1-1.579,1.633A4.895,4.895,0,0,1,379.339,24.351Zm12.123-13.365h4.131v2.727a3.644,3.644,0,0,1,3.591-2.943,4.543,4.543,0,0,1,1.08.108v3.834a11.517,11.517,0,0,0-1.242-.081,3.158,3.158,0,0,0-2.511,1.053,4.931,4.931,0,0,0-.918,3.294V24h-4.131Zm11.556,0h4.131v1.89a3.909,3.909,0,0,1,1.647-1.661,5.344,5.344,0,0,1,2.565-.58q4.752,0,4.752,5.319V24h-4.158V17.3a4.344,4.344,0,0,0-.526-2.43,2,2,0,0,0-1.769-.756,2.273,2.273,0,0,0-1.876.783,3.577,3.577,0,0,0-.634,2.295V24h-4.131ZM436.173,24.54a10.4,10.4,0,0,1-5.373-1.35,9.134,9.134,0,0,1-3.51-3.632,10.488,10.488,0,0,1-1.215-5.009,10.488,10.488,0,0,1,1.215-5.009A9.134,9.134,0,0,1,430.8,5.91a11.367,11.367,0,0,1,10.746,0,9.134,9.134,0,0,1,3.51,3.632,10.488,10.488,0,0,1,1.215,5.009,10.488,10.488,0,0,1-1.215,5.009,9.134,9.134,0,0,1-3.51,3.632A10.4,10.4,0,0,1,436.173,24.54Zm0-3.915a5.383,5.383,0,0,0,2.983-.81,5.148,5.148,0,0,0,1.9-2.2,7.165,7.165,0,0,0,.648-3.064,7.165,7.165,0,0,0-.648-3.064,5.148,5.148,0,0,0-1.9-2.2,5.949,5.949,0,0,0-5.994,0,5.148,5.148,0,0,0-1.9,2.2,6.9,6.9,0,0,0-.621,3.064,6.9,6.9,0,0,0,.621,3.064,5.148,5.148,0,0,0,1.9,2.2A5.433,5.433,0,0,0,436.173,20.625Zm13.041-9.639h4.131v1.89a3.909,3.909,0,0,1,1.647-1.661,5.344,5.344,0,0,1,2.565-.58q4.752,0,4.752,5.319V24h-4.158V17.3a4.344,4.344,0,0,0-.526-2.43,2,2,0,0,0-1.769-.756,2.273,2.273,0,0,0-1.876.783,3.577,3.577,0,0,0-.634,2.295V24h-4.131ZM473.379,5.1h4.374V24h-4.374Zm8.451,5.886h4.131v1.89a3.909,3.909,0,0,1,1.647-1.661,5.344,5.344,0,0,1,2.565-.58q4.752,0,4.752,5.319V24h-4.158V17.3a4.344,4.344,0,0,0-.526-2.43,2,2,0,0,0-1.769-.756,2.273,2.273,0,0,0-1.876.783,3.577,3.577,0,0,0-.634,2.295V24H481.83Zm14.58,0h4.563l2.916,8.181,2.916-8.181h4.59L505.752,24h-3.726Zm29.349,5.832a16.966,16.966,0,0,1-.108,1.809h-9.612A2.626,2.626,0,0,0,516.9,20.6a3.224,3.224,0,0,0,2.187.7q1.917,0,2.43-1.215h4.05a4.23,4.23,0,0,1-1.08,2.255,5.873,5.873,0,0,1-2.295,1.525,8.584,8.584,0,0,1-3.1.54,7.259,7.259,0,0,1-5.238-1.836,6.7,6.7,0,0,1-1.917-5.076,7.405,7.405,0,0,1,.864-3.659,5.879,5.879,0,0,1,2.457-2.389,8.518,8.518,0,0,1,7.25-.054,5.752,5.752,0,0,1,2.4,2.2A6.148,6.148,0,0,1,525.76,16.818Zm-4.077-.756a2.79,2.79,0,0,0-.729-2,2.741,2.741,0,0,0-2.025-.7,2.887,2.887,0,0,0-2.093.742,2.684,2.684,0,0,0-.8,1.958Zm12.258,8.343a8.579,8.579,0,0,1-3.253-.567A5.065,5.065,0,0,1,528.54,22.3a3.51,3.51,0,0,1-.756-2.214h4.1a1.315,1.315,0,0,0,.594,1.107,2.554,2.554,0,0,0,1.539.432,1.736,1.736,0,0,0,1.094-.324,1.134,1.134,0,0,0-.526-2l-3.186-.81a4.593,4.593,0,0,1-2.43-1.377,3.515,3.515,0,0,1-.837-2.376,3.577,3.577,0,0,1,1.512-2.984,6.537,6.537,0,0,1,4.05-1.148A7.3,7.3,0,0,1,538,11.688a3.462,3.462,0,0,1,1.5,2.97h-4.077a1.273,1.273,0,0,0-.472-1.053,2.043,2.043,0,0,0-1.31-.378,1.786,1.786,0,0,0-1.08.3.926.926,0,0,0-.4.783q0,.864,1.107,1.161l3.078.837a4.964,4.964,0,0,1,2.417,1.337,3.2,3.2,0,0,1,.878,2.281,3.97,3.97,0,0,1-1.526,3.253A6.47,6.47,0,0,1,533.94,24.405Zm15.444-3.618a10.422,10.422,0,0,0,1.431-.081V24a15.546,15.546,0,0,1-2.754.216,5.523,5.523,0,0,1-3.294-.945q-1.323-.945-1.323-3.834V14.253h-2.052V10.986h2.052V7.125h4.131v3.861h2.943v3.267h-2.943v4.32a2.5,2.5,0,0,0,.459,1.768A1.864,1.864,0,0,0,549.385,20.787Zm4.347-9.8h4.131v1.89a3.564,3.564,0,0,1,1.418-1.62,4.238,4.238,0,0,1,2.308-.621q3.078,0,4.077,2.4a4.193,4.193,0,0,1,1.647-1.741,4.8,4.8,0,0,1,2.511-.661q4.617,0,4.617,5.292V24h-4.158V16.683a3.15,3.15,0,0,0-.486-1.944,1.738,1.738,0,0,0-1.458-.621,1.946,1.946,0,0,0-1.62.715,4.071,4.071,0,0,0-.567,2.471V24h-4.158V16.656a3.154,3.154,0,0,0-.473-1.931,1.716,1.716,0,0,0-1.444-.608,1.976,1.976,0,0,0-1.647.715,4.071,4.071,0,0,0-.567,2.471V24h-4.131Zm37.314,5.832a16.966,16.966,0,0,1-.108,1.809h-9.612a2.626,2.626,0,0,0,.864,1.971,3.224,3.224,0,0,0,2.187.7q1.917,0,2.43-1.215h4.05a4.23,4.23,0,0,1-1.08,2.255,5.873,5.873,0,0,1-2.295,1.525,8.584,8.584,0,0,1-3.1.54,7.259,7.259,0,0,1-5.238-1.836,6.7,6.7,0,0,1-1.917-5.076,7.405,7.405,0,0,1,.864-3.659,5.879,5.879,0,0,1,2.457-2.389,8.518,8.518,0,0,1,7.25-.054,5.752,5.752,0,0,1,2.4,2.2A6.148,6.148,0,0,1,591.046,16.818Zm-4.077-.756a2.79,2.79,0,0,0-.729-2,2.741,2.741,0,0,0-2.025-.7,2.887,2.887,0,0,0-2.093.742,2.684,2.684,0,0,0-.8,1.958Zm6.993-5.076h4.131v1.89a3.909,3.909,0,0,1,1.647-1.661,5.344,5.344,0,0,1,2.565-.58q4.752,0,4.752,5.319V24H602.9V17.3a4.344,4.344,0,0,0-.526-2.43,2,2,0,0,0-1.768-.756,2.273,2.273,0,0,0-1.877.783,3.577,3.577,0,0,0-.635,2.295V24h-4.131Zm23.517,9.8a10.422,10.422,0,0,0,1.431-.081V24a15.546,15.546,0,0,1-2.754.216,5.523,5.523,0,0,1-3.294-.945q-1.323-.945-1.323-3.834V14.253h-2.052V10.986h2.052V7.125h4.131v3.861h2.943v3.267H615.67v4.32a2.5,2.5,0,0,0,.459,1.768A1.864,1.864,0,0,0,617.479,20.787Z" transform="translate(455 31)"/>
    <path id="Path_761" data-name="Path 761" d="M110.66,54.66q-6.84,0-10.71-3.57t-3.87-9.93h5.58a8.673,8.673,0,0,0,2.37,6.51,9.1,9.1,0,0,0,6.63,2.31,8.773,8.773,0,0,0,6.03-2.04A6.784,6.784,0,0,0,119,42.6a6.994,6.994,0,0,0-2.22-5.55q-2.22-1.95-6.42-1.95h-3V30.36h3.06a8.256,8.256,0,0,0,5.67-1.74,6.4,6.4,0,0,0,1.95-5.04,5.91,5.91,0,0,0-2.07-4.68,7.979,7.979,0,0,0-5.43-1.8,8.361,8.361,0,0,0-5.94,2.07,7.3,7.3,0,0,0-2.22,5.61H97.04a11.458,11.458,0,0,1,3.66-8.91q3.66-3.33,9.84-3.33a16.142,16.142,0,0,1,6.87,1.38A10.693,10.693,0,0,1,122,17.79a10.378,10.378,0,0,1,1.62,5.79,8.753,8.753,0,0,1-1.92,5.79,10.419,10.419,0,0,1-5.52,3.27,9.157,9.157,0,0,1,6,3.24,10.04,10.04,0,0,1,2.34,6.72,11.268,11.268,0,0,1-1.77,6.27,11.919,11.919,0,0,1-4.92,4.26A16.206,16.206,0,0,1,110.66,54.66Zm36.36,0q-7.56,0-11.49-5.37T131.6,33.54q0-10.32,3.93-15.69t11.49-5.37q7.56,0,11.49,5.37t3.93,15.69q0,10.38-3.93,15.75T147.02,54.66Zm0-4.8q10.2,0,10.2-16.32,0-16.26-10.2-16.26-10.26,0-10.26,16.26Q136.76,49.86,147.02,49.86Zm26.88,3.06L202.22,12l3.42,1.92L177.44,54.9Zm4.38-19.8a10.932,10.932,0,0,1-5.64-1.41,9.61,9.61,0,0,1-3.66-3.72,10.83,10.83,0,0,1,0-10.14,9.61,9.61,0,0,1,3.66-3.72,11.985,11.985,0,0,1,11.28,0,9.61,9.61,0,0,1,3.66,3.72,10.83,10.83,0,0,1,0,10.14,9.61,9.61,0,0,1-3.66,3.72A10.932,10.932,0,0,1,178.28,33.12Zm0-4.08a5.7,5.7,0,0,0,4.38-1.74,6.177,6.177,0,0,0,1.62-4.38,6.177,6.177,0,0,0-1.62-4.38,5.7,5.7,0,0,0-4.38-1.74,5.6,5.6,0,0,0-4.35,1.74,6.245,6.245,0,0,0-1.59,4.38,6.245,6.245,0,0,0,1.59,4.38A5.6,5.6,0,0,0,178.28,29.04ZM201.5,54.3a10.932,10.932,0,0,1-5.64-1.41,9.61,9.61,0,0,1-3.66-3.72,10.83,10.83,0,0,1,0-10.14,9.61,9.61,0,0,1,3.66-3.72,11.985,11.985,0,0,1,11.28,0,9.61,9.61,0,0,1,3.66,3.72,10.83,10.83,0,0,1,0,10.14,9.609,9.609,0,0,1-3.66,3.72A10.932,10.932,0,0,1,201.5,54.3Zm0-4.08a5.7,5.7,0,0,0,4.38-1.74,6.731,6.731,0,0,0,0-8.76,5.7,5.7,0,0,0-4.38-1.74,5.6,5.6,0,0,0-4.35,1.74,6.828,6.828,0,0,0,0,8.76A5.6,5.6,0,0,0,201.5,50.22ZM15.86,79.88a4.045,4.045,0,0,0-2.38.66q-.94.66-.94,2.74v3.28h5.2v2.92h-5.2V105H9.06V89.48H5.14V86.56H9.06v-3.2q0-3.8,1.84-5.2a6.524,6.524,0,0,1,4.04-1.4,7.79,7.79,0,0,1,2.8.4v3A7.3,7.3,0,0,0,15.86,79.88Zm6.28,6.68h3.48v4.2a5.611,5.611,0,0,1,2.04-3.34,5.471,5.471,0,0,1,3.36-1.14,6.849,6.849,0,0,1,1.68.16v3.2a9.346,9.346,0,0,0-1.72-.12A4.487,4.487,0,0,0,27,91.6a9.442,9.442,0,0,0-1.38,5.32V105H22.14Zm22.8,18.92a9.888,9.888,0,0,1-5.1-1.28,8.612,8.612,0,0,1-3.34-3.5,11.014,11.014,0,0,1,0-9.84,8.612,8.612,0,0,1,3.34-3.5,9.888,9.888,0,0,1,5.1-1.28,9.78,9.78,0,0,1,5.08,1.28,8.788,8.788,0,0,1,3.34,3.5,10.275,10.275,0,0,1,1.18,4.9,10.5,10.5,0,0,1-1.16,4.94,8.612,8.612,0,0,1-3.34,3.5A9.888,9.888,0,0,1,44.94,105.48Zm0-3.12a5.666,5.666,0,0,0,4.48-1.86,7.612,7.612,0,0,0,0-9.44,5.666,5.666,0,0,0-4.48-1.86,5.727,5.727,0,0,0-4.5,1.86,7.54,7.54,0,0,0,0,9.44A5.727,5.727,0,0,0,44.94,102.36Zm14.92-15.8h3.48v3.36a5.719,5.719,0,0,1,2-2.74,5.628,5.628,0,0,1,3.52-1.1,6.63,6.63,0,0,1,3.86,1.04,5.253,5.253,0,0,1,2.06,2.92,5.952,5.952,0,0,1,2.24-2.84,6.258,6.258,0,0,1,3.68-1.12q3.52,0,5.08,1.96a8.244,8.244,0,0,1,1.56,5.28V105H83.86V94q0-4.92-4-4.92a3.974,3.974,0,0,0-3.32,1.54,7.756,7.756,0,0,0-1.2,4.78V105H71.86V94.24a6.012,6.012,0,0,0-1.04-3.98,3.687,3.687,0,0,0-2.92-1.18,3.977,3.977,0,0,0-3.36,1.58,7.783,7.783,0,0,0-1.2,4.74V105H59.86Zm52.72,15.52a10.844,10.844,0,0,0,2.32-.2v3.08a13.936,13.936,0,0,1-3.08.28,6.579,6.579,0,0,1-4.04-1.22q-1.64-1.22-1.64-5.14v-9.4h-3.32V86.56h3.32V80.72h3.48v5.84h4.64v2.92h-4.64v8.64a6.887,6.887,0,0,0,.36,2.54,2.021,2.021,0,0,0,.98,1.14A3.972,3.972,0,0,0,112.58,102.08Zm17.28-16A6.586,6.586,0,0,1,135,88a8.138,8.138,0,0,1,1.74,5.64V105h-3.48V95.16a7.741,7.741,0,0,0-1.1-4.6,4.12,4.12,0,0,0-3.54-1.48,4.7,4.7,0,0,0-3.86,1.64,6.946,6.946,0,0,0-1.34,4.52V105h-3.48V77h3.48V89.96a6.057,6.057,0,0,1,2.42-2.84A7.423,7.423,0,0,1,129.86,86.08Zm29.84,8.64q0,.76-.12,2.08H145.3a5.6,5.6,0,0,0,1.6,4.14,5.805,5.805,0,0,0,4.2,1.5,6.217,6.217,0,0,0,3.06-.7,4.07,4.07,0,0,0,1.82-2.02h3.48a6.351,6.351,0,0,1-2.8,4.16,9.551,9.551,0,0,1-5.56,1.6,8.877,8.877,0,0,1-6.74-2.62,9.859,9.859,0,0,1-2.5-7.1,11.017,11.017,0,0,1,1.12-5.1,8.109,8.109,0,0,1,3.18-3.38,10.1,10.1,0,0,1,9.36-.1,7.814,7.814,0,0,1,3.08,3.06A9,9,0,0,1,159.7,94.72Zm-3.44-.6a5.147,5.147,0,0,0-1.42-3.84,5.369,5.369,0,0,0-3.94-1.4,5.506,5.506,0,0,0-3.98,1.44,5.431,5.431,0,0,0-1.62,3.8Zm29.88-8.04a8.864,8.864,0,0,1,4.64,1.22,8.225,8.225,0,0,1,3.16,3.44,11.08,11.08,0,0,1,1.12,5.06,10.557,10.557,0,0,1-1.16,5,8.574,8.574,0,0,1-3.24,3.44,9.039,9.039,0,0,1-4.72,1.24,7.827,7.827,0,0,1-3.9-1,6.452,6.452,0,0,1-2.66-2.72v11.76H175.9V86.56h3.48V89.8a6.4,6.4,0,0,1,2.7-2.72A8.29,8.29,0,0,1,186.14,86.08Zm-.68,16.28a5.756,5.756,0,0,0,4.4-1.84,6.636,6.636,0,0,0,1.72-4.72,7.337,7.337,0,0,0-.78-3.4,5.743,5.743,0,0,0-2.18-2.36,6.022,6.022,0,0,0-3.16-.84,5.915,5.915,0,0,0-4.5,1.84,7.326,7.326,0,0,0,0,9.48A5.915,5.915,0,0,0,185.46,102.36Zm14.88-15.8h3.48v4.2a5.611,5.611,0,0,1,2.04-3.34,5.471,5.471,0,0,1,3.36-1.14,6.849,6.849,0,0,1,1.68.16v3.2a9.346,9.346,0,0,0-1.72-.12,4.487,4.487,0,0,0-3.98,2.08,9.442,9.442,0,0,0-1.38,5.32V105h-3.48Zm22.8,18.92a9.888,9.888,0,0,1-5.1-1.28,8.612,8.612,0,0,1-3.34-3.5,11.014,11.014,0,0,1,0-9.84,8.612,8.612,0,0,1,3.34-3.5,9.888,9.888,0,0,1,5.1-1.28,9.78,9.78,0,0,1,5.08,1.28,8.788,8.788,0,0,1,3.34,3.5,10.275,10.275,0,0,1,1.18,4.9,10.5,10.5,0,0,1-1.16,4.94,8.612,8.612,0,0,1-3.34,3.5A9.888,9.888,0,0,1,223.14,105.48Zm0-3.12a5.666,5.666,0,0,0,4.48-1.86,7.612,7.612,0,0,0,0-9.44,5.666,5.666,0,0,0-4.48-1.86,5.728,5.728,0,0,0-4.5,1.86,7.54,7.54,0,0,0,0,9.44A5.728,5.728,0,0,0,223.14,102.36Zm13.36,11.4a5.731,5.731,0,0,1-2.56-.44v-3.16a5.479,5.479,0,0,0,1.88.28q2.04,0,2.04-2.48V86.56h3.48v22.36a4.39,4.39,0,0,1-4.84,4.84Zm3.12-30.36a2.763,2.763,0,0,1-2.04-.8,2.714,2.714,0,0,1-.8-2,2.781,2.781,0,0,1,.8-2.02,2.727,2.727,0,0,1,2.04-.82,2.679,2.679,0,0,1,2,.82,2.781,2.781,0,0,1,.8,2.02,2.734,2.734,0,0,1-2.8,2.8ZM264.5,94.72q0,.76-.12,2.08H250.1a5.6,5.6,0,0,0,1.6,4.14,5.805,5.805,0,0,0,4.2,1.5,6.217,6.217,0,0,0,3.06-.7,4.07,4.07,0,0,0,1.82-2.02h3.48a6.351,6.351,0,0,1-2.8,4.16,9.551,9.551,0,0,1-5.56,1.6,8.877,8.877,0,0,1-6.74-2.62,9.859,9.859,0,0,1-2.5-7.1,11.017,11.017,0,0,1,1.12-5.1,8.109,8.109,0,0,1,3.18-3.38,10.1,10.1,0,0,1,9.36-.1,7.815,7.815,0,0,1,3.08,3.06A9,9,0,0,1,264.5,94.72Zm-3.44-.6a5.147,5.147,0,0,0-1.42-3.84,5.369,5.369,0,0,0-3.94-1.4,5.506,5.506,0,0,0-3.98,1.44,5.431,5.431,0,0,0-1.62,3.8Zm16.64,11.36a9.362,9.362,0,0,1-4.86-1.22,8.212,8.212,0,0,1-3.18-3.42,11.9,11.9,0,0,1,0-10.08,8.212,8.212,0,0,1,3.18-3.42,9.362,9.362,0,0,1,4.86-1.22,9.2,9.2,0,0,1,6,1.86,7.088,7.088,0,0,1,2.6,4.98h-3.48a4.283,4.283,0,0,0-1.66-2.78,5.781,5.781,0,0,0-3.46-.94,5.285,5.285,0,0,0-4.2,1.74,8.4,8.4,0,0,0,0,9.64,5.285,5.285,0,0,0,4.2,1.74,5.874,5.874,0,0,0,3.46-.92,4.153,4.153,0,0,0,1.66-2.68h3.48a6.914,6.914,0,0,1-2.6,4.9A9.332,9.332,0,0,1,277.7,105.48Zm21.48-3.4a10.844,10.844,0,0,0,2.32-.2v3.08a13.936,13.936,0,0,1-3.08.28,6.579,6.579,0,0,1-4.04-1.22q-1.64-1.22-1.64-5.14v-9.4h-3.32V86.56h3.32V80.72h3.48v5.84h4.64v2.92h-4.64v8.64a6.887,6.887,0,0,0,.36,2.54,2.022,2.022,0,0,0,.98,1.14A3.972,3.972,0,0,0,299.18,102.08Z" transform="translate(238 306)"/>
    <path id="Path_762" data-name="Path 762" d="M113.15,21.48H95.27V13.2h31.92L107.21,54H96.41ZM144.53,54.9q-8.34,0-12.69-5.46T127.49,33.6q0-10.38,4.35-15.84t12.69-5.46q8.34,0,12.69,5.46t4.35,15.84q0,10.38-4.35,15.84T144.53,54.9Zm0-7.8a6.348,6.348,0,0,0,5.88-3.3q1.92-3.3,1.92-10.2t-1.92-10.2a6.889,6.889,0,0,0-11.76,0q-1.92,3.3-1.92,10.2t1.92,10.2A6.348,6.348,0,0,0,144.53,47.1Zm28.38,5.52,28.44-41.04,4.5,2.64L177.47,55.26Zm4.32-19.44a11.507,11.507,0,0,1-5.82-1.41,9.936,9.936,0,0,1-3.78-3.72,10.4,10.4,0,0,1,0-10.14,9.936,9.936,0,0,1,3.78-3.72,11.507,11.507,0,0,1,5.82-1.41,11.675,11.675,0,0,1,5.85,1.41,9.881,9.881,0,0,1,3.81,3.72,10.4,10.4,0,0,1,0,10.14,9.881,9.881,0,0,1-3.81,3.72A11.675,11.675,0,0,1,177.23,33.18Zm0-5.52a4.31,4.31,0,0,0,3.36-1.32,4.8,4.8,0,0,0,1.2-3.36,4.914,4.914,0,0,0-1.2-3.39,4.856,4.856,0,0,0-6.72,0,4.914,4.914,0,0,0-1.2,3.39,4.8,4.8,0,0,0,1.2,3.36A4.31,4.31,0,0,0,177.23,27.66Zm24.24,26.76a11.507,11.507,0,0,1-5.82-1.41,9.936,9.936,0,0,1-3.78-3.72,10.4,10.4,0,0,1,0-10.14,9.936,9.936,0,0,1,3.78-3.72,11.507,11.507,0,0,1,5.82-1.41,11.675,11.675,0,0,1,5.85,1.41,9.881,9.881,0,0,1,3.81,3.72,10.4,10.4,0,0,1,0,10.14,9.881,9.881,0,0,1-3.81,3.72A11.675,11.675,0,0,1,201.47,54.42Zm0-5.52a4.31,4.31,0,0,0,3.36-1.32,4.8,4.8,0,0,0,1.2-3.36,4.914,4.914,0,0,0-1.2-3.39,4.856,4.856,0,0,0-6.72,0,4.914,4.914,0,0,0-1.2,3.39,4.8,4.8,0,0,0,1.2,3.36A4.31,4.31,0,0,0,201.47,48.9ZM40.86,81.32a3.687,3.687,0,0,0-2.02.5,2.135,2.135,0,0,0-.78,1.94v1.96h4.48v4.84H38.06V105H31.94V90.56H28.5V85.72h3.44V83.84q0-3.96,2.14-5.58a7.962,7.962,0,0,1,4.94-1.62,11.927,11.927,0,0,1,3.52.44v4.36q-.36-.04-.76-.08T40.86,81.32Zm5.52,4.4H52.5v4.04a5.4,5.4,0,0,1,5.32-4.36,6.731,6.731,0,0,1,1.6.16v5.68a17.064,17.064,0,0,0-1.84-.12,4.679,4.679,0,0,0-3.72,1.56,7.3,7.3,0,0,0-1.36,4.88V105H46.38Zm26.2,19.88a11.756,11.756,0,0,1-5.68-1.32,9.2,9.2,0,0,1-3.74-3.64,10.615,10.615,0,0,1-1.3-5.28,10.5,10.5,0,0,1,1.3-5.26,9.234,9.234,0,0,1,3.74-3.62,12.838,12.838,0,0,1,11.34,0,9.227,9.227,0,0,1,3.72,3.64,11.291,11.291,0,0,1,0,10.52,9.227,9.227,0,0,1-3.72,3.64A11.639,11.639,0,0,1,72.58,105.6Zm0-5.2A4.261,4.261,0,0,0,75.94,99a5.963,5.963,0,0,0,0-7.28,4.756,4.756,0,0,0-6.74,0,6.04,6.04,0,0,0,0,7.28A4.247,4.247,0,0,0,72.58,100.4Zm15-14.68H93.7v2.8a5.279,5.279,0,0,1,2.1-2.4,6.279,6.279,0,0,1,3.42-.92q4.56,0,6.04,3.56a6.212,6.212,0,0,1,2.44-2.58,7.111,7.111,0,0,1,3.72-.98q6.84,0,6.84,7.84V105H112.1V94.16a4.667,4.667,0,0,0-.72-2.88,2.574,2.574,0,0,0-2.16-.92,2.883,2.883,0,0,0-2.4,1.06,6.03,6.03,0,0,0-.84,3.66V105H99.82V94.12a4.673,4.673,0,0,0-.7-2.86,2.542,2.542,0,0,0-2.14-.9,2.928,2.928,0,0,0-2.44,1.06,6.03,6.03,0,0,0-.84,3.66V105H87.58Zm55.64,19.88a11.2,11.2,0,0,1-5.46-1.28,8.833,8.833,0,0,1-3.6-3.6,11.054,11.054,0,0,1-1.26-5.36,10.938,10.938,0,0,1,1.26-5.34,8.866,8.866,0,0,1,3.6-3.58,11.2,11.2,0,0,1,5.46-1.28,10.884,10.884,0,0,1,6.96,2.12,8.024,8.024,0,0,1,3.04,5.76H147.1A3.351,3.351,0,0,0,145.84,91a4.326,4.326,0,0,0-2.58-.68,3.87,3.87,0,0,0-3.12,1.32,6.738,6.738,0,0,0,0,7.44,3.87,3.87,0,0,0,3.12,1.32,4.531,4.531,0,0,0,2.58-.64,3.136,3.136,0,0,0,1.26-1.92h6.12a7.887,7.887,0,0,1-3.04,5.66A10.955,10.955,0,0,1,143.22,105.6ZM169.9,85.2q7.04,0,7.04,7.88V105h-6.16V95.08a6.436,6.436,0,0,0-.78-3.6,2.965,2.965,0,0,0-2.62-1.12,3.367,3.367,0,0,0-2.78,1.16,5.3,5.3,0,0,0-.94,3.4V105h-6.12V77h6.12V88.52a5.792,5.792,0,0,1,2.44-2.46A7.917,7.917,0,0,1,169.9,85.2Zm20.4,20.32a8.812,8.812,0,0,1-4.86-1.32,8.477,8.477,0,0,1-3.14-3.62,12.14,12.14,0,0,1-1.08-5.22,11.807,11.807,0,0,1,1.12-5.2,8.629,8.629,0,0,1,3.22-3.64,8.865,8.865,0,0,1,4.82-1.32,7.427,7.427,0,0,1,3.64.88,5.783,5.783,0,0,1,2.4,2.4V85.72h6.08V105h-6.08v-2.72a5.973,5.973,0,0,1-2.46,2.34A7.554,7.554,0,0,1,190.3,105.52Zm1.76-5.08a4.179,4.179,0,0,0,3.4-1.44,5.494,5.494,0,0,0,1.2-3.64,5.433,5.433,0,0,0-1.2-3.6,4.179,4.179,0,0,0-3.4-1.44,4.276,4.276,0,0,0-3.34,1.4,5.234,5.234,0,0,0-1.26,3.64,5.309,5.309,0,0,0,1.26,3.66A4.247,4.247,0,0,0,192.06,100.44Zm16.32-14.72h6.12v2.8a5.792,5.792,0,0,1,2.44-2.46,7.917,7.917,0,0,1,3.8-.86q7.04,0,7.04,7.88V105h-6.16V95.08a6.436,6.436,0,0,0-.78-3.6,2.965,2.965,0,0,0-2.62-1.12,3.367,3.367,0,0,0-2.78,1.16,5.3,5.3,0,0,0-.94,3.4V105h-6.12Zm45,0v17.96a11.547,11.547,0,0,1-.96,4.88,8.025,8.025,0,0,1-2.76,3.32,11.817,11.817,0,0,1-6.88,1.72,13.457,13.457,0,0,1-6.96-1.56,7.928,7.928,0,0,1-2.44-2.36,5.6,5.6,0,0,1-1-3h6.24a2.557,2.557,0,0,0,1.22,1.8,5.379,5.379,0,0,0,2.86.64,4.032,4.032,0,0,0,4.56-4.68v-2.56a5.274,5.274,0,0,1-2.42,2.26,7.91,7.91,0,0,1-3.62.86,9.235,9.235,0,0,1-4.88-1.26,8.25,8.25,0,0,1-3.18-3.5,11.375,11.375,0,0,1-1.1-5.08,11.006,11.006,0,0,1,1.16-5.1,8.851,8.851,0,0,1,3.26-3.56,8.968,8.968,0,0,1,4.82-1.3,7.327,7.327,0,0,1,3.62.9,5.439,5.439,0,0,1,2.34,2.38V85.72ZM242.9,100.28a4.265,4.265,0,0,0,3.38-1.44,5.773,5.773,0,0,0,0-7.2,4.265,4.265,0,0,0-3.38-1.44,4.2,4.2,0,0,0-3.3,1.42,5.83,5.83,0,0,0,0,7.24A4.2,4.2,0,0,0,242.9,100.28Zm35.28-5.92a25.145,25.145,0,0,1-.16,2.68H263.78a3.891,3.891,0,0,0,1.28,2.92A4.777,4.777,0,0,0,268.3,101q2.84,0,3.6-1.8h6a6.266,6.266,0,0,1-1.6,3.34,8.7,8.7,0,0,1-3.4,2.26,12.718,12.718,0,0,1-4.6.8,10.754,10.754,0,0,1-7.76-2.72,9.92,9.92,0,0,1-2.84-7.52,10.97,10.97,0,0,1,1.28-5.42,8.71,8.71,0,0,1,3.64-3.54,12.619,12.619,0,0,1,10.74-.08,8.521,8.521,0,0,1,3.56,3.26A9.109,9.109,0,0,1,278.18,94.36Zm-6.04-1.12a4.133,4.133,0,0,0-1.08-2.96,4.061,4.061,0,0,0-3-1.04,4.276,4.276,0,0,0-3.1,1.1,3.976,3.976,0,0,0-1.18,2.9ZM25.36,123h7.52l7.44,19.88L47.76,123h7.36v28h-6.2V132.84L42.72,151h-4.8l-6.36-18.28V151h-6.2Zm43.48,28.52a8.812,8.812,0,0,1-4.86-1.32,8.477,8.477,0,0,1-3.14-3.62,12.14,12.14,0,0,1-1.08-5.22,11.807,11.807,0,0,1,1.12-5.2,8.629,8.629,0,0,1,3.22-3.64,8.865,8.865,0,0,1,4.82-1.32,7.427,7.427,0,0,1,3.64.88,5.782,5.782,0,0,1,2.4,2.4v-2.76h6.08V151H74.96v-2.72a5.973,5.973,0,0,1-2.46,2.34A7.554,7.554,0,0,1,68.84,151.52Zm1.76-5.08A4.179,4.179,0,0,0,74,145a5.494,5.494,0,0,0,1.2-3.64,5.433,5.433,0,0,0-1.2-3.6,4.179,4.179,0,0,0-3.4-1.44,4.276,4.276,0,0,0-3.34,1.4A5.234,5.234,0,0,0,66,141.36a5.309,5.309,0,0,0,1.26,3.66A4.247,4.247,0,0,0,70.6,146.44Zm16.32-14.72h6.12v2.8a5.792,5.792,0,0,1,2.44-2.46,7.917,7.917,0,0,1,3.8-.86q7.04,0,7.04,7.88V151h-6.16v-9.92a6.436,6.436,0,0,0-.78-3.6,2.966,2.966,0,0,0-2.62-1.12,3.367,3.367,0,0,0-2.78,1.16,5.3,5.3,0,0,0-.94,3.4V151H86.92Zm32.76,19.8a8.812,8.812,0,0,1-4.86-1.32,8.477,8.477,0,0,1-3.14-3.62,12.14,12.14,0,0,1-1.08-5.22,11.807,11.807,0,0,1,1.12-5.2,8.629,8.629,0,0,1,3.22-3.64,8.865,8.865,0,0,1,4.82-1.32,7.427,7.427,0,0,1,3.64.88,5.782,5.782,0,0,1,2.4,2.4v-2.76h6.08V151H125.8v-2.72a5.973,5.973,0,0,1-2.46,2.34A7.554,7.554,0,0,1,119.68,151.52Zm1.76-5.08a4.179,4.179,0,0,0,3.4-1.44,5.494,5.494,0,0,0,1.2-3.64,5.433,5.433,0,0,0-1.2-3.6,4.179,4.179,0,0,0-3.4-1.44,4.276,4.276,0,0,0-3.34,1.4,5.234,5.234,0,0,0-1.26,3.64,5.309,5.309,0,0,0,1.26,3.66A4.247,4.247,0,0,0,121.44,146.44Zm36.24-14.72v17.96a11.547,11.547,0,0,1-.96,4.88,8.025,8.025,0,0,1-2.76,3.32,11.817,11.817,0,0,1-6.88,1.72,13.456,13.456,0,0,1-6.96-1.56,7.927,7.927,0,0,1-2.44-2.36,5.6,5.6,0,0,1-1-3h6.24a2.557,2.557,0,0,0,1.22,1.8,5.379,5.379,0,0,0,2.86.64,4.032,4.032,0,0,0,4.56-4.68v-2.56a5.274,5.274,0,0,1-2.42,2.26,7.91,7.91,0,0,1-3.62.86,9.235,9.235,0,0,1-4.88-1.26,8.25,8.25,0,0,1-3.18-3.5,11.375,11.375,0,0,1-1.1-5.08,11.006,11.006,0,0,1,1.16-5.1,8.851,8.851,0,0,1,3.26-3.56,8.968,8.968,0,0,1,4.82-1.3,7.327,7.327,0,0,1,3.62.9,5.438,5.438,0,0,1,2.34,2.38v-2.76ZM147.2,146.28a4.265,4.265,0,0,0,3.38-1.44,5.773,5.773,0,0,0,0-7.2,4.265,4.265,0,0,0-3.38-1.44,4.2,4.2,0,0,0-3.3,1.42,5.83,5.83,0,0,0,0,7.24A4.2,4.2,0,0,0,147.2,146.28Zm35.28-5.92a25.144,25.144,0,0,1-.16,2.68H168.08a3.891,3.891,0,0,0,1.28,2.92A4.777,4.777,0,0,0,172.6,147q2.84,0,3.6-1.8h6a6.266,6.266,0,0,1-1.6,3.34,8.7,8.7,0,0,1-3.4,2.26,12.717,12.717,0,0,1-4.6.8,10.753,10.753,0,0,1-7.76-2.72,9.92,9.92,0,0,1-2.84-7.52,10.97,10.97,0,0,1,1.28-5.42,8.71,8.71,0,0,1,3.64-3.54,12.619,12.619,0,0,1,10.74-.08,8.521,8.521,0,0,1,3.56,3.26A9.109,9.109,0,0,1,182.48,140.36Zm-6.04-1.12a4.133,4.133,0,0,0-1.08-2.96,4.061,4.061,0,0,0-3-1.04,4.276,4.276,0,0,0-3.1,1.1,3.976,3.976,0,0,0-1.18,2.9Zm10.36-7.52h6.12v2.8a5.279,5.279,0,0,1,2.1-2.4,6.279,6.279,0,0,1,3.42-.92q4.56,0,6.04,3.56a6.212,6.212,0,0,1,2.44-2.58,7.111,7.111,0,0,1,3.72-.98q6.84,0,6.84,7.84V151h-6.16V140.16a4.667,4.667,0,0,0-.72-2.88,2.574,2.574,0,0,0-2.16-.92,2.883,2.883,0,0,0-2.4,1.06,6.03,6.03,0,0,0-.84,3.66V151h-6.16V140.12a4.673,4.673,0,0,0-.7-2.86,2.542,2.542,0,0,0-2.14-.9,2.928,2.928,0,0,0-2.44,1.06,6.03,6.03,0,0,0-.84,3.66V151H186.8Zm55.28,8.64a25.144,25.144,0,0,1-.16,2.68H227.68a3.891,3.891,0,0,0,1.28,2.92A4.777,4.777,0,0,0,232.2,147q2.84,0,3.6-1.8h6a6.266,6.266,0,0,1-1.6,3.34,8.7,8.7,0,0,1-3.4,2.26,12.717,12.717,0,0,1-4.6.8,10.753,10.753,0,0,1-7.76-2.72,9.92,9.92,0,0,1-2.84-7.52,10.97,10.97,0,0,1,1.28-5.42,8.71,8.71,0,0,1,3.64-3.54,12.619,12.619,0,0,1,10.74-.08,8.521,8.521,0,0,1,3.56,3.26A9.109,9.109,0,0,1,242.08,140.36Zm-6.04-1.12a4.133,4.133,0,0,0-1.08-2.96,4.061,4.061,0,0,0-3-1.04,4.276,4.276,0,0,0-3.1,1.1,3.976,3.976,0,0,0-1.18,2.9Zm10.36-7.52h6.12v2.8a5.792,5.792,0,0,1,2.44-2.46,7.917,7.917,0,0,1,3.8-.86q7.04,0,7.04,7.88V151h-6.16v-9.92a6.436,6.436,0,0,0-.78-3.6,2.966,2.966,0,0,0-2.62-1.12,3.367,3.367,0,0,0-2.78,1.16,5.3,5.3,0,0,0-.94,3.4V151H246.4Zm34.84,14.52a15.439,15.439,0,0,0,2.12-.12V151a23.03,23.03,0,0,1-4.08.32,8.182,8.182,0,0,1-4.88-1.4q-1.96-1.4-1.96-5.68v-7.68H269.4v-4.84h3.04V126h6.12v5.72h4.36v4.84h-4.36v6.4a3.7,3.7,0,0,0,.68,2.62A2.762,2.762,0,0,0,281.24,146.24Z" transform="translate(939 283)"/>
  </g>
</svg>
