<svg xmlns="http://www.w3.org/2000/svg" xmlns:xlink="http://www.w3.org/1999/xlink" width="484" height="257" viewBox="0 0 484 257">
  <defs>
    <clipPath id="clip-purple_illustration">
      <rect width="484" height="257"/>
    </clipPath>
  </defs>
  <g id="purple_illustration" clip-path="url(#clip-purple_illustration)">
    <g id="dxc_icons" transform="translate(-5.5 83.5)">
      <g id="dot_1_" transform="translate(5 -38)">
        <path id="Path_737" data-name="Path 737" d="M154.3,82.9a10.1,10.1,0,1,1,10.1,9.9,9.967,9.967,0,0,1-10.1-9.9" fill="#7f3f98"/>
        <path id="dot-ring_1_" d="M164.4,70.4A12.4,12.4,0,1,0,177,82.8a12.506,12.506,0,0,0-12.6-12.4m0,25.4a12.9,12.9,0,1,1,13.1-12.9,13.039,13.039,0,0,1-13.1,12.9" fill="#7f3f98"/>
      </g>
      <g id="dot" transform="translate(-6 -38)">
        <path id="Path_738" data-name="Path 738" d="M320.9,82.9A10.1,10.1,0,1,1,331,92.8a9.967,9.967,0,0,1-10.1-9.9" fill="#7f3f98"/>
        <path id="dot-ring" d="M331,70.4a12.451,12.451,0,1,0,12.6,12.5A12.656,12.656,0,0,0,331,70.4m0,25.4a12.9,12.9,0,1,1,13.1-12.9A13.039,13.039,0,0,1,331,95.8" fill="#7f3f98"/>
      </g>
      <g id="service" transform="translate(-11 -10)">
        <path id="Path_739" data-name="Path 739" d="M347.1,79.8c0-36.2,29.8-65.5,66.5-65.5,36.8,0,66.6,29.3,66.6,65.5s-29.8,65.5-66.6,65.5c-36.7,0-66.5-29.3-66.5-65.5" fill="#7f3f98"/>
        <path id="Path_740" data-name="Path 740" d="M333.1,76.8C334.7,35.1,369,1.6,411.6.5m82.6,77.3C493.1,35.9,459.1,2.1,416.7.6m-1,158.5c42.5-1,76.9-34.5,78.5-76.2M333.1,81.8c1.1,41.9,35.1,75.7,77.5,77.2M333.1,79.8v1m79.5,78.3h2m79.6-78.3v-2M414.7.5h-2M333.1,78.8v1" fill="none" stroke="#7f3f98" stroke-linecap="round" stroke-miterlimit="10" stroke-width="1" stroke-dasharray="2.025 2.025"/>
        <path id="Path_741" data-name="Path 741" d="M384.4,104.7h2a1.342,1.342,0,0,0,1.4,1.5c.7,0,1.1-.3,1.1-.9,0-.5-.3-.8-1-1.1l-1.5-.6a2.339,2.339,0,0,1-1.7-2.3c0-1.5,1.2-2.5,3-2.5,1.9,0,3.1,1.1,3.1,2.7h-2a1.061,1.061,0,0,0-1.2-1.2c-.6,0-1,.3-1,.8s.3.8,1.2,1.1l1.4.6a2.418,2.418,0,0,1,1.7,2.4c0,1.6-1.2,2.6-3.1,2.6C385.7,107.7,384.4,106.6,384.4,104.7Zm7.5-5.7h5.2v1.6h-3.2v1.9h3.2V104h-3.2v1.9h3.2v1.6h-5.2Zm11.7,5.8,1.5,2.7h-2.2l-1.3-2.4h-1v2.4h-2V99h3.6a3.093,3.093,0,0,1,1.4,5.8Zm-3.1-1.3h1.3a1.394,1.394,0,0,0,1.4-1.5,1.453,1.453,0,0,0-1.4-1.5h-1.3ZM405,99h2.1l1.8,6,1.8-6h2.1l-2.9,8.5h-2Zm8.4,0h2v8.5h-2Zm3.1,4.2a4.331,4.331,0,0,1,4.6-4.5c2.5,0,4.1,1.3,4.3,3.3h-2.1a2.023,2.023,0,0,0-2.2-1.6,2.708,2.708,0,0,0,0,5.4,2.023,2.023,0,0,0,2.2-1.6h2.1c-.2,2-1.8,3.3-4.3,3.3A4.037,4.037,0,0,1,416.5,103.2Zm9.9-4.2h5.2v1.6h-3.2v1.9h3.2V104h-3.2v1.9h3.2v1.6h-5.2Zm16.1,5.7H442c0,1.9-1.3,3-3.3,3-1.9,0-3.3-1-3.3-2.6A2.181,2.181,0,0,1,437,103a1.947,1.947,0,0,1-1.5-1.9c0-1.5,1.3-2.4,3.1-2.4,2.2,0,3.1,1.1,3.1,2.7h-2c0-.7-.3-1.3-1.1-1.3a1.028,1.028,0,0,0-1.1,1,1,1,0,0,0,1.1,1.1h.3v1.5h-.2a1.135,1.135,0,0,0-1.3,1.2,1.153,1.153,0,0,0,1.2,1.2c.7,0,1.3-.4,1.3-1.5h-.6v-1.5h3.1v1.6Zm-53.1,15.1v-5.6h2v5.5a1.5,1.5,0,1,0,3,0v-5.5h2v5.6c0,2-1.3,3.1-3.4,3.1S389.4,121.7,389.4,119.8Zm9.7-3.9h-2.3v-1.7h6.6v1.7h-2.3v6.8h-2v-6.8Zm5.1-1.8h2v8.5h-2Zm3.5,0h2v6.8h3.2v1.7h-5.1v-8.5Zm6.3,0h2v8.5h-2Zm5.1,1.8h-2.3v-1.7h6.6v1.7H421v6.8h-2v-6.8Zm5.1-1.8h2v8.5h-2Zm3.5,0h5.2v1.6h-3.2v1.9h3.2v1.5h-3.2V121h3.2v1.6h-5.2Zm6.1,5.8h2a1.342,1.342,0,0,0,1.4,1.5c.7,0,1.1-.3,1.1-.9,0-.5-.3-.8-1-1.1l-1.5-.6a2.339,2.339,0,0,1-1.7-2.3c0-1.5,1.2-2.5,3-2.5,1.9,0,3.1,1.1,3.1,2.7h-2a1.061,1.061,0,0,0-1.2-1.2c-.6,0-1,.3-1,.8s.3.8,1.2,1.1l1.4.6a2.418,2.418,0,0,1,1.7,2.4c0,1.6-1.2,2.6-3.1,2.6C435,122.9,433.8,121.8,433.8,119.9Z" fill="#fff"/>
        <path id="Path_742" data-name="Path 742" d="M414.7,72v1.9H391.9V68.6a2.609,2.609,0,0,1,1.1-2.1l.2-.1a17.414,17.414,0,0,0,18.5.9l.4.4a5.049,5.049,0,0,0,1.5,3.4Zm4.7-18.4a5.386,5.386,0,0,0,4.7-6.1c-.5-2.9-3.5-4.8-6.6-4.4a6.3,6.3,0,0,0-2.4.9,14.213,14.213,0,0,1,4.3,9.6m9.4,4.6a13.59,13.59,0,0,0-5.6-2.5,15.869,15.869,0,0,0-3.7-.6,14.7,14.7,0,0,1-2.4,7.2l.4.4a5.239,5.239,0,0,1,3.6,1.4l1.7,1.6H430V60.4a3.048,3.048,0,0,0-1.2-2.2M403.2,43.6a11.786,11.786,0,0,0-7.5,2.6,10.251,10.251,0,0,0-1.3,15.1,14.039,14.039,0,0,1,3.4-1.3,18.9,18.9,0,0,1,5.3-.8,19.461,19.461,0,0,1,5.3.8,22.852,22.852,0,0,1,3.7,1.2,10.012,10.012,0,0,0,2.7-6.9c-.1-5.9-5.2-10.7-11.6-10.7m22.5,27.3.2.2a2.971,2.971,0,0,1-.1,4.4,3.652,3.652,0,0,1-4.8-.1l-6-5.6a3.034,3.034,0,0,1-.9-2.8l-2.2-2a15.651,15.651,0,0,1-8.9,2.8c-8-.1-14.4-6.1-14.4-13.6,0-7.4,6.4-13.5,14.4-13.4s14.5,6.1,14.4,13.6a12.582,12.582,0,0,1-3,8.2l2.2,1.9a3.57,3.57,0,0,1,3,.8l6.1,5.6M409.4,52a6.413,6.413,0,1,0-6.4,6c3.6-.1,6.4-2.7,6.4-6m-22.6,3.1a20.209,20.209,0,0,0-3.4.6,18.832,18.832,0,0,0-5.6,2.5,2.366,2.366,0,0,0-1.1,2.1v5.3h13.7a4.3,4.3,0,0,1,1-.9,14.121,14.121,0,0,1-4.6-9.6m0-1.6a14.793,14.793,0,0,1,4.4-9.6,5.843,5.843,0,0,0-7.9,1.5,5.039,5.039,0,0,0,1.6,7.4,10.663,10.663,0,0,0,1.9.7m66.1,16.1h-8.4l5.2-16.1H437.3l-4.1,22h8.4l-5.4,18.2Z" fill="#fff"/>
      </g>
      <g id="manufact" transform="translate(0 -60)">
        <path id="Path_743" data-name="Path 743" d="M180.5,79.8c0-36.2,29.8-65.5,66.5-65.5,36.8,0,66.6,29.3,66.6,65.5s-29.8,65.5-66.6,65.5c-36.7,0-66.5-29.3-66.5-65.5" fill="#7f3f98"/>
        <path id="icon-ring" d="M166.5,76.8C168.1,35,202.5,1.6,245,.5m82.6,77.3C326.5,35.9,292.5,2.1,250.1.6m-1,158.5c42.5-1,76.9-34.5,78.5-76.2M166.5,81.8c1.1,41.9,35.1,75.7,77.5,77.2M166.5,79.8v1M246,159.1h2m79.6-78.3v-2M248.1.5h-2M166.5,78.8v1" fill="none" stroke="#7f3f98" stroke-linecap="round" stroke-miterlimit="10" stroke-width="1" stroke-dasharray="2.025 2.025"/>
        <path id="Path_744" data-name="Path 744" d="M197.1,89.7h2.3l2.3,6,2.3-6h2.2v8.5h-1.9V92.7l-1.9,5.5h-1.5L199,92.6v5.6h-1.9V89.7Zm15.3,7.5h-3l-.3,1H207l2.9-8.5h2l2.9,8.5h-2.1Zm-.5-1.5-1.1-3.8-1.1,3.8Zm3.7-6h2l3,5.5V89.7h1.9v8.5h-2l-3-5.5v5.5h-1.9Zm8.2,5.7V89.8h2v5.5a1.5,1.5,0,0,0,3,0V89.8h2v5.6c0,2-1.3,3.1-3.4,3.1C225.1,98.5,223.8,97.3,223.8,95.4Zm8.2-5.7h5.2v1.7H234v2.3h3.2v1.6H234v2.9h-2Zm10.4,7.5h-3l-.3,1H237l2.9-8.5h2l2.9,8.5h-2.1Zm-.5-1.5-1.1-3.8-1.1,3.8Zm2.7-1.7a4.331,4.331,0,0,1,4.6-4.5c2.5,0,4.1,1.3,4.3,3.3h-2.1a2.023,2.023,0,0,0-2.2-1.6,2.708,2.708,0,0,0,0,5.4,2.023,2.023,0,0,0,2.2-1.6h2.1c-.2,2-1.8,3.3-4.3,3.3A4.081,4.081,0,0,1,244.6,94Zm11.1-2.5h-2.3V89.8H260v1.7h-2.3v6.8h-2V91.5Zm4.9,3.9V89.8h2v5.5a1.5,1.5,0,0,0,3,0V89.8h2v5.6c0,2-1.3,3.1-3.4,3.1S260.6,97.3,260.6,95.4Zm13.3.1,1.5,2.7h-2.2l-1.3-2.4h-1v2.4h-2V89.7h3.6a2.914,2.914,0,0,1,3,3.1A2.823,2.823,0,0,1,273.9,95.5Zm-3.1-1.2h1.3a1.5,1.5,0,0,0,0-3h-1.3Zm5.8-4.6h2v8.5h-2Zm3.5,0h2l3,5.5V89.7H287v8.5h-2l-3-5.5v5.5h-1.9Zm17.5,5.6h-.8c-.4,2-1.9,3.2-4.3,3.2a4.5,4.5,0,1,1,.1-9c2.3,0,3.9,1.2,4,2.9h-2.1a1.751,1.751,0,0,0-1.9-1.2A2.522,2.522,0,0,0,290,94a2.557,2.557,0,0,0,2.5,2.8,2.019,2.019,0,0,0,2.2-1.5h-1.5V93.8h4.3v1.5Zm-95,15.3H202c0,1.9-1.3,3-3.3,3-1.9,0-3.3-1-3.3-2.6a2.181,2.181,0,0,1,1.6-2.1,1.947,1.947,0,0,1-1.5-1.9c0-1.5,1.3-2.4,3.1-2.4,2.1,0,3.1,1.1,3.1,2.7h-2c0-.7-.3-1.3-1.1-1.3a1.028,1.028,0,0,0-1.1,1,1,1,0,0,0,1.1,1.1h.3v1.5h-.2a1.135,1.135,0,0,0-1.3,1.2,1.153,1.153,0,0,0,1.2,1.2c.7,0,1.3-.4,1.3-1.5h-.6V109h3.1v1.6Zm3.1-1.4a4.331,4.331,0,0,1,4.6-4.5c2.5,0,4.1,1.3,4.3,3.3h-2.1a2.023,2.023,0,0,0-2.2-1.6,2.708,2.708,0,0,0,0,5.4,2.023,2.023,0,0,0,2.2-1.6h2.1c-.2,2-1.8,3.3-4.3,3.3A4.081,4.081,0,0,1,205.7,109.2Zm9.4,0a4.358,4.358,0,0,1,4.5-4.5,4.3,4.3,0,0,1,4.5,4.5,4.5,4.5,0,1,1-9,0Zm7,0a2.469,2.469,0,0,0-2.5-2.7,2.522,2.522,0,0,0-2.5,2.7,2.469,2.469,0,0,0,2.5,2.7A2.522,2.522,0,0,0,222.1,109.2Zm3.1-4.3h2l3,5.5v-5.5h1.9v8.5h-2l-3-5.5v5.5h-1.9Zm7.8,5.7h2a1.342,1.342,0,0,0,1.4,1.5c.7,0,1.1-.3,1.1-.9,0-.5-.3-.8-1-1.1l-1.5-.6a2.339,2.339,0,0,1-1.7-2.3c0-1.5,1.2-2.5,3-2.5,1.9,0,3.1,1.1,3.1,2.7h-2a1.061,1.061,0,0,0-1.2-1.2c-.6,0-1,.3-1,.8s.3.8,1.2,1.1l1.4.6a2.418,2.418,0,0,1,1.7,2.4c0,1.6-1.2,2.6-3.1,2.6C234.3,113.7,233,112.5,233,110.6Zm8.6-3.9h-2.3V105h6.6v1.7h-2.3v6.8h-2Zm10.2,4,1.5,2.7h-2.2l-1.3-2.4h-1v2.4h-2v-8.5h3.6a3.093,3.093,0,0,1,1.4,5.8Zm-3.1-1.2H250a1.5,1.5,0,0,0,0-3h-1.3Zm5.6,1v-5.6h2v5.5a1.5,1.5,0,0,0,3,0v-5.5h2v5.6c0,2-1.3,3.1-3.4,3.1S254.3,112.5,254.3,110.5Zm7.7-1.3a4.331,4.331,0,0,1,4.6-4.5c2.5,0,4.1,1.3,4.3,3.3h-2.1a2.023,2.023,0,0,0-2.2-1.6,2.708,2.708,0,0,0,0,5.4,2.023,2.023,0,0,0,2.2-1.6h2.1c-.2,2-1.8,3.3-4.3,3.3A4.037,4.037,0,0,1,262,109.2Zm11.1-2.5h-2.3V105h6.6v1.7H275v6.8h-2v-6.8Zm5.1-1.8h2v8.5h-2Zm3,4.3a4.358,4.358,0,0,1,4.5-4.5,4.3,4.3,0,0,1,4.5,4.5,4.5,4.5,0,0,1-9,0Zm7,0a2.469,2.469,0,0,0-2.5-2.7,2.522,2.522,0,0,0-2.5,2.7,2.469,2.469,0,0,0,2.5,2.7A2.522,2.522,0,0,0,288.2,109.2Zm3.1-4.3h2l3,5.5v-5.5h1.9v8.5h-2l-3-5.5v5.5h-1.9Z" fill="#fff"/>
        <path id="Path_745" data-name="Path 745" d="M251.6,41.5a18.613,18.613,0,0,0-1-2.5l1-3-2.3-2.3-3,1a10.887,10.887,0,0,0-2.5-1l-1.4-2.8h-3.2l-1.4,2.8a18.612,18.612,0,0,0-2.5,1l-3-1L230,36l1,3a10.887,10.887,0,0,0-1,2.5l-2.8,1.4V46l2.8,1.4a18.613,18.613,0,0,0,1,2.5l-1,3,2.2,2.2,3-1a10.887,10.887,0,0,0,2.5,1l1.4,2.8h3.2l1.4-2.8a18.612,18.612,0,0,0,2.5-1l3,1,2.3-2.2-1-3a18.888,18.888,0,0,0,1.1-2.5l2.8-1.4V42.8Zm-10.8,7.7a4.717,4.717,0,0,1-4.8-4.7,4.781,4.781,0,0,1,4.8-4.7,4.717,4.717,0,0,1,4.8,4.7,4.848,4.848,0,0,1-4.8,4.7m-4.7,12.7,1-3-2.3-2.3-3,1a13.043,13.043,0,0,0-2.5-1l-1.4-2.8h-3.2l-1.4,2.8a18.612,18.612,0,0,0-2.5,1l-3-1-2.2,2.2,1,3a10.887,10.887,0,0,0-1,2.5l-2.8,1.4v3.2l2.8,1.4a18.613,18.613,0,0,0,1,2.5l-1,3,2.2,2.2,3-.9a10.887,10.887,0,0,0,2.5,1l1.4,2.8h3.2l1.4-2.8a18.612,18.612,0,0,0,2.5-1l3,1,2.2-2.3-1-2.9a10.887,10.887,0,0,0,1-2.5l2.8-1.4V65.8L237,64.4a5.813,5.813,0,0,0-.9-2.5m-9.8,10.2a4.717,4.717,0,0,1-4.8-4.7,4.781,4.781,0,0,1,4.8-4.7,4.717,4.717,0,0,1,4.8,4.7,4.781,4.781,0,0,1-4.8,4.7m42,2.3H250.4a3,3,0,1,0,0,6h17.9a2.971,2.971,0,0,0,3.1-3,2.915,2.915,0,0,0-3.1-3m-17.9,4.3a1.261,1.261,0,0,1-1.3-1.3,1.3,1.3,0,1,1,2.6,0,1.26,1.26,0,0,1-1.3,1.3m4.5,0a1.261,1.261,0,0,1-1.3-1.3,1.324,1.324,0,0,1,1.3-1.3,1.3,1.3,0,0,1,0,2.6m4.4,0a1.26,1.26,0,0,1-1.3-1.3,1.324,1.324,0,0,1,1.3-1.3,1.26,1.26,0,0,1,1.3,1.3c.1.8-.5,1.3-1.3,1.3m4.5,0a1.26,1.26,0,0,1-1.3-1.3,1.324,1.324,0,0,1,1.3-1.3,1.26,1.26,0,0,1,1.3,1.3c.1.8-.5,1.3-1.3,1.3m4.5,0a1.26,1.26,0,0,1-1.3-1.3,1.324,1.324,0,0,1,1.3-1.3,1.26,1.26,0,0,1,1.3,1.3c.1.8-.5,1.3-1.3,1.3m9.3-18.8L266.7,49.4a1.051,1.051,0,0,0-1.3,0l-17,16.5-.1.1h0v5.7a.9.9,0,0,0,.9.9h20.7a1.733,1.733,0,0,0,1.5-2L270.1,61a1.746,1.746,0,0,0-1.8-1.5h-6.5a1.774,1.774,0,0,0-1.8,1.7v4.4h-8.6l14.9-14.4,10,9.8-2,9.7a5.971,5.971,0,0,0,6.9-4.4,6.178,6.178,0,0,0-3.6-6.4m-16,1.4h6.5l.6,4.4h-7.1Z" fill="#fff"/>
      </g>
      <g id="retail" transform="translate(12 -10)">
        <path id="Path_746" data-name="Path 746" d="M14.5,79.8c0-36.2,29.8-65.5,66.5-65.5,36.8,0,66.6,29.3,66.6,65.5S117.8,145.3,81,145.3c-36.7,0-66.5-29.3-66.5-65.5" fill="#7f3f98"/>
        <path id="icon-ring_1_" d="M.6,76.8C2.2,35,36.5,1.6,79,.5m82.6,77.3C160.5,35.9,126.5,2.1,84.1.6m-1,158.5c42.5-1,76.9-34.5,78.5-76.2M.5,81.8C1.6,123.7,35.6,157.5,78,159M.5,79.8v1M80,159.1h2m79.6-78.3v-2M82.1.5h-2M.5,78.8v1" fill="none" stroke="#7f3f98" stroke-linecap="round" stroke-miterlimit="10" stroke-width="1" stroke-dasharray="2.025 2.025"/>
        <path id="Path_747" data-name="Path 747" d="M63.4,97l1.5,2.7H62.7l-1.3-2.4h-1v2.4h-2V91.2H62A3.093,3.093,0,0,1,63.4,97Zm-3.1-1.3h1.3A1.394,1.394,0,0,0,63,94.2a1.453,1.453,0,0,0-1.4-1.5H60.3Zm5.8-4.5h5.2v1.6H68.1v1.9h3.2v1.5H68.1v1.9h3.2v1.6H66.1Zm8.2,1.7H72V91.2h6.6v1.7H76.3v6.8h-2V92.9Zm9.1,5.8h-3l-.3,1H78l2.9-8.5h2l2.9,8.5H83.7Zm-.5-1.6-1.1-3.8-1.1,3.8Zm3.7-5.9h2v8.5h-2Zm3.5,0h2V98h3.2v1.7H90.2V91.2Zm15.7,5.7h-.5c0,1.9-1.3,3-3.3,3-1.9,0-3.3-1-3.3-2.6a2.181,2.181,0,0,1,1.6-2.1,1.947,1.947,0,0,1-1.5-1.9c0-1.5,1.3-2.4,3.1-2.4,2.1,0,3.1,1.1,3.1,2.7h-2c0-.7-.3-1.3-1.1-1.3a1.028,1.028,0,0,0-1.1,1,1,1,0,0,0,1.1,1.1h.3V96H102a1.135,1.135,0,0,0-1.3,1.2,1.153,1.153,0,0,0,1.2,1.2c.7,0,1.3-.4,1.3-1.5h-.6V95.4h3.1v1.5Zm-63.7,9.5h3.2a4.3,4.3,0,0,1,0,8.6H42.1Zm3,6.8a2.6,2.6,0,0,0,0-5.2H44v5.2Zm5.5-6.8h2v8.5h-2Zm3,5.7h2a1.342,1.342,0,0,0,1.4,1.5c.7,0,1.1-.3,1.1-.9,0-.5-.3-.8-1-1.1l-1.5-.6a2.339,2.339,0,0,1-1.7-2.3c0-1.5,1.2-2.5,3-2.5,1.9,0,3.1,1.1,3.1,2.7H58a1.061,1.061,0,0,0-1.2-1.2c-.6,0-1,.3-1,.8s.3.8,1.2,1.1l1.4.6a2.418,2.418,0,0,1,1.7,2.4c0,1.6-1.2,2.6-3.1,2.6C54.8,115.1,53.6,114,53.6,112.1Zm8.6-4H59.9v-1.7h6.6v1.7H64.2v6.8h-2v-6.8Zm10.1,4.1,1.5,2.7H71.6l-1.3-2.4h-1v2.4h-2v-8.5h3.6a3.093,3.093,0,0,1,1.4,5.8Zm-3.1-1.3h1.3a1.394,1.394,0,0,0,1.4-1.5,1.453,1.453,0,0,0-1.4-1.5H69.2Zm5.8-4.5h2v8.5H75Zm9.9,6.1c0,1.5-1,2.4-2.7,2.4H78.6v-8.5H82c1.7,0,2.7.8,2.7,2.2a1.722,1.722,0,0,1-1.6,1.9A1.907,1.907,0,0,1,84.9,112.5Zm-4.4-4.7v2.1h1.1c.8,0,1.2-.4,1.2-1s-.4-1-1.2-1H80.5Zm2.4,4.5c0-.6-.5-1-1.2-1H80.5v2.2h1.2Q82.9,113.35,82.9,112.3Zm2.9-.3v-5.6h2v5.5a1.5,1.5,0,0,0,3,0v-5.5h2V112c0,2-1.3,3.1-3.4,3.1C87.1,115.1,85.8,114,85.8,112Zm9.8-3.9H93.3v-1.7h6.6v1.7H97.6v6.8h-2v-6.8Zm5-1.7h2v8.5h-2Zm3,4.2a4.5,4.5,0,1,1,4.5,4.5A4.358,4.358,0,0,1,103.6,110.6Zm7.1,0a2.469,2.469,0,0,0-2.5-2.7,2.522,2.522,0,0,0-2.5,2.7,2.469,2.469,0,0,0,2.5,2.7A2.42,2.42,0,0,0,110.7,110.6Zm3.1-4.2h2l3,5.5v-5.5h1.9v8.5h-2l-3-5.5v5.5h-1.9Z" fill="#fff"/>
        <path id="Path_748" data-name="Path 748" d="M96,48.7h0L85.8,38a4.157,4.157,0,0,0-3-1.3A3.742,3.742,0,0,0,79.9,38L69.8,48.6l-.1.1H58.6L63,75.6a2.349,2.349,0,0,0,2.3,2h35.1a2.446,2.446,0,0,0,2.3-2l4.5-26.9H96Zm6.1,9.2H94.3l.5-5.5H103ZM74,60.4h7.6v5.5H74.4Zm-1.9,5.5H65l-.9-5.5h7.6ZM84,52.3h8.3l-.5,5.5H84Zm-2.3,5.6H73.9l-.5-5.5h8.3Zm0,10.5v5.5H75.1l-.5-5.5Zm2.3,0h7l-.5,5.5H84Zm0-2.5V60.4h7.6l-.5,5.5Zm10.1-5.5h7.6l-.9,5.5H93.7ZM82.4,40.6a.619.619,0,0,1,.4-.2.4.4,0,0,1,.4.2l7.8,8H74.7ZM71,52.3l.5,5.5H63.7l-.9-5.5ZM65.4,68.4h6.9l.5,5.5H66.4ZM93,73.9l.5-5.5h6.9l-.9,5.5Z" fill="#fff"/>
      </g>
    </g>
  </g>
</svg>
